<svg width="12" height="13" viewBox="0 0 12 13" fill="none" xmlns="http://www.w3.org/2000/svg">
<path d="M6.46446 1.88241V4.7685C6.46446 5.02395 6.25546 5.23294 6.00002 5.23294C5.74457 5.23294 5.53558 5.02395 5.53558 4.7685V1.88241C5.53558 1.62696 5.74457 1.41797 6.00002 1.41797C6.25546 1.41797 6.46446 1.62696 6.46446 1.88241ZM8.61482 4.2975C8.79618 4.47886 9.09023 4.47888 9.27159 4.29752L10.4572 3.11191C10.6386 2.93055 10.6386 2.63648 10.4572 2.45512C10.2758 2.27377 9.98177 2.27377 9.80041 2.45512L8.6148 3.64073C8.43346 3.82209 8.43349 4.11616 8.61482 4.2975ZM3.38538 4.29752C3.56674 4.11616 3.56676 3.82212 3.3854 3.64076L2.19979 2.45515C2.01843 2.27379 1.72436 2.27379 1.543 2.45515C1.36164 2.63651 1.36164 2.93058 1.543 3.11194L2.72861 4.29755C2.90997 4.47888 3.20402 4.47888 3.38538 4.29752ZM9.45531 11.811C9.63592 11.6304 9.63592 11.3348 9.45531 11.1542L7.41454 9.11344C7.23393 8.93283 6.93836 8.93283 6.75775 9.11344C6.57714 9.29405 6.57714 9.58962 6.75775 9.77023L8.79853 11.811C8.97914 11.9916 9.27471 11.9916 9.45531 11.811ZM3.20151 11.811L5.24228 9.77023C5.42289 9.58962 5.42289 9.29405 5.24228 9.11344C5.06167 8.93283 4.7661 8.93283 4.58549 9.11344L2.54472 11.1542C2.36411 11.3348 2.36411 11.6304 2.54472 11.811C2.72533 11.9916 3.0209 11.9916 3.20151 11.811Z" fill="black"/>
<path d="M8.30434 1.57048C9.15091 0.844528 10.4269 0.881794 11.2286 1.68352C12.0311 2.48607 12.0677 3.76383 11.3394 4.61037C11.3072 4.63303 11.2692 4.64597 11.2299 4.64765C11.1906 4.64933 11.1516 4.63969 11.1177 4.61986L8.29279 1.79499C8.27267 1.7605 8.26305 1.72089 8.2651 1.68101C8.26715 1.64114 8.28079 1.60272 8.30434 1.57048ZM0.882859 4.61949L3.70773 1.79461C3.72756 1.76063 3.73721 1.72167 3.73553 1.68236C3.73385 1.64305 3.7209 1.60506 3.69824 1.5729C2.85168 0.844622 1.57394 0.881137 0.77139 1.68368C-0.0303133 2.48541 -0.0675788 3.76137 0.658374 4.60793C0.69061 4.63149 0.729019 4.64514 0.768893 4.64719C0.808768 4.64924 0.848375 4.63961 0.882859 4.61949Z" fill="#FFB636"/>
<path d="M11.1918 3.04398C11.0884 3.04398 10.9952 2.97236 10.972 2.86724C10.9219 2.64065 10.81 2.4318 10.6484 2.26321C10.4871 2.09502 10.2837 1.97451 10.0602 1.91467C9.93997 1.88251 9.8686 1.75898 9.90076 1.63879C9.93294 1.5186 10.0565 1.44723 10.1766 1.47939C10.4798 1.56051 10.7554 1.72373 10.9736 1.95135C11.1925 2.17961 11.3441 2.46271 11.412 2.77005C11.4388 2.89155 11.3621 3.01178 11.2406 3.03864C11.2245 3.04219 11.2082 3.04398 11.1918 3.04398ZM1.00203 2.85287C1.06187 2.6293 1.18239 2.42589 1.35057 2.26464C1.51916 2.10299 1.72803 1.9911 1.9546 1.94104C2.0761 1.9142 2.15284 1.79394 2.126 1.67244C2.09917 1.55094 1.97891 1.47421 1.85741 1.50105C1.5501 1.56894 1.26699 1.72051 1.03871 1.93937C0.811065 2.15765 0.64787 2.43323 0.566753 2.73637C0.557809 2.76976 0.55667 2.80476 0.563422 2.83866C0.570175 2.87257 0.584638 2.90446 0.605693 2.93188C0.626748 2.9593 0.653829 2.9815 0.684842 2.99678C0.715854 3.01205 0.749965 3.01998 0.784534 3.01996C0.884026 3.01998 0.975081 2.95356 1.00203 2.85287Z" fill="#FFD469"/>
<path d="M5.99996 2.00879C3.25752 2.00879 1.03442 4.23188 1.03442 6.97433C1.03442 9.71677 3.25752 11.9401 5.99996 11.9401C8.74241 11.9401 10.9655 9.71677 10.9655 6.97433C10.9655 4.23188 8.74241 2.00879 5.99996 2.00879Z" fill="#FB5046"/>
<path d="M1.96313 6.97533C1.96313 9.20126 3.77408 11.0122 5.99999 11.0122C8.22589 11.0122 10.0366 9.20123 10.0366 6.97533C10.0366 4.74942 8.22589 2.93848 5.99999 2.93848C3.77408 2.93848 1.96313 4.74942 1.96313 6.97533Z" fill="#F9F9F8"/>
<path d="M5.99992 7.28377H8.88677C9.02997 7.28377 9.14624 7.16752 9.14624 7.0241C9.14624 6.8809 9.02997 6.76465 8.88677 6.76465H5.99992C5.85651 6.76465 5.74023 6.88092 5.74023 7.0241C5.74023 7.16749 5.85651 7.28377 5.99992 7.28377Z" fill="black"/>
<path d="M5.99992 7.28368C6.14334 7.28368 6.25961 7.16743 6.25961 7.02402V4.19914C6.25961 4.05573 6.14334 3.93945 5.99992 3.93945C5.85651 3.93945 5.74023 4.05573 5.74023 4.19914V7.02399C5.74023 7.16741 5.85651 7.28368 5.99992 7.28368Z" fill="black"/>
</svg>
