<svg width="24" height="25" viewBox="0 0 24 25" fill="none" xmlns="http://www.w3.org/2000/svg">
<path d="M16.8802 3.82427C16.764 3.70786 16.6261 3.6155 16.4742 3.55248C16.3224 3.48947 16.1596 3.45703 15.9952 3.45703C15.8307 3.45703 15.6679 3.48947 15.5161 3.55248C15.3642 3.6155 15.2263 3.70786 15.1102 3.82427L6.70016 12.2343C6.60746 12.3268 6.53391 12.4367 6.48373 12.5576C6.43354 12.6786 6.40771 12.8083 6.40771 12.9393C6.40771 13.0702 6.43354 13.1999 6.48373 13.3209C6.53391 13.4419 6.60746 13.5518 6.70016 13.6443L15.1102 22.0543C15.6002 22.5443 16.3902 22.5443 16.8802 22.0543C17.3702 21.5643 17.3702 20.7743 16.8802 20.2843L9.54016 12.9443L16.8902 5.59427C17.3702 5.10427 17.3702 4.31427 16.8802 3.82427Z" fill="black"/>
</svg>
