<svg width="38" height="38" viewBox="0 0 38 38" fill="none" xmlns="http://www.w3.org/2000/svg">
<g clip-path="url(#clip0_91_14497)">
<path d="M12.149 30.2166L12.1427 30.2229C11.9246 30.4396 11.9237 30.7921 12.1405 31.0101C12.2493 31.1195 12.3922 31.1743 12.5352 31.1743C12.6771 31.1743 12.8191 31.1203 12.9276 31.0123L12.9339 31.006C13.152 30.7893 13.153 30.4368 12.9362 30.2188C12.7195 30.0009 12.3671 29.9998 12.149 30.2166Z" fill="#0E2D45"/>
<path d="M16.6918 28.4365L16.6855 28.4428C16.4681 28.6602 16.4681 29.0126 16.6855 29.23C16.7942 29.3386 16.9367 29.393 17.0791 29.393C17.2215 29.393 17.364 29.3387 17.4727 29.23L17.479 29.2236C17.6964 29.0063 17.6964 28.6538 17.479 28.4365C17.2617 28.2191 16.9092 28.2191 16.6918 28.4365Z" fill="#0E2D45"/>
<path d="M17.3833 19.2068C17.3833 18.0902 16.4749 17.1816 15.3582 17.1816C14.2404 17.1816 13.3311 18.0901 13.3311 19.2068C13.3311 20.3246 14.2405 21.234 15.3582 21.234C16.4749 21.234 17.3833 20.3246 17.3833 19.2068ZM14.4443 19.2068C14.4443 18.704 14.8543 18.2949 15.3582 18.2949C15.8609 18.2949 16.27 18.7039 16.27 19.2068C16.27 19.7107 15.861 20.1207 15.3582 20.1207C14.8543 20.1207 14.4443 19.7107 14.4443 19.2068Z" fill="#0E2D45"/>
<path d="M21.1306 29.1836C19.5813 29.1836 18.3208 30.4441 18.3208 31.9934C18.3208 33.5439 19.5813 34.8054 21.1306 34.8054C22.6811 34.8054 23.9424 33.5439 23.9424 31.9934C23.9424 30.4441 22.6811 29.1836 21.1306 29.1836ZM21.1306 33.6922C20.1951 33.6922 19.4341 32.9302 19.4341 31.9935C19.4341 31.0581 20.1951 30.2969 21.1306 30.2969C22.0672 30.2969 22.8291 31.0581 22.8291 31.9935C22.8291 32.9302 22.0672 33.6922 21.1306 33.6922Z" fill="#0E2D45"/>
<path d="M8.42633 31.3301C7.36307 31.3301 6.49805 32.1942 6.49805 33.2564C6.49805 34.3197 7.36307 35.1847 8.42633 35.1847C9.48958 35.1847 10.3546 34.3197 10.3546 33.2564C10.3546 32.1941 9.48958 31.3301 8.42633 31.3301ZM8.42633 34.0713C7.97693 34.0713 7.61133 33.7057 7.61133 33.2563C7.61133 32.808 7.97693 32.4433 8.42633 32.4433C8.87572 32.4433 9.24132 32.808 9.24132 33.2563C9.24132 33.7057 8.87572 34.0713 8.42633 34.0713Z" fill="#0E2D45"/>
<path d="M30.0382 28.7373L30.0319 28.7436C29.8145 28.961 29.8145 29.3134 30.0319 29.5307C30.1406 29.6394 30.2831 29.6938 30.4255 29.6938C30.5679 29.6938 30.7104 29.6395 30.8191 29.5307L30.8254 29.5244C31.0428 29.307 31.0428 28.9546 30.8254 28.7373C30.6081 28.5199 30.2556 28.5199 30.0382 28.7373Z" fill="#0E2D45"/>
<path d="M31.2259 32.9881L31.2196 32.9944C31.0015 33.2111 31.0006 33.5636 31.2174 33.7816C31.3262 33.891 31.4691 33.9457 31.6121 33.9457C31.754 33.9457 31.896 33.8918 32.0045 33.7838L32.0109 33.7775C32.2289 33.5608 32.2299 33.2083 32.0131 32.9903C31.7964 32.7723 31.4439 32.7713 31.2259 32.9881Z" fill="#0E2D45"/>
<path d="M31.2859 26.2719C32.3156 26.2719 33.1533 25.4342 33.1533 24.4046C33.1533 23.3738 32.3156 22.5352 31.2859 22.5352C30.2551 22.5352 29.4165 23.3738 29.4165 24.4046C29.4165 25.4342 30.2551 26.2719 31.2859 26.2719ZM31.2859 23.6484C31.7017 23.6484 32.04 23.9876 32.04 24.4046C32.04 24.8204 31.7017 25.1586 31.2859 25.1586C30.869 25.1586 30.5298 24.8204 30.5298 24.4046C30.5298 23.9876 30.869 23.6484 31.2859 23.6484Z" fill="#0E2D45"/>
<path d="M35.0998 2.68872H27.4715C26.3119 2.68872 25.3686 3.68593 25.3686 4.91157C25.3686 5.98975 26.1 6.89054 27.0663 7.09056V25.4849L21.2329 17.8036C20.4851 16.8203 19.7094 14.8072 19.7054 13.1404L19.6837 4.43271C20.8068 4.3222 21.6872 3.37243 21.6872 2.2207C21.6873 0.996238 20.6901 0 19.4645 0H11.2492C10.0235 0 9.02633 0.996238 9.02633 2.22077C9.02633 3.37243 9.90679 4.32228 11.0299 4.43279V13.1404C11.026 14.8056 10.2293 16.8194 9.48255 17.8039L7.62278 20.2528C7.43686 20.4977 7.48466 20.8469 7.72943 21.0328C7.83007 21.1092 7.94838 21.1462 8.06572 21.1462C8.23382 21.1462 8.39992 21.0703 8.5094 20.9262L10.3694 18.477C11.186 17.4004 12.0541 15.2679 12.1175 13.3493H14.0072C14.3146 13.3493 14.5639 13.1001 14.5639 12.7926C14.5639 12.4852 14.3146 12.236 14.0072 12.236H12.1236L12.1283 10.3808H14.0073C14.3147 10.3808 14.5639 10.1315 14.5639 9.82411C14.5639 9.5167 14.3147 9.26747 14.0073 9.26747H12.1311L12.1358 7.41223H14.0073C14.3147 7.41223 14.5639 7.163 14.5639 6.85559C14.5639 6.54817 14.3147 6.29895 14.0073 6.29895H12.1385L12.1432 4.4437H18.5706V13.1427C18.5752 15.1149 19.4997 17.3636 20.3466 18.4772L24.2741 23.6488C22.9477 23.2229 21.6462 23.152 20.2869 23.4215C18.8671 23.7029 17.5242 24.3177 16.0715 25.0729C13.1466 22.9717 8.79462 23.4296 5.88777 24.4094L6.97604 22.9924C7.16329 22.7486 7.11742 22.3991 6.87361 22.2118C6.62966 22.0246 6.28031 22.0704 6.09306 22.3142L2.71417 26.7137C1.84893 27.8418 1.19981 29.3931 0.93322 30.9701C0.646068 32.6686 0.816622 34.2704 1.41342 35.4803C1.98045 36.6298 3.20357 38 5.81088 38H24.9028C26.3037 38 27.4744 37.5827 28.331 36.789C29.0928 37.5373 30.136 38 31.2856 38C33.6122 38 35.505 36.1072 35.505 33.7805V15.1552C35.505 14.8478 35.2558 14.5986 34.9483 14.5986C34.6409 14.5986 34.3917 14.8478 34.3917 15.1552V18.7337C33.5556 19.1397 32.3419 19.0946 31.5946 18.5948C30.6555 17.9681 29.2998 17.8318 28.1796 18.186V16.04H30.0423C30.3497 16.04 30.599 15.7908 30.599 15.4834C30.599 15.176 30.3497 14.9267 30.0423 14.9267H28.1796V13.0694H30.0423C30.3497 13.0694 30.599 12.8202 30.599 12.5128C30.599 12.2053 30.3497 11.9561 30.0423 11.9561H28.1796V10.1009H30.0423C30.3497 10.1009 30.599 9.85165 30.599 9.54423C30.599 9.23682 30.3497 8.98759 30.0423 8.98759H28.1796V7.13242H34.3917V12.5865C34.3917 12.8939 34.6409 13.1431 34.9483 13.1431C35.2558 13.1431 35.505 12.8939 35.505 12.5865V7.09064C36.4713 6.89062 37.2027 5.98975 37.2027 4.91165C37.2027 3.68593 36.2593 2.68872 35.0998 2.68872ZM11.2492 3.33042C10.6373 3.33042 10.1396 2.83263 10.1396 2.22077C10.1396 1.6101 10.6374 1.11328 11.2492 1.11328H19.4645C20.0763 1.11328 20.574 1.6101 20.574 2.22077C20.574 2.83263 20.0762 3.33042 19.4645 3.33042H11.2492ZM3.59738 27.3915L4.49617 26.2213C6.73097 24.9353 11.7487 23.8314 14.9444 25.6699C14.9026 25.6923 14.8613 25.7143 14.8193 25.7368C11.5916 27.4658 7.9506 29.4142 2.42865 29.6426C2.72308 28.7889 3.12683 28.005 3.59738 27.3915ZM24.9028 36.8867H5.81088C4.17695 36.8867 3.03339 36.2478 2.41188 34.9878C1.82867 33.8055 1.79594 32.2487 2.11441 30.7676C8.09882 30.5982 12.1088 28.4518 15.3449 26.7183C19.064 24.726 21.7595 23.2828 25.6647 25.4803L27.0662 27.3258V33.7806C27.0662 34.5563 27.2776 35.2833 27.6443 35.9085C26.9879 36.5579 26.0678 36.8867 24.9028 36.8867ZM30.9762 19.5206C31.5759 19.9216 32.3458 20.1222 33.1162 20.1221C33.5515 20.1221 33.9868 20.0579 34.3916 19.9298V33.7805C34.3916 35.4933 32.9982 36.8867 31.2856 36.8867C29.5729 36.8867 28.1795 35.4933 28.1795 33.7805V19.382C29.0151 18.9766 30.2288 19.0217 30.9762 19.5206ZM35.0998 6.01914H27.4715C26.9257 6.01914 26.4818 5.52232 26.4818 4.91165C26.4818 4.29979 26.9258 3.80208 27.4715 3.80208H35.0998C35.6456 3.80208 36.0895 4.29986 36.0895 4.91165C36.0895 5.52225 35.6455 6.01914 35.0998 6.01914Z" fill="#0E2D45"/>
</g>
<defs>
<clipPath id="clip0_91_14497">
<rect width="38" height="38" fill="white"/>
</clipPath>
</defs>
</svg>
