<svg width="46" height="46" viewBox="0 0 46 46" fill="none" xmlns="http://www.w3.org/2000/svg">
<g clip-path="url(#clip0_91_14514)">
<path d="M40.9041 36.3772V29.7479L43.6042 27.0703L42.6626 26.1174L40.1141 28.649L35.1541 26.1775V18.99L28.7528 15.7781L23.014 18.6531L17.2696 15.7781L11.4999 18.6531L6.40413 16.115V9.76045L11.4803 7.22236L16.5565 9.76045V13.6562H17.9041V8.92732L12.1541 6.05232V0H10.8065V6.05232L5.88582 8.52393L1.92794 4.55481L0.958252 5.50769L5.05656 9.6228V16.2521L2.40141 18.9297L3.36553 19.8826L5.88025 17.351L10.8066 19.8225V27.01L17.2529 30.2219L23.0141 27.3469L28.7697 30.2219L34.5001 27.3469L39.5566 29.885V36.2396L34.4804 38.7776L29.4042 36.2396V32.3438H28.0566V37.0727L33.8066 39.9477V46H35.1542V39.9477L40.1198 37.4761L44.1113 41.4452L45.0417 40.4923L40.9041 36.3772ZM22.3065 26.1773L17.2303 28.7154L12.1541 26.1773V19.8228L17.2303 17.2847L22.3065 19.8228V26.1773ZM33.8065 26.1773L28.7303 28.7154L23.6541 26.1773V19.8228L28.7303 17.2847L33.8065 19.8228V26.1773Z" fill="#0E2D45"/>
<path d="M10.0881 14.4648H8.65063V15.8125H10.0881V14.4648Z" fill="#0E2D45"/>
<path d="M33.0881 34.5898H31.6506V35.9375H33.0881V34.5898Z" fill="#0E2D45"/>
<path d="M38.0295 30.1875H36.6819V35.9375H38.0295V30.1875Z" fill="#0E2D45"/>
<path d="M15.0295 20.125H13.6819V25.875H15.0295V20.125Z" fill="#0E2D45"/>
</g>
<defs>
<clipPath id="clip0_91_14514">
<rect width="46" height="46" fill="white"/>
</clipPath>
</defs>
</svg>
