<svg width="105" height="94" viewBox="0 0 105 94" fill="none" xmlns="http://www.w3.org/2000/svg">
<path d="M94.7565 74.336V60.7891L101.161 55.3175L98.9278 53.3704L92.8825 58.5436L81.1168 53.4931V38.8056L65.932 32.2421L52.3189 38.1171L38.6925 32.2421L25.006 38.1171L12.9183 32.9306V19.9453L24.9596 14.7587L37.0009 19.9453V27.9062H40.1977V18.2428L26.558 12.3678V0H23.3612V12.3678L11.6888 17.4185L2.30022 9.30765L0 11.2548L9.7217 19.664V33.2109L3.42335 38.6825L5.71034 40.6296L11.6756 35.4564L23.3615 40.5069V55.1944L38.6527 61.7579L52.3191 55.8829L65.9722 61.7579L79.5653 55.8829L91.56 61.0694V74.0547L79.5187 79.2413L67.4773 74.0547V66.0938H64.2806V75.7572L77.9203 81.6321V94H81.117V81.6321L92.8961 76.5815L102.364 84.6924L104.571 82.7451L94.7565 74.336ZM50.6406 53.4928L38.5993 58.6794L26.558 53.4928V40.5074L38.5993 35.3209L50.6406 40.5074V53.4928ZM77.92 53.4928L65.8787 58.6794L53.8374 53.4928V40.5074L65.8787 35.3209L77.92 40.5074V53.4928Z" fill="white" fill-opacity="0.25"/>
</svg>
