<svg width="50" height="50" viewBox="0 0 50 50" fill="none" xmlns="http://www.w3.org/2000/svg">
<circle cx="25" cy="25" r="25" fill="#145ED7" fill-opacity="0.09"/>
<path d="M39.1211 19.9609H10.8789C10.3935 19.9609 10 19.5674 10 19.082V15.5664C10 13.7894 11.4457 12.3438 13.2227 12.3438H36.7773C38.5543 12.3438 40 13.7894 40 15.5664V19.082C40 19.5674 39.6065 19.9609 39.1211 19.9609Z" fill="#2B72E6"/>
<path d="M36.7773 12.3438H25V19.9609H39.1211C39.6065 19.9609 40 19.5674 40 19.082V15.5664C40 13.7894 38.5543 12.3438 36.7773 12.3438Z" fill="#145ED7"/>
<path d="M14.9553 16.4453C14.4699 16.4453 14.0764 16.0518 14.0764 15.5664V10.8789C14.0764 10.3935 14.4699 10 14.9553 10C15.4407 10 15.8342 10.3935 15.8342 10.8789V15.5664C15.8342 16.0518 15.4407 16.4453 14.9553 16.4453Z" fill="#FDC570"/>
<path d="M18.9733 16.4453C18.4879 16.4453 18.0944 16.0518 18.0944 15.5664V10.8789C18.0944 10.3935 18.4879 10 18.9733 10C19.4587 10 19.8522 10.3935 19.8522 10.8789V15.5664C19.8522 16.0518 19.4587 16.4453 18.9733 16.4453Z" fill="#FDC570"/>
<path d="M22.9911 16.4453C22.5057 16.4453 22.1122 16.0518 22.1122 15.5664V10.8789C22.1122 10.3935 22.5057 10 22.9911 10C23.4765 10 23.87 10.3935 23.87 10.8789V15.5664C23.87 16.0518 23.4765 16.4453 22.9911 16.4453Z" fill="#FDC570"/>
<path d="M27.0089 16.4453C26.5235 16.4453 26.13 16.0518 26.13 15.5664V10.8789C26.13 10.3935 26.5235 10 27.0089 10C27.4943 10 27.8878 10.3935 27.8878 10.8789V15.5664C27.8878 16.0518 27.4943 16.4453 27.0089 16.4453Z" fill="#FFB84A"/>
<path d="M31.0267 16.4453C30.5413 16.4453 30.1478 16.0518 30.1478 15.5664V10.8789C30.1478 10.3935 30.5413 10 31.0267 10C31.5121 10 31.9056 10.3935 31.9056 10.8789V15.5664C31.9056 16.0518 31.5121 16.4453 31.0267 16.4453Z" fill="#FFB84A"/>
<path d="M35.0447 16.4453C34.5593 16.4453 34.1658 16.0518 34.1658 15.5664V10.8789C34.1658 10.3935 34.5593 10 35.0447 10C35.5301 10 35.9236 10.3935 35.9236 10.8789V15.5664C35.9236 16.0518 35.5301 16.4453 35.0447 16.4453Z" fill="#FFB84A"/>
<path d="M10 19.082V36.7773C10 38.5543 11.4457 40 13.2227 40H36.7773C38.5543 40 40 38.5543 40 36.7773V19.082H10Z" fill="#145ED7" fill-opacity="0.1"/>
<path d="M25 19.082V40H36.7773C38.5543 40 40 38.5543 40 36.7773V19.082H25Z" fill="#145ED7" fill-opacity="0.1"/>
<path d="M25 35.8398C21.8266 35.8398 19.4336 34.4544 19.4336 32.6172V28.3984C19.4336 27.913 19.8271 27.5195 20.3125 27.5195H29.6875C30.1729 27.5195 30.5664 27.913 30.5664 28.3984V32.6172C30.5664 34.4544 28.1734 35.8398 25 35.8398Z" fill="#009D7A"/>
<path d="M29.6875 27.5195H25V35.8398C28.1734 35.8398 30.5664 34.4544 30.5664 32.6172V28.3984C30.5664 27.913 30.1729 27.5195 29.6875 27.5195Z" fill="#009D7A"/>
<path d="M34.668 26.7588C34.668 26.4244 34.4838 26.09 34.1155 25.9427L25.3264 22.4271C25.1169 22.3433 24.8831 22.3433 24.6736 22.4271L15.8845 25.9427C15.1479 26.2374 15.1479 27.2801 15.8845 27.5748L24.6736 31.0904C24.8831 31.1742 25.1169 31.1742 25.3264 31.0904L32.9102 28.0569V32.0322C32.9102 32.5176 33.3037 32.9111 33.7891 32.9111C34.2745 32.9111 34.668 32.5176 34.668 32.0322V26.7588Z" fill="#009D7A"/>
<path d="M25.3264 31.0895L32.9102 28.056V32.0312C32.9102 32.5166 33.3037 32.9102 33.7891 32.9102C34.2745 32.9102 34.668 32.5166 34.668 32.0312V26.7578C34.668 26.4235 34.4838 26.0891 34.1155 25.9418L25.3264 22.4262C25.2217 22.3843 25.1108 22.3633 25 22.3633V31.1523C25.1108 31.1523 25.2217 31.1314 25.3264 31.0895Z" fill="#009D7A"/>
</svg>
