<svg width="103" height="110" viewBox="0 0 103 110" fill="none" xmlns="http://www.w3.org/2000/svg">
<path d="M32.0973 87.4726L32.0795 87.4908C31.4629 88.1183 31.4602 89.1385 32.0732 89.7696C32.3808 90.0862 32.785 90.2447 33.1891 90.2447C33.5903 90.2447 33.9919 90.0885 34.2989 89.776L34.3167 89.7578C34.9332 89.1303 34.936 88.1101 34.323 87.479C33.7105 86.8481 32.7139 86.8451 32.0973 87.4726Z" fill="white" fill-opacity="0.2"/>
<path d="M44.9424 82.3166L44.9246 82.335C44.3098 82.9642 44.3098 83.9845 44.9246 84.6136C45.2317 84.9282 45.6346 85.0856 46.0374 85.0856C46.4401 85.0856 46.8431 84.9283 47.1502 84.6136L47.168 84.5954C47.7828 83.966 47.7828 82.9458 47.168 82.3166C46.5536 81.6874 45.5569 81.6874 44.9424 82.3166Z" fill="white" fill-opacity="0.2"/>
<path d="M46.8978 55.6005C46.8978 52.3681 44.3292 49.7383 41.1717 49.7383C38.0111 49.7383 35.4399 52.3679 35.4399 55.6005C35.4399 58.8362 38.0113 61.4687 41.1717 61.4687C44.3292 61.4687 46.8978 58.8362 46.8978 55.6005ZM38.5878 55.6005C38.5878 54.145 39.747 52.9608 41.1717 52.9608C42.5933 52.9608 43.7501 54.1449 43.7501 55.6005C43.7501 57.0593 42.5935 58.246 41.1717 58.246C39.747 58.246 38.5878 57.0593 38.5878 55.6005Z" fill="white" fill-opacity="0.2"/>
<path d="M57.4935 84.4814C53.1128 84.4814 49.5488 88.1301 49.5488 92.6153C49.5488 97.1036 53.1128 100.755 57.4935 100.755C61.8776 100.755 65.444 97.1036 65.444 92.6153C65.444 88.1305 61.8776 84.4814 57.4935 84.4814ZM57.4935 97.5326C54.8485 97.5326 52.6967 95.3268 52.6967 92.6155C52.6967 89.9076 54.8485 87.7044 57.4935 87.7044C60.1419 87.7044 62.2961 89.9076 62.2961 92.6155C62.2961 95.3268 60.1419 97.5326 57.4935 97.5326Z" fill="white" fill-opacity="0.2"/>
<path d="M21.572 90.6934C18.5655 90.6934 16.1198 93.1948 16.1198 96.2694C16.1198 99.3474 18.5655 101.851 21.572 101.851C24.5783 101.851 27.0242 99.3474 27.0242 96.2694C27.0242 93.1944 24.5783 90.6934 21.572 90.6934ZM21.572 98.6286C20.3012 98.6286 19.2676 97.5702 19.2676 96.2691C19.2676 94.9714 20.3012 93.9157 21.572 93.9157C22.8426 93.9157 23.8764 94.9714 23.8764 96.2691C23.8764 97.5702 22.8426 98.6286 21.572 98.6286Z" fill="white" fill-opacity="0.2"/>
<path d="M82.6792 83.1867L82.6614 83.2051C82.0469 83.8343 82.0469 84.8547 82.6614 85.4837C82.9687 85.7983 83.3717 85.9558 83.7743 85.9558C84.177 85.9558 84.58 85.7985 84.8872 85.4837L84.9051 85.4655C85.5196 84.8361 85.5196 83.8159 84.9051 83.1867C84.2906 82.5575 83.294 82.5575 82.6792 83.1867Z" fill="white" fill-opacity="0.2"/>
<path d="M86.0372 95.4921L86.0194 95.5105C85.4029 96.1378 85.4001 97.158 86.0132 97.7891C86.3208 98.1057 86.7249 98.2643 87.129 98.2643C87.5304 98.2643 87.9318 98.1081 88.2388 97.7955L88.2566 97.7773C88.8732 97.15 88.876 96.1296 88.2629 95.4986C87.6502 94.8676 86.6535 94.8647 86.0372 95.4921Z" fill="white" fill-opacity="0.2"/>
<path d="M86.2072 76.0484C89.1185 76.0484 91.4871 73.6233 91.4871 70.6428C91.4871 67.6588 89.1185 65.2314 86.2072 65.2314C83.2925 65.2314 80.9214 67.6588 80.9214 70.6428C80.9214 73.6233 83.2925 76.0484 86.2072 76.0484ZM86.2072 68.454C87.3828 68.454 88.3394 69.4358 88.3394 70.6428C88.3394 71.8464 87.3828 72.8257 86.2072 72.8257C85.0286 72.8257 84.0692 71.8464 84.0692 70.6428C84.0692 69.4358 85.0283 68.454 86.2072 68.454Z" fill="white" fill-opacity="0.2"/>
<path d="M96.991 7.78314H75.4218C72.143 7.78314 69.4758 10.6698 69.4758 14.2177C69.4758 17.3388 71.544 19.9463 74.2763 20.5254V73.7721L57.7822 51.5367C55.6678 48.6902 53.4744 42.8631 53.4634 38.0382L53.4018 12.8315C56.5776 12.5116 59.067 9.76228 59.067 6.42834C59.0671 2.88385 56.2474 0 52.782 0H29.5533C26.0874 0 23.268 2.88385 23.268 6.42856C23.268 9.76228 25.7575 12.5119 28.9332 12.8318V38.0382C28.9221 42.8584 26.6696 48.6877 24.558 51.5375L19.2995 58.6265C18.7739 59.3353 18.909 60.3462 19.6011 60.8844C19.8857 61.1056 20.2201 61.2126 20.552 61.2126C21.0273 61.2126 21.4969 60.9931 21.8065 60.5759L27.0656 53.4859C29.3746 50.3695 31.8291 44.1966 32.0082 38.6427H37.3517C38.2209 38.6427 38.9256 37.9212 38.9256 37.0313C38.9256 36.1414 38.2209 35.42 37.3517 35.42H32.0257L32.0389 30.0495H37.3518C38.221 30.0495 38.9257 29.328 38.9257 28.4383C38.9257 27.5484 38.221 26.827 37.3518 26.827H32.0469L32.0601 21.4564H37.3518C38.221 21.4564 38.9257 20.735 38.9257 19.8451C38.9257 18.9552 38.221 18.2338 37.3518 18.2338H32.068L32.0812 12.8633H50.2544V38.0448C50.2675 43.7538 52.8816 50.2629 55.2763 53.4867L66.3811 68.4572C62.6308 67.2241 58.9508 67.0191 55.1076 67.7991C51.093 68.6136 47.2957 70.3934 43.1885 72.5794C34.9182 66.4969 22.6129 67.8225 14.3938 70.6587L17.4709 66.5569C18.0003 65.8512 17.8706 64.8393 17.1813 64.2974C16.4915 63.7555 15.5037 63.8882 14.9742 64.5939L5.42043 77.3292C2.97395 80.5945 1.13857 85.0855 0.38476 89.6502C-0.427158 94.5668 0.0550871 99.2037 1.74251 102.706C3.34581 106.034 6.8042 110 14.1763 110H68.1588C72.12 110 75.4301 108.792 77.8522 106.494C80.006 108.661 82.9559 110 86.2064 110C92.7848 110 98.1367 104.521 98.1367 97.7858V43.8705C98.1367 42.9806 97.432 42.2592 96.5627 42.2592C95.6935 42.2592 94.9888 42.9806 94.9888 43.8705V54.2292C92.6249 55.4043 89.1929 55.2737 87.0801 53.8272C84.4247 52.0129 80.5916 51.6183 77.4241 52.6436V46.4316H82.6909C83.5602 46.4316 84.2649 45.7102 84.2649 44.8203C84.2649 43.9304 83.5602 43.2089 82.6909 43.2089H77.4241V37.8325H82.6909C83.5602 37.8325 84.2649 37.111 84.2649 36.2211C84.2649 35.3312 83.5602 34.6098 82.6909 34.6098H77.4241V29.2394H82.6909C83.5602 29.2394 84.2649 28.518 84.2649 27.6281C84.2649 26.7382 83.5602 26.0167 82.6909 26.0167H77.4241V20.6465H94.9888V36.4345C94.9888 37.3244 95.6935 38.0459 96.5627 38.0459C97.432 38.0459 98.1367 37.3244 98.1367 36.4345V20.5255C100.869 19.9465 102.937 17.3388 102.937 14.2179C102.937 10.6698 100.27 7.78314 96.991 7.78314ZM29.5533 9.64068C27.8231 9.64068 26.4159 8.19973 26.4159 6.42856C26.4159 4.66083 27.8234 3.22265 29.5533 3.22265H52.782C54.512 3.22265 55.9193 4.66083 55.9193 6.42856C55.9193 8.19973 54.5117 9.64068 52.782 9.64068H29.5533ZM7.91769 79.2913L10.459 75.9039C16.7779 72.1812 30.9656 68.9857 40.0014 74.3075C39.8832 74.3724 39.7666 74.4362 39.6476 74.5014C30.5215 79.5064 20.2264 85.1464 4.61311 85.8075C5.4456 83.3362 6.58721 81.067 7.91769 79.2913ZM68.1588 106.777H14.1763C9.55644 106.777 6.323 104.928 4.56569 101.281C2.91666 97.858 2.82411 93.3515 3.72459 89.0642C20.6456 88.5736 31.9837 82.3606 41.1337 77.3424C51.6499 71.5751 59.2713 67.3976 70.3131 73.7586L74.276 79.101V97.7859C74.276 100.031 74.8737 102.136 75.9105 103.946C74.0545 105.826 71.4529 106.777 68.1588 106.777ZM85.3313 56.5068C87.0271 57.668 89.204 58.2485 91.3823 58.2481C92.6131 58.2481 93.8441 58.0624 94.9887 57.6915V97.7858C94.9887 102.744 91.0488 106.777 86.2062 106.777C81.3637 106.777 77.4238 102.744 77.4238 97.7858V56.1058C79.7864 54.9323 83.2182 55.063 85.3313 56.5068ZM96.991 17.4238H75.4218C73.8787 17.4238 72.6236 15.9857 72.6236 14.2179C72.6236 12.4468 73.8791 11.006 75.4218 11.006H96.991C98.5341 11.006 99.7893 12.447 99.7893 14.2179C99.7893 15.9855 98.5339 17.4238 96.991 17.4238Z" fill="white" fill-opacity="0.2"/>
</svg>
