<svg width="16" height="16" viewBox="0 0 16 16" fill="none" xmlns="http://www.w3.org/2000/svg">
<g clip-path="url(#clip0_129_2)">
<path d="M8 0.160156C6.4494 0.160156 4.9336 0.619956 3.64433 1.48142C2.35507 2.34289 1.3502 3.56736 0.756799 4.99989C0.163399 6.43249 0.00813244 8.00882 0.310666 9.52962C0.613199 11.0504 1.35987 12.4474 2.45627 13.5439C3.55273 14.6403 4.94967 15.387 6.47047 15.6896C7.99127 15.992 9.56767 15.8368 11.0002 15.2434C12.4328 14.65 13.6573 13.6451 14.5187 12.3558C15.3802 11.0666 15.84 9.55076 15.84 8.00016C15.84 6.97062 15.6372 5.95109 15.2432 4.99989C14.8493 4.04869 14.2717 3.18442 13.5437 2.45642C12.8157 1.72842 11.9515 1.15096 11.0002 0.756956C10.0491 0.362956 9.02953 0.160156 8 0.160156ZM8 14.2722C6.75953 14.2722 5.54687 13.9043 4.51547 13.2152C3.48407 12.526 2.68013 11.5464 2.20547 10.4004C1.73073 9.25429 1.60653 7.99316 1.84853 6.77656C2.09053 5.55989 2.68787 4.44236 3.56507 3.56516C4.4422 2.68802 5.55973 2.09069 6.7764 1.84869C7.993 1.60669 9.25413 1.73089 10.4002 2.20556C11.5463 2.68029 12.5258 3.48416 13.215 4.51562C13.9041 5.54702 14.272 6.75962 14.272 8.00016C14.272 9.66356 13.6113 11.2589 12.435 12.4352C11.2588 13.6113 9.6634 14.2722 8 14.2722Z" fill="#29A551"/>
</g>
<defs>
<clipPath id="clip0_129_2">
<rect width="16" height="16" fill="white"/>
</clipPath>
</defs>
</svg>
