<svg width="22" height="22" viewBox="0 0 22 22" fill="none" xmlns="http://www.w3.org/2000/svg">
<path fill-rule="evenodd" clip-rule="evenodd" d="M11 0.25C5.06294 0.25 0.25 5.06294 0.25 11C0.25 16.9371 5.06294 21.75 11 21.75C16.9371 21.75 21.75 16.9371 21.75 11C21.75 5.06294 16.9371 0.25 11 0.25ZM8.70164 7.64124C8.40875 7.34835 7.93388 7.34835 7.64098 7.64124C7.34809 7.93414 7.34809 8.40901 7.64098 8.7019L9.9391 11L7.64098 13.2981C7.34809 13.591 7.34809 14.0659 7.64098 14.3588C7.93388 14.6517 8.40875 14.6517 8.70164 14.3588L10.9997 12.0607L13.2978 14.3588C13.5907 14.6517 14.0656 14.6517 14.3585 14.3588C14.6514 14.0659 14.6514 13.591 14.3585 13.2981L12.0604 11L14.3585 8.7019C14.6514 8.40901 14.6514 7.93414 14.3585 7.64124C14.0656 7.34835 13.5907 7.34835 13.2978 7.64124L10.9997 9.9393L8.70164 7.64124Z" fill="white"/>
</svg>
