<svg width="35" height="35" viewBox="0 0 35 35" fill="none" xmlns="http://www.w3.org/2000/svg">
<path d="M14.4296 31.8254C11.5757 31.2388 8.95977 29.819 6.91271 27.7457C4.86565 25.6725 3.47936 23.0387 2.92915 20.1775C2.37895 17.3164 2.68953 14.3563 3.82163 11.6716C4.95374 8.98697 6.85651 6.69831 9.28933 5.09507C11.7221 3.49182 14.5758 2.64599 17.4893 2.66455C20.4028 2.6831 23.2454 3.5652 25.6576 5.19929C28.0698 6.83339 29.9433 9.1461 31.0411 11.8449C32.1389 14.5438 32.4118 17.5076 31.8252 20.3615C31.0345 24.1863 28.759 27.5413 25.4978 29.6904C22.2367 31.8396 18.2562 32.6073 14.4296 31.8254Z" fill="#FFC52E"/>
<path d="M23.9253 24.2056C24.2279 23.5985 24.4519 22.9554 24.5921 22.2918C24.6278 22.1179 24.593 21.9368 24.4953 21.7885C24.3976 21.6402 24.2449 21.5368 24.071 21.5011L9.64125 18.5352C9.46729 18.4994 9.28626 18.5343 9.13797 18.632C8.98969 18.7297 8.88629 18.8823 8.85054 19.0563C8.71652 19.721 8.66767 20.4001 8.70518 21.0772L23.9253 24.2056Z" fill="white"/>
<path d="M8.7085 21.0801C8.7982 22.8558 9.47521 24.5515 10.6332 25.9007C11.7912 27.2499 13.3646 28.1763 15.1062 28.5343C16.8478 28.8922 18.659 28.6616 20.2553 27.8784C21.8516 27.0953 23.1425 25.8042 23.9253 24.2077L8.7085 21.0801Z" fill="#AE453E"/>
<path d="M11.3952 26.6794C12.4447 27.6183 13.7243 28.2622 15.1036 28.5458C16.483 28.8293 17.9128 28.7422 19.2476 28.2934C18.9795 27.5323 18.519 26.8536 17.911 26.3231C17.303 25.7926 16.5681 25.4284 15.7778 25.266C14.9874 25.1035 14.1684 25.1483 13.4005 25.396C12.6325 25.6436 11.9417 26.0858 11.3952 26.6794Z" fill="#E86C60"/>
<path d="M16.7314 10.4798L13.7182 9.93701L12.4572 7.14849C12.4058 7.03463 12.3236 6.93743 12.2198 6.86785C12.1161 6.79828 11.9949 6.75912 11.8701 6.75479C11.7452 6.75047 11.6217 6.78115 11.5133 6.84337C11.405 6.9056 11.3163 6.99688 11.2571 7.10691L9.80977 9.80498L6.7668 10.142C6.64269 10.1559 6.52491 10.2041 6.42677 10.2813C6.32863 10.3585 6.25404 10.4617 6.21143 10.579C6.16881 10.6964 6.15987 10.8234 6.18562 10.9456C6.21136 11.0678 6.27076 11.1803 6.35711 11.2706L8.47473 13.4832L7.85837 16.4819C7.83252 16.6044 7.84151 16.7317 7.88431 16.8493C7.92712 16.9669 8.00203 17.0701 8.10055 17.1473C8.19907 17.2245 8.31725 17.2726 8.44168 17.286C8.56612 17.2994 8.69182 17.2777 8.80454 17.2233L11.5618 15.8917L14.2213 17.407C14.3298 17.4689 14.4535 17.4992 14.5783 17.4945C14.7031 17.4898 14.8242 17.4503 14.9277 17.3804C15.0313 17.3105 15.1132 17.213 15.1642 17.099C15.2153 16.985 15.2334 16.859 15.2166 16.7352L14.7997 13.6949L17.0628 11.6342C17.1553 11.5501 17.2224 11.4419 17.2565 11.3217C17.2906 11.2015 17.2904 11.0741 17.256 10.954C17.2262 10.8315 17.1602 10.7207 17.0666 10.6362C16.9731 10.5516 16.8563 10.4971 16.7314 10.4798Z" fill="#FF9E0B"/>
<path d="M30.3614 15.5446C30.3685 15.4199 30.3407 15.2958 30.2809 15.1861C30.2212 15.0765 30.132 14.9857 30.0234 14.9241L27.3601 13.4142L27.0936 10.3672C27.0826 10.2428 27.037 10.1239 26.9621 10.024C26.8871 9.9241 26.7856 9.84716 26.6692 9.8019C26.5528 9.75663 26.426 9.74484 26.3032 9.76785C26.1804 9.79086 26.0665 9.84775 25.9744 9.93211L23.7158 11.9972L20.7328 11.3075C20.6112 11.2733 20.4821 11.2769 20.3626 11.3178C20.2431 11.3587 20.1388 11.4349 20.0637 11.5364C19.9846 11.6332 19.9342 11.7501 19.9182 11.874C19.9021 11.9979 19.9211 12.1239 19.9729 12.2376L21.2398 15.0239L19.662 17.648C19.5977 17.7551 19.5647 17.8781 19.5666 18.003C19.5686 18.1279 19.6054 18.2498 19.673 18.3549C19.7406 18.4599 19.8362 18.544 19.9491 18.5975C20.0619 18.6511 20.1875 18.672 20.3117 18.6579L23.3532 18.3144L25.3617 20.6256C25.4588 20.7353 25.5892 20.8101 25.7329 20.8386C25.9068 20.8744 26.0879 20.8396 26.2362 20.7418C26.3844 20.6441 26.4878 20.4915 26.5236 20.3175L27.1367 17.3181L29.9553 16.1201C30.0698 16.0713 30.1684 15.9917 30.2402 15.89C30.3119 15.7884 30.3539 15.6687 30.3614 15.5446Z" fill="#FF9E0B"/>
</svg>
