<svg width="19" height="19" viewBox="0 0 19 19" fill="none" xmlns="http://www.w3.org/2000/svg">
<path d="M9.375 1C11.6625 1 13.8561 1.90887 15.4736 3.52637C17.0911 5.14387 18 7.33751 18 9.625C18 11.9125 17.0911 14.1061 15.4736 15.7236C13.8561 17.3411 11.6625 18.25 9.375 18.25H1.46973C1.27895 18.2498 1.09584 18.174 0.960938 18.0391C0.859852 17.938 0.791473 17.81 0.763672 17.6719L0.75 17.5303V9.62598C0.75258 7.33905 1.6622 5.1464 3.2793 3.5293C4.8962 1.9124 7.08838 1.0028 9.375 1ZM6.375 7C5.97722 7 5.59575 7.15821 5.31445 7.43945C5.03315 7.72076 4.875 8.10218 4.875 8.5C4.875 8.89783 5.03315 9.27924 5.31445 9.56055C5.59575 9.84179 5.97722 10 6.375 10C5.97722 10 5.59575 10.1582 5.31445 10.4395C5.03315 10.7208 4.875 11.1022 4.875 11.5C4.875 11.8978 5.03315 12.2792 5.31445 12.5605C5.59575 12.8418 5.97722 13 6.375 13H12C12.3978 13 12.7793 12.8418 13.0605 12.5605C13.3418 12.2793 13.5 11.8978 13.5 11.5C13.5 11.1022 13.3418 10.7207 13.0605 10.4395C12.7793 10.1582 12.3978 10 12 10C12.3978 9.99995 12.7793 9.84181 13.0605 9.56055C13.3418 9.27925 13.5 8.89778 13.5 8.5C13.5 8.10222 13.3418 7.72075 13.0605 7.43945C12.7793 7.15819 12.3978 7.00005 12 7H6.375Z" stroke="white" stroke-width="1.5"/>
</svg>
