<svg width="41" height="42" viewBox="0 0 41 42" fill="none" xmlns="http://www.w3.org/2000/svg">
<g clip-path="url(#clip0_91_27709)">
<path d="M33.8702 16.306C33.722 16.0406 33.5057 15.8195 33.2436 15.6656C32.9815 15.5117 32.683 15.4305 32.3791 15.4305H22.1637L23.9132 2.06276C23.9642 1.67494 23.8805 1.28138 23.6762 0.947828C23.4719 0.61428 23.1593 0.360948 22.7906 0.230161C22.422 0.0993736 22.0196 0.0990528 21.6508 0.229252C21.2819 0.359451 20.969 0.612284 20.7641 0.945507L7.15552 23.0774C6.99636 23.3363 6.90913 23.6329 6.90283 23.9367C6.89653 24.2405 6.97139 24.5405 7.11967 24.8058C7.26796 25.071 7.48432 25.2919 7.74643 25.4457C8.00854 25.5994 8.30692 25.6805 8.6108 25.6805H18.6584L17.0861 39.0695C17.0406 39.4561 17.1286 39.8465 17.3353 40.1763C17.542 40.5061 17.8551 40.7553 18.2228 40.8829C18.5905 41.0105 18.9908 41.0086 19.3573 40.8777C19.7238 40.7468 20.0347 40.4947 20.2384 40.1631L33.8348 18.0338C33.9938 17.7749 34.0809 17.4784 34.0871 17.1747C34.0933 16.871 34.0185 16.5711 33.8702 16.306ZM21.3832 31.7734L22.2758 24.1724C22.3041 23.9328 22.2813 23.69 22.2089 23.4598C22.1366 23.2297 22.0163 23.0175 21.856 22.8372C21.6958 22.6569 21.4991 22.5125 21.279 22.4137C21.0589 22.3149 20.8204 22.2638 20.5792 22.2638H11.6668L19.4884 9.54333L18.5234 16.9171C18.4919 17.1581 18.5121 17.4031 18.5828 17.6356C18.6535 17.8682 18.773 18.083 18.9333 18.2657C19.0936 18.4483 19.2911 18.5947 19.5125 18.695C19.7339 18.7952 19.9742 18.8471 20.2172 18.8471H29.3246L21.3832 31.7734Z" fill="#EFF2F6"/>
</g>
<defs>
<clipPath id="clip0_91_27709">
<rect width="41" height="41" fill="white" transform="translate(0 0.0556641)"/>
</clipPath>
</defs>
</svg>
