<svg width="47" height="48" viewBox="0 0 47 48" fill="none" xmlns="http://www.w3.org/2000/svg">
<path d="M13.0555 6.84473H36.5555V8.86834H13.0555V6.84473Z" fill="#EFF2F6"/>
<path d="M37.8611 10.5003H12.8728C12.5396 10.4956 12.2108 10.4234 11.9063 10.2882C11.6018 10.153 11.3278 9.95747 11.1009 9.71347C10.8739 9.46947 10.6988 9.18204 10.586 8.86851C10.4732 8.55499 10.425 8.22186 10.4444 7.88921C10.4428 7.22724 10.6927 6.58936 11.1435 6.10461C11.5943 5.61986 12.2124 5.32444 12.8728 5.2781H37.8611C38.2074 5.2781 38.5394 5.14055 38.7843 4.89571C39.0291 4.65088 39.1667 4.3188 39.1667 3.97255C39.1667 3.62629 39.0291 3.29422 38.7843 3.04938C38.5394 2.80454 38.2074 2.66699 37.8611 2.66699H12.8728C11.5197 2.71438 10.2379 3.28543 9.2977 4.25969C8.35753 5.23396 7.8325 6.53529 7.83333 7.88921C7.82069 8.10227 7.82069 8.31588 7.83333 8.52894C7.82075 8.633 7.82075 8.7382 7.83333 8.84227V39.2225C7.8325 40.5765 8.35753 41.8778 9.2977 42.8521C10.2379 43.8263 11.5197 44.3974 12.8728 44.4448H37.8611C38.2074 44.4448 38.5394 44.3072 38.7843 44.0624C39.0291 43.8175 39.1667 43.4855 39.1667 43.1392V12.1323V12.0148V11.8973C39.1674 11.5421 39.0329 11.1999 38.7903 10.9404C38.5478 10.6809 38.2155 10.5236 37.8611 10.5003ZM36.5555 41.8337H12.8728C12.2124 41.7873 11.5943 41.4919 11.1435 41.0072C10.6927 40.5224 10.4428 39.8845 10.4444 39.2225V12.5239C11.1868 12.9334 12.0253 13.1363 12.8728 13.1114H36.5555V41.8337Z" fill="#EFF2F6"/>
</svg>
