<svg width="47" height="48" viewBox="0 0 47 48" fill="none" xmlns="http://www.w3.org/2000/svg">
<g clip-path="url(#clip0_91_27696)">
<path d="M23.5 37.0957C24.7675 37.0957 25.7949 36.0682 25.7949 34.8008C25.7949 33.5333 24.7675 32.5059 23.5 32.5059C22.2325 32.5059 21.2051 33.5333 21.2051 34.8008C21.2051 36.0682 22.2325 37.0957 23.5 37.0957Z" fill="#EFF2F6"/>
<path d="M23.5 0.0556641C10.5122 0.0556641 0 10.5661 0 23.5557C0 36.5435 10.5105 47.0557 23.5 47.0557C36.4878 47.0557 47 36.5452 47 23.5557C47 10.5679 36.4895 0.0556641 23.5 0.0556641ZM23.5 43.3838C12.5416 43.3838 3.67188 34.5156 3.67188 23.5557C3.67188 12.5972 12.5401 3.72754 23.5 3.72754C34.4584 3.72754 43.3281 12.5958 43.3281 23.5557C43.3281 34.5141 34.4599 43.3838 23.5 43.3838Z" fill="#EFF2F6"/>
<path d="M23.5 11.8516C19.4507 11.8516 16.1562 15.146 16.1562 19.1953C16.1562 20.2093 16.9782 21.0312 17.9922 21.0312C19.0062 21.0312 19.8281 20.2093 19.8281 19.1953C19.8281 17.1706 21.4753 15.5234 23.5 15.5234C25.5247 15.5234 27.1719 17.1706 27.1719 19.1953C27.1719 21.22 25.5247 22.8672 23.5 22.8672C22.486 22.8672 21.6641 23.6891 21.6641 24.7031V29.293C21.6641 30.307 22.486 31.1289 23.5 31.1289C24.514 31.1289 25.3359 30.307 25.3359 29.293V26.3067C28.4998 25.4895 30.8438 22.611 30.8438 19.1953C30.8438 15.146 27.5493 11.8516 23.5 11.8516Z" fill="#EFF2F6"/>
</g>
<defs>
<clipPath id="clip0_91_27696">
<rect width="47" height="47" fill="white" transform="translate(0 0.0556641)"/>
</clipPath>
</defs>
</svg>
