<svg width="41" height="41" viewBox="0 0 41 41" fill="none" xmlns="http://www.w3.org/2000/svg">
<path d="M33.8701 16.2503C33.7219 15.9849 33.5056 15.7639 33.2435 15.61C32.9813 15.4561 32.6829 15.3749 32.3789 15.3748H22.1635L23.9131 2.00709C23.964 1.61927 23.8804 1.22571 23.6761 0.892164C23.4717 0.558616 23.1592 0.305284 22.7905 0.174497C22.4219 0.0437095 22.0195 0.0433887 21.6507 0.173588C21.2818 0.303787 20.9688 0.55662 20.764 0.889843L7.1554 23.0217C6.99624 23.2806 6.90901 23.5772 6.90271 23.881C6.89641 24.1849 6.97126 24.4849 7.11955 24.7501C7.26784 25.0153 7.4842 25.2362 7.74631 25.39C8.00842 25.5437 8.3068 25.6248 8.61068 25.6248H18.6582L17.0859 39.0139C17.0405 39.4004 17.1284 39.7909 17.3352 40.1206C17.5419 40.4504 17.855 40.6997 18.2227 40.8272C18.5904 40.9548 18.9906 40.953 19.3572 40.8221C19.7237 40.6912 20.0345 40.439 20.2382 40.1074L33.8347 17.9781C33.9936 17.7193 34.0807 17.4227 34.087 17.119C34.0932 16.8153 34.0183 16.5155 33.8701 16.2503ZM21.383 31.7178L22.2756 24.1168C22.3039 23.8772 22.2811 23.6343 22.2088 23.4042C22.1365 23.174 22.0162 22.9618 21.8559 22.7815C21.6956 22.6012 21.499 22.4569 21.2789 22.358C21.0588 22.2592 20.8203 22.2081 20.5791 22.2081H11.6667L19.4883 9.48767L18.5233 16.8615C18.4918 17.1025 18.512 17.3474 18.5827 17.58C18.6534 17.8125 18.7729 18.0273 18.9332 18.21C19.0935 18.3927 19.291 18.539 19.5124 18.6393C19.7338 18.7396 19.974 18.7915 20.2171 18.7915H29.3244L21.383 31.7178Z" fill="white" fill-opacity="0.75"/>
</svg>
