<svg width="38" height="38" viewBox="0 0 38 38" fill="none" xmlns="http://www.w3.org/2000/svg">
<g clip-path="url(#clip0_46_703)">
<path d="M31.3972 1.11267C23.1323 0.61088 14.8675 0.61088 6.60261 1.11267C3.2877 1.31395 0.636834 3.92809 0.362225 7.2378C-0.120717 13.0586 -0.120717 18.8792 0.362076 24.7C0.637131 28.0155 3.29683 30.626 6.61775 30.8263C7.93595 30.9058 9.25415 30.9726 10.5723 31.0268C11.3102 31.0572 12.0091 31.3662 12.5314 31.8884L17.135 36.4919C18.165 37.5219 19.835 37.5219 20.865 36.4919L25.4686 31.8884C25.9908 31.3662 26.6898 31.0573 27.4276 31.0268C28.7458 30.9726 30.064 30.9059 31.3822 30.8263C34.703 30.626 37.3628 28.0156 37.6378 24.7001C38.1207 18.8793 38.1206 13.0586 37.6377 7.23787C37.3629 3.92809 34.7121 1.31395 31.3972 1.11267Z" fill="#9DC6FB"/>
<path d="M19.3876 37.2351C18.5901 37.3536 17.7491 37.1059 17.1351 36.4919L12.5316 31.8883C12.0094 31.3661 11.3105 31.0572 10.5727 31.0266C9.25458 30.9731 7.93645 30.9058 6.61825 30.8263C3.29689 30.626 0.637706 28.0157 0.362429 24.7004C-0.12081 18.8797 -0.12081 13.0588 0.362429 7.23808C0.624644 4.07651 3.05531 1.54959 6.16181 1.1543C4.00034 2.12152 2.41992 4.57808 2.22116 7.23808C1.78691 13.0588 1.78691 18.8797 2.22116 24.7004C2.46891 28.0157 4.86357 30.626 7.8531 30.8263C9.03971 30.9058 11.3732 30.9731 12.5599 31.0266C13.2243 31.0572 13.8536 31.3661 14.3238 31.8883L18.4679 36.4919C18.8425 36.9078 19.1238 37.1555 19.3876 37.2351Z" fill="#80B4FB"/>
<path d="M21.1968 16.0441L30.0558 21.1589C31.2063 21.8231 32.6443 20.9929 32.6443 19.6644V12.4238C32.6443 11.0953 31.2062 10.2651 30.0558 10.9293L21.1968 16.0441Z" fill="#175ED9"/>
<path d="M23.7932 23.3947C19.5138 23.6526 15.2344 23.6526 10.955 23.3947C9.34179 23.2975 8.04497 22.0298 7.90625 20.4195C7.65495 17.5025 7.65495 14.5855 7.90625 11.6686C8.04497 10.0584 9.34179 8.79073 10.955 8.69343C15.2344 8.43552 19.5138 8.43552 23.7932 8.69343C25.4064 8.79066 26.7033 10.0583 26.842 11.6686C27.0933 14.5856 27.0933 17.5026 26.842 20.4195C26.7033 22.0298 25.4064 23.2975 23.7932 23.3947Z" fill="#175ED9"/>
<path d="M26.8424 20.4219C26.7025 22.0306 25.4057 23.2975 23.7933 23.3954C19.5139 23.6531 15.2345 23.6531 10.9551 23.3954C9.34257 23.2975 8.0459 22.0306 7.90674 20.4219C8.48861 20.6849 9.20883 20.85 9.99481 20.8776C14.9141 21.0466 19.8342 21.0466 24.7536 20.8776C25.5396 20.8501 26.2606 20.6849 26.8424 20.4219Z" fill="#073F9E"/>
<path d="M20.5477 14.9335L17.131 12.9608C16.2763 12.4673 15.208 13.0841 15.208 14.071V18.0163C15.208 19.0032 16.2764 19.62 17.131 19.1265L20.5477 17.1539C21.4024 16.6605 21.4024 15.4269 20.5477 14.9335Z" fill="#F8A92A"/>
</g>
<defs>
<clipPath id="clip0_46_703">
<rect width="38" height="38" fill="white"/>
</clipPath>
</defs>
</svg>
