<svg width="38" height="38" viewBox="0 0 38 38" fill="none" xmlns="http://www.w3.org/2000/svg">
<g clip-path="url(#clip0_46_716)">
<path d="M20.051 37.795L13.3872 33.9476L12.415 32.771L10.13 32.0671L3.51593 28.2484C2.78539 27.8267 2.53505 26.8925 2.95684 26.1619L17.6203 0.763972C18.0421 0.0334371 18.9763 -0.216903 19.7068 0.204882L22.9279 2.06458L23.6258 3.07633L24.6959 3.08539L36.2419 9.75149C36.9724 10.1733 37.2227 11.1075 36.801 11.838L22.1376 37.236C21.7158 37.9666 20.7816 38.2168 20.051 37.795Z" fill="#BBEB6D"/>
<path d="M24.6966 27.5091V3.08519L19.7076 0.204987C18.9767 -0.217095 18.0424 0.0336905 17.6211 0.763929L2.95707 26.1619C2.5358 26.8929 2.78577 27.8264 3.51601 28.2485L13.3876 33.9477H19.2398C20.1012 31.2269 22.1454 28.9061 24.6966 27.5091Z" fill="#A0E05C"/>
<path d="M19.2393 33.9483H21.6377C23.3236 33.9483 24.696 32.5767 24.696 30.89V27.5098C22.1448 28.9068 20.1006 31.2275 19.2393 33.9483Z" fill="#A0E05C"/>
<path d="M5.12503 26.5315L19.0246 2.45677C19.0879 2.34708 19.2282 2.30945 19.3379 2.37283L22.5183 4.20908L23.396 5.26773L24.6967 5.46679L34.5497 11.1554C34.6594 11.2187 34.697 11.3591 34.6337 11.4688L24.6997 28.677L22.4961 31.0729L21.6512 33.9552L20.7342 35.5434C20.6709 35.6531 20.5305 35.6907 20.4208 35.6274L17.5117 33.9478L16.718 32.5552L13.9234 31.8761L5.20897 26.8448C5.09927 26.7814 5.06164 26.6412 5.12503 26.5315Z" fill="#E8F6FF"/>
<path d="M24.6965 5.467V28.6806L21.6557 33.9478H17.5116L5.2087 26.8448C5.09938 26.7814 5.0619 26.6415 5.12461 26.5313L19.0248 2.45683C19.0875 2.34751 19.2282 2.30929 19.3375 2.37274L24.6965 5.467Z" fill="#D8ECFE"/>
<path d="M22.0952 16.2087L24.6963 16.0605L26.9788 17.3784C27.3445 17.5895 27.4698 18.0571 27.2587 18.4229L24.6965 22.8607L22.2016 25.0424L22.0952 16.2087Z" fill="#FC93BB"/>
<path d="M24.6964 16.0603V22.8605L22.2015 27.1819L22.0952 14.5586L24.6964 16.0603Z" fill="#FE75A8"/>
<path d="M26.0867 12.8705L24.6963 12.0756L23.8851 11.259L22.6682 10.9046C22.1203 10.5883 21.9326 9.8877 22.2489 9.33974L22.8217 8.34766L23.9499 9.26233L24.6964 9.42999L27.2322 10.8863C27.7802 11.2026 27.9679 11.9033 27.6516 12.4512C27.3352 12.9991 26.6345 13.1869 26.0867 12.8705Z" fill="#D8ECFE"/>
<path d="M24.6964 9.43036V12.0758L22.6679 10.9052C22.1205 10.5887 21.9324 9.88755 22.249 9.34011L22.8216 8.34766L24.6964 9.43036Z" fill="#C5E1FF"/>
<path d="M21.6377 32.4185H4.58772L3.19278 32.0407C2.34824 32.0407 1.66357 31.356 1.66357 30.5115L1.77869 2.06439C1.77869 1.21986 2.46336 0.535191 3.30789 0.535191L4.58772 0H21.6377C22.4822 0 23.1669 0.684668 23.1669 1.5292V30.8893C23.1669 31.7339 22.4822 32.4185 21.6377 32.4185Z" fill="#9DC6FB"/>
<path d="M4.58774 7.42188e-05V32.4185H2.52334C1.67851 32.4185 0.994141 31.7342 0.994141 30.8893V1.5292C0.994141 0.684297 1.67844 0 2.52334 0H4.58774V7.42188e-05Z" fill="#80B4FB"/>
<path d="M3.47729 29.7918L3.46289 2.78497C3.46289 2.65828 3.56561 2.55556 3.6923 2.55556L4.58805 2.06445H20.8734C21.0001 2.06445 21.1028 2.16717 21.1028 2.29386V30.1248C21.1028 30.2515 21.0001 30.3542 20.8734 30.3542H4.58797L3.70663 30.0213C3.58001 30.0212 3.47729 29.9185 3.47729 29.7918Z" fill="#E8F6FF"/>
<path d="M4.5878 2.06453V30.3542H3.288C3.16109 30.3542 3.05859 30.2517 3.05859 30.1248V2.29386C3.05859 2.16695 3.16102 2.06445 3.288 2.06445L4.5878 2.06453Z" fill="#D8ECFE"/>
<path d="M14.3741 7.79966H9.78655C9.15317 7.79966 8.63965 7.28622 8.63965 6.65276C8.63965 6.01938 9.15309 5.50586 9.78655 5.50586H14.3741C15.0075 5.50586 15.521 6.0193 15.521 6.65276C15.521 7.28622 15.0075 7.79966 14.3741 7.79966Z" fill="#D8ECFE"/>
<path d="M17.4327 23.4736H6.72847C6.30616 23.4736 5.96387 23.1313 5.96387 22.709V12.0048C5.96387 11.5825 6.30616 11.2402 6.72847 11.2402H17.4327C17.855 11.2402 18.1973 11.5825 18.1973 12.0048V22.709C18.1973 23.1313 17.855 23.4736 17.4327 23.4736Z" fill="#9DC6FB"/>
<path d="M15.9087 17.4533L15.0581 18.5456C15.0408 18.5678 15.0298 18.5943 15.0264 18.6223L14.8553 19.9965C14.8465 20.0675 14.7906 20.1234 14.7196 20.1322L13.3454 20.3032C13.3175 20.3067 13.291 20.3177 13.2687 20.335L12.1764 21.1856C12.12 21.2295 12.0409 21.2295 11.9845 21.1856L10.8922 20.335C10.87 20.3177 10.8435 20.3067 10.8155 20.3032L9.44125 20.1321C9.3703 20.1233 9.31441 20.0674 9.30558 19.9965L9.13458 18.6222C9.13109 18.5943 9.12011 18.5678 9.10281 18.5456L8.25219 17.4532C8.20825 17.3968 8.20825 17.3178 8.25219 17.2614L9.10281 16.169C9.12011 16.1468 9.13109 16.1203 9.13458 16.0923L9.30565 14.7181C9.31448 14.6472 9.37037 14.5913 9.44132 14.5824L10.8156 14.4114C10.8435 14.4079 10.87 14.397 10.8922 14.3797L11.9846 13.529C12.041 13.4851 12.12 13.4851 12.1764 13.529L13.2688 14.3797C13.291 14.397 13.3175 14.4079 13.3455 14.4114L14.7197 14.5825C14.7906 14.5913 14.8465 14.6472 14.8554 14.7182L15.0264 16.0924C15.0298 16.1203 15.0408 16.1468 15.0581 16.1691L15.9087 17.2614C15.9527 17.3179 15.9527 17.397 15.9087 17.4533Z" fill="#FEDF30"/>
<path d="M12.0809 18.6188C12.7777 18.6188 13.3425 18.054 13.3425 17.3573C13.3425 16.6605 12.7777 16.0957 12.0809 16.0957C11.3842 16.0957 10.8193 16.6605 10.8193 17.3573C10.8193 18.054 11.3842 18.6188 12.0809 18.6188Z" fill="#FED400"/>
<path d="M18.1974 27.4869H12.2482C11.9315 27.4869 11.6748 27.2302 11.6748 26.9135C11.6748 26.5968 11.9315 26.3401 12.2482 26.3401H18.1974C18.5141 26.3401 18.7708 26.5968 18.7708 26.9135C18.7708 27.2302 18.5141 27.4869 18.1974 27.4869Z" fill="#D8ECFE"/>
<path d="M9.95456 27.4869H5.96404C5.64735 27.4869 5.39062 27.2302 5.39062 26.9135C5.39062 26.5968 5.64735 26.3401 5.96404 26.3401H9.95456C10.2713 26.3401 10.528 26.5968 10.528 26.9135C10.528 27.2302 10.2713 27.4869 9.95456 27.4869Z" fill="#D8ECFE"/>
</g>
<defs>
<clipPath id="clip0_46_716">
<rect width="38" height="38" fill="white"/>
</clipPath>
</defs>
</svg>
