<svg width="38" height="38" viewBox="0 0 38 38" fill="none" xmlns="http://www.w3.org/2000/svg">
<path d="M11.6212 27.6604C10.5906 28.1099 9.39064 27.6388 8.94117 26.6082L8.5959 25.8166C7.79256 23.9747 8.23387 21.8211 9.69405 20.4577C10.7923 19.4322 11.0691 17.783 10.3668 16.4473C9.59778 14.9847 7.84533 14.3043 6.29037 14.8647C4.64524 15.4564 3.72426 17.2326 4.19228 18.9064C4.23414 19.056 4.28721 19.2049 4.35 19.349C4.79947 20.3796 4.3284 21.5796 3.29772 22.029C2.26712 22.4785 1.06715 22.0074 0.617685 20.9767C0.479861 20.6608 0.363189 20.3331 0.270861 20.0028C-0.768425 16.2855 1.26903 12.3454 4.9099 11.034C8.36612 9.7885 12.2615 11.3011 13.9708 14.5524C15.5244 17.5075 14.9084 21.1597 12.4728 23.4339C12.2713 23.622 12.2132 23.9253 12.3281 24.1888L12.6733 24.9803C13.123 26.011 12.6519 27.211 11.6212 27.6604Z" fill="#F8A92A"/>
<path d="M14.0431 33.2132C13.0125 33.6627 11.8125 33.1916 11.3631 32.1609L11.3563 32.1455C10.9068 31.1149 11.3779 29.9149 12.4086 29.4654C13.4392 29.016 14.6391 29.487 15.0886 30.5177L15.0954 30.5331C15.5448 31.5638 15.0737 32.7637 14.0431 33.2132Z" fill="#FFD15B"/>
<path d="M1.92057 19.2845C2.01253 19.6149 2.12972 19.9422 2.26754 20.2581C2.58787 20.9926 3.28924 21.4434 4.03885 21.4781C3.84365 21.7097 3.59405 21.9006 3.2977 22.0299C2.26769 22.4792 1.06735 22.0086 0.617733 20.9777C0.479908 20.6617 0.363682 20.3341 0.27165 20.0037C-0.768451 16.2859 1.26974 12.346 4.91017 11.0346C5.04058 10.9877 5.17172 10.9449 5.30353 10.9062C2.46778 12.5824 1.0079 16.0193 1.92057 19.2845Z" fill="#FFC344"/>
<path d="M11.3435 19.7394C9.88349 21.1028 9.44174 23.257 10.2451 25.0988L10.5902 25.8902C10.9105 26.6248 11.6129 27.0751 12.3625 27.1098C12.1673 27.3414 11.9177 27.5323 11.6213 27.6616C10.5904 28.1112 9.39097 27.6403 8.94136 26.6094L8.59624 25.818C7.79297 23.9761 8.23375 21.8225 9.69468 20.4586C10.7927 19.4328 11.069 17.7846 10.3667 16.4489C9.70662 15.1925 8.32089 14.5132 6.95801 14.7027C7.24494 14.4678 7.57499 14.2783 7.94029 14.1468C9.49525 13.5862 11.2476 14.2664 12.0165 15.7294C12.7188 17.065 12.4416 18.7137 11.3435 19.7394Z" fill="#FFC344"/>
<path d="M14.7843 32.6612C14.5891 32.8928 14.3395 33.0838 14.0431 33.213C13.0122 33.6627 11.8128 33.1917 11.3632 32.1608L11.3563 32.145C10.907 31.115 11.3776 29.9146 12.4085 29.465C12.7049 29.3357 13.0146 29.2827 13.3171 29.2973C12.833 29.8712 12.6852 30.6923 13.0051 31.4259L13.012 31.4417C13.3324 32.1761 14.0347 32.6265 14.7843 32.6612Z" fill="#FFC344"/>
<path d="M27.8605 27.4609C26.7744 27.1699 26.1298 26.0535 26.4209 24.9675L26.6444 24.1333C27.1645 22.1923 28.8521 20.7835 30.8438 20.6277C32.3419 20.5106 33.5863 19.3936 33.8698 17.9113C34.1804 16.2883 33.2342 14.6639 31.6691 14.1327C30.0139 13.5698 28.1865 14.3845 27.509 15.9851C27.4484 16.1281 27.3971 16.2776 27.3565 16.4294C27.0654 17.5155 25.949 18.16 24.863 17.869C23.777 17.578 23.1324 16.4616 23.4234 15.3756C23.5126 15.0426 23.6256 14.7137 23.7594 14.3978C25.2641 10.8433 29.3134 9.0327 32.9778 10.277C36.4566 11.4577 38.5595 15.0688 37.8692 18.6766C37.2418 21.9557 34.4835 24.4274 31.1613 24.6873C30.8865 24.7087 30.6519 24.9097 30.5776 25.1873L30.354 26.0214C30.0629 27.1074 28.9465 27.7519 27.8605 27.4609Z" fill="#6FD7A3"/>
<path d="M26.2927 33.3122C25.2067 33.0212 24.5621 31.9048 24.8531 30.8188L24.8575 30.8025C25.1485 29.7164 26.2649 29.0718 27.3509 29.3628C28.4369 29.6539 29.0815 30.7702 28.7905 31.8563L28.7861 31.8726C28.4951 32.9587 27.3788 33.6033 26.2927 33.3122Z" fill="#6FD7A3"/>
<path d="M25.4976 14.8637C25.3635 15.1794 25.2512 15.5082 25.1619 15.8413C24.9546 16.6153 25.222 17.4049 25.7864 17.8994C25.4894 17.9588 25.1752 17.9526 24.8629 17.8688C23.7775 17.578 23.1323 16.4618 23.4234 15.3754C23.5126 15.0424 23.6259 14.7137 23.76 14.3981C25.2644 10.8427 29.3141 9.03266 32.9782 10.2766C33.1094 10.3212 33.2387 10.3696 33.3658 10.4215C30.1035 9.96433 26.8195 11.7416 25.4976 14.8637Z" fill="#3EC3A4"/>
<path d="M32.582 21.0924C30.5905 21.2483 28.9021 22.6573 28.3821 24.5982L28.1586 25.4321C27.9512 26.2061 28.2196 26.996 28.7841 27.4905C28.487 27.5499 28.1729 27.5436 27.8605 27.4599C26.7741 27.1688 26.1299 26.0529 26.421 24.9665L26.6445 24.1325C27.1646 22.1916 28.8518 20.7824 30.8444 20.6267C32.3424 20.5091 33.5859 19.3926 33.8694 17.9105C34.1366 16.5166 33.4765 15.1216 32.2927 14.4202C32.6635 14.4154 33.0397 14.473 33.4074 14.5978C34.9727 15.1288 35.9187 16.753 35.6079 18.3764C35.3245 19.8586 34.08 20.9748 32.582 21.0924Z" fill="#3EC3A4"/>
<path d="M27.2162 33.343C26.9192 33.4024 26.605 33.3962 26.2927 33.3124C25.2063 33.0214 24.562 31.9054 24.8531 30.8191L24.8576 30.8024C25.1484 29.717 26.2646 29.0717 27.351 29.3628C27.6633 29.4465 27.9386 29.5982 28.166 29.7981C27.4297 29.9451 26.8023 30.495 26.5951 31.268L26.5907 31.2847C26.3834 32.0587 26.6517 32.8486 27.2162 33.343Z" fill="#3EC3A4"/>
<path d="M19.9133 24.7563C18.6509 24.7563 17.6275 23.7329 17.6275 22.4705V21.5009C17.6275 19.2447 19.0483 17.2265 21.1629 16.4789C22.7535 15.9165 23.7785 14.3435 23.6552 12.6537C23.5203 10.8033 22.0222 9.31657 20.1705 9.1953C18.2119 9.06593 16.4669 10.4804 16.1972 12.4131C16.1731 12.5858 16.1609 12.7628 16.1609 12.9393C16.1609 14.2016 15.1375 15.2251 13.8751 15.2251C12.6128 15.2251 11.5894 14.2016 11.5894 12.9393C11.5894 12.5523 11.6164 12.1626 11.6696 11.7812C12.2685 7.48916 16.1338 4.34889 20.4693 4.63337C24.5851 4.90293 27.915 8.20796 28.2149 12.3212C28.4873 16.0597 26.2142 19.5418 22.6869 20.789C22.3952 20.8922 22.1991 21.1782 22.1991 21.5009V22.4705C22.1991 23.7329 21.1757 24.7563 19.9133 24.7563Z" fill="#175ED9"/>
<path d="M19.9132 31.5578C18.6508 31.5578 17.6274 30.5344 17.6274 29.272V29.2531C17.6274 27.9907 18.6508 26.9673 19.9132 26.9673C21.1756 26.9673 22.199 27.9907 22.199 29.2531V29.272C22.199 30.5344 21.1756 31.5578 19.9132 31.5578Z" fill="#0573CE"/>
<path d="M13.6901 11.7815C13.6365 12.1628 13.6102 12.5522 13.6102 12.9392C13.6102 13.8389 14.1296 14.6175 14.8855 14.9897C14.5807 15.1405 14.2381 15.2249 13.8751 15.2249C12.6134 15.2249 11.5894 14.202 11.5894 12.9392C11.5894 12.5522 11.6167 12.1628 11.6704 11.7815C12.2687 7.4886 16.1346 4.34878 20.4697 4.63311C20.625 4.64335 20.7791 4.65819 20.9321 4.67764C17.2614 5.12978 14.2165 8.01155 13.6901 11.7815Z" fill="#0067C5"/>
<path d="M23.1835 16.4785C21.069 17.2264 19.6476 19.245 19.6476 21.501V22.4703C19.6476 23.37 20.1682 24.1487 20.9241 24.5209C20.6192 24.6716 20.2767 24.7561 19.9136 24.7561C18.6509 24.7561 17.6279 23.733 17.6279 22.4703V21.501C17.6279 19.2449 19.0483 17.2264 21.1639 16.4785C22.7543 15.9157 23.7784 14.3435 23.6551 12.6537C23.5398 11.0644 22.4186 9.74347 20.9309 9.32673C21.3317 9.2137 21.7563 9.16687 22.1913 9.19544C24.0432 9.31649 25.5412 10.803 25.6759 12.6537C25.7992 14.3435 24.7739 15.9156 23.1835 16.4785Z" fill="#0067C5"/>
<path d="M20.9241 31.3222C20.6192 31.473 20.2767 31.5574 19.9136 31.5574C18.6509 31.5574 17.6279 30.5345 17.6279 29.2717V29.2523C17.6279 27.9906 18.6509 26.9666 19.9136 26.9666C20.2767 26.9666 20.6192 27.051 20.9241 27.2018C20.1682 27.5751 19.6476 28.3538 19.6476 29.2523V29.2717C19.6476 30.1714 20.1682 30.95 20.9241 31.3222Z" fill="#0067C5"/>
</svg>
