<svg width="44" height="44" viewBox="0 0 44 44" fill="none" xmlns="http://www.w3.org/2000/svg">
<path d="M10.5273 13.0051C10.6869 13.005 10.8398 12.9416 10.9526 12.8288C11.0654 12.716 11.1288 12.563 11.1289 12.4035V10.1406C11.1289 9.98108 11.0655 9.82807 10.9527 9.71526C10.8399 9.60244 10.6869 9.53906 10.5273 9.53906C10.3678 9.53906 10.2148 9.60244 10.102 9.71526C9.98916 9.82807 9.92578 9.98108 9.92578 10.1406V12.4035C9.92578 12.4825 9.94134 12.5608 9.97157 12.6337C10.0018 12.7067 10.0461 12.773 10.102 12.8289C10.1578 12.8848 10.2242 12.9291 10.2971 12.9593C10.3701 12.9895 10.4483 13.0051 10.5273 13.0051Z" fill="#0E2D45"/>
<path d="M20.7502 27.7535C20.7172 27.6237 20.6417 27.5087 20.5359 27.4267C20.43 27.3447 20.2998 27.3004 20.1659 27.3008H5.00822C4.87429 27.3003 4.74405 27.3446 4.63817 27.4266C4.5323 27.5087 4.45686 27.6237 4.42384 27.7535C4.25133 28.4289 4.16414 29.1233 4.16431 29.8205C4.16322 31.015 4.41627 32.1962 4.90665 33.2854C5.39703 34.3747 6.11353 35.3472 7.00856 36.1383C7.90359 36.9294 8.95668 37.5211 10.0979 37.874C11.2391 38.227 12.4424 38.3331 13.6278 38.1853C14.8132 38.0376 15.9536 37.6394 16.9732 37.0171C17.9929 36.3949 18.8686 35.5628 19.542 34.5762C20.2155 33.5896 20.6714 32.471 20.8794 31.2947C21.0874 30.1184 21.0428 28.9113 20.7485 27.7535H20.7502ZM12.5879 37.0392C10.674 37.037 8.83919 36.2758 7.48589 34.9225C6.13258 33.5692 5.37134 31.7343 5.36915 29.8205C5.36908 29.3788 5.40993 28.9381 5.49119 28.5039H19.685C19.8788 29.5457 19.8407 30.6173 19.5736 31.6427C19.3064 32.6681 18.8167 33.6221 18.1392 34.4369C17.4618 35.2517 16.6132 35.9072 15.6537 36.357C14.6943 36.8068 13.6475 37.0397 12.5879 37.0392Z" fill="#0E2D45"/>
<path d="M41.7656 39.1016H39.5099V37.6407C39.5099 37.4811 39.4466 37.3281 39.3337 37.2153C39.2209 37.1025 39.0679 37.0391 38.9084 37.0391H38.4794V10.9801H40.9496C41.1091 10.9801 41.2621 10.9167 41.3749 10.8039C41.4877 10.6911 41.5511 10.5381 41.5511 10.3785V8.31603C41.551 8.15652 41.4876 8.00356 41.3748 7.89076C41.262 7.77797 41.1091 7.71456 40.9496 7.71447H38.4794V5.2216C38.4793 5.06208 38.4159 4.90912 38.3031 4.79633C38.1903 4.68353 38.0373 4.62012 37.8778 4.62003H35.8153C35.6558 4.62012 35.5028 4.68353 35.39 4.79633C35.2772 4.90912 35.2138 5.06208 35.2138 5.2216V7.71447H32.615V4.88953C33.04 4.86818 33.4398 4.68141 33.7289 4.36915C34.018 4.05689 34.1734 3.64393 34.162 3.21854C34.1506 2.79316 33.9732 2.38912 33.6678 2.0928C33.3624 1.79648 32.9532 1.6314 32.5277 1.63285H25.3089C24.8823 1.6301 24.4716 1.79479 24.1651 2.09154C23.8586 2.38829 23.6807 2.79341 23.6696 3.2199C23.6586 3.64638 23.8152 4.0602 24.1059 4.37245C24.3966 4.6847 24.7982 4.87048 25.2244 4.88988V7.71447H24.2777C24.1182 7.71456 23.9652 7.77797 23.8524 7.89076C23.7396 8.00356 23.6762 8.15652 23.6761 8.31603V10.3785C23.6761 10.5381 23.7395 10.6911 23.8523 10.8039C23.9651 10.9167 24.1181 10.9801 24.2777 10.9801H25.2244V26.51C25.224 27.2408 25.4404 27.9552 25.8462 28.5629C26.252 29.1706 26.8289 29.6443 27.504 29.924C28.1791 30.2037 28.922 30.2768 29.6387 30.1342C30.3554 29.9915 31.0136 29.6394 31.5301 29.1225C31.8753 28.7809 32.1491 28.3739 32.3353 27.9254C32.5216 27.4769 32.6167 26.9957 32.615 26.51V10.9801H35.2138V37.0391H34.7834C34.6239 37.0392 34.4709 37.1026 34.3581 37.2154C34.2453 37.3282 34.1819 37.4811 34.1818 37.6407V39.1016H17.4567C19.1626 38.2078 20.5893 36.8611 21.58 35.2095C22.5706 33.5579 23.087 31.6653 23.0723 29.7394C23.0576 27.8135 22.5125 25.9289 21.4968 24.2926C20.4811 22.6563 19.0341 21.3315 17.3147 20.4638V18.4879C17.3147 18.4838 17.3147 18.4804 17.3147 18.4763C17.3147 18.4721 17.3147 18.4687 17.3147 18.4646V16.1676C17.3147 16.1635 17.3147 16.1601 17.3147 16.1559C17.3147 16.1518 17.3147 16.1484 17.3147 16.1443V13.8473C17.3147 13.8432 17.3147 13.8398 17.3147 13.8356C17.3147 13.8315 17.3147 13.8281 17.3147 13.8239V11.527C17.3147 11.5229 17.3147 11.5194 17.3147 11.5153C17.3147 11.5112 17.3147 11.5078 17.3147 11.5036V9.20669C17.3147 9.20257 17.3147 9.19913 17.3147 9.195C17.3147 9.19088 17.3147 9.18744 17.3147 9.18331V7.21878C17.7409 7.19939 18.1425 7.01361 18.4332 6.70135C18.7239 6.3891 18.8805 5.97529 18.8694 5.5488C18.8584 5.12232 18.6805 4.71719 18.3739 4.42045C18.0674 4.1237 17.6567 3.95901 17.2301 3.96175H7.94888C7.52442 3.96207 7.11683 4.12797 6.81281 4.42417C6.50879 4.72037 6.33232 5.12349 6.32095 5.5478C6.30957 5.9721 6.46419 6.3841 6.7519 6.69617C7.03962 7.00823 7.43773 7.19573 7.86156 7.21878V20.4638C6.14219 21.3316 4.6952 22.6563 3.67952 24.2927C2.66384 25.929 2.11875 27.8136 2.10412 29.7395C2.08948 31.6654 2.60587 33.558 3.59657 35.2096C4.58726 36.8612 6.01395 38.2078 7.71994 39.1016H2.23438C2.07486 39.1017 1.9219 39.1651 1.80911 39.2779C1.69631 39.3907 1.6329 39.5436 1.63281 39.7032V41.7657C1.6329 41.9252 1.69631 42.0781 1.80911 42.1909C1.9219 42.3037 2.07486 42.3671 2.23438 42.3672H41.7656C41.9251 42.3671 42.0781 42.3037 42.1909 42.1909C42.3037 42.0781 42.3671 41.9252 42.3672 41.7657V39.7032C42.3671 39.5436 42.3037 39.3907 42.1909 39.2779C42.0781 39.1651 41.9251 39.1017 41.7656 39.1016ZM36.4169 5.82316H37.2763V7.71378H36.4169V5.82316ZM24.8792 3.26566C24.8794 3.15175 24.9248 3.04257 25.0053 2.96202C25.0858 2.88148 25.195 2.83615 25.3089 2.83597H32.5277C32.6416 2.83597 32.7509 2.88124 32.8315 2.96182C32.9121 3.04241 32.9574 3.1517 32.9574 3.26566C32.9574 3.37962 32.9121 3.48891 32.8315 3.56949C32.7509 3.65008 32.6416 3.69535 32.5277 3.69535H25.3089C25.195 3.69516 25.0858 3.64984 25.0053 3.56929C24.9248 3.48875 24.8794 3.37956 24.8792 3.26566ZM26.4261 4.89847H31.4105V7.71447H26.4275L26.4261 4.89847ZM24.8792 8.9176H40.348V9.77697H24.8792V8.9176ZM31.4105 12.0973H29.9496C29.79 12.0973 29.637 12.1607 29.5242 12.2735C29.4114 12.3863 29.348 12.5393 29.348 12.6988C29.348 12.8584 29.4114 13.0114 29.5242 13.1242C29.637 13.237 29.79 13.3004 29.9496 13.3004H31.4119V14.4176H29.9496C29.79 14.4176 29.637 14.481 29.5242 14.5938C29.4114 14.7066 29.348 14.8596 29.348 15.0192C29.348 15.1787 29.4114 15.3317 29.5242 15.4445C29.637 15.5573 29.79 15.6207 29.9496 15.6207H31.4119V16.7379H29.9496C29.79 16.7379 29.637 16.8013 29.5242 16.9141C29.4114 17.0269 29.348 17.1799 29.348 17.3395C29.348 17.499 29.4114 17.652 29.5242 17.7648C29.637 17.8777 29.79 17.941 29.9496 17.941H31.4119V19.0582H29.9496C29.79 19.0582 29.637 19.1216 29.5242 19.2344C29.4114 19.3472 29.348 19.5002 29.348 19.6598C29.348 19.8193 29.4114 19.9723 29.5242 20.0852C29.637 20.198 29.79 20.2613 29.9496 20.2613H31.4119V21.3785H29.9496C29.79 21.3785 29.637 21.4419 29.5242 21.5547C29.4114 21.6675 29.348 21.8206 29.348 21.9801C29.348 22.1396 29.4114 22.2927 29.5242 22.4055C29.637 22.5183 29.79 22.5817 29.9496 22.5817H31.4119V26.51C31.4106 27.1706 31.1476 27.8038 30.6805 28.2709C30.2134 28.738 29.5803 29.0009 28.9197 29.0022C28.2589 29.0015 27.6255 28.7387 27.1582 28.2715C26.691 27.8043 26.4282 27.1708 26.4275 26.51V10.9801H31.4119L31.4105 12.0973ZM36.4155 10.9801H37.2749V37.0391H36.4155V10.9801ZM35.3843 38.2422H38.3061V39.1016H35.3843V38.2422ZM7.51919 5.59456C7.51928 5.48063 7.56458 5.37139 7.64514 5.29083C7.7257 5.21027 7.83494 5.16497 7.94888 5.16488H17.2301C17.3441 5.16488 17.4534 5.21015 17.534 5.29073C17.6145 5.37131 17.6598 5.4806 17.6598 5.59456C17.6598 5.70853 17.6145 5.81782 17.534 5.8984C17.4534 5.97898 17.3441 6.02425 17.2301 6.02425H7.94888C7.83492 6.02425 7.72562 5.97898 7.64504 5.8984C7.56446 5.81782 7.51919 5.70853 7.51919 5.59456ZM3.30687 29.8203C3.31033 28.0455 3.82124 26.3087 4.77935 24.8146C5.73746 23.3206 7.10282 22.1317 8.71441 21.3882C8.81895 21.3401 8.90752 21.2631 8.9696 21.1662C9.03169 21.0693 9.06469 20.9567 9.06469 20.8416V7.22738H16.1116V8.59378H14.652C14.4925 8.59378 14.3394 8.65716 14.2266 8.76998C14.1138 8.88279 14.0504 9.0358 14.0504 9.19535C14.0504 9.35489 14.1138 9.5079 14.2266 9.62071C14.3394 9.73353 14.4925 9.79691 14.652 9.79691H16.1116V10.9141H14.652C14.4925 10.9141 14.3394 10.9775 14.2266 11.0903C14.1138 11.2031 14.0504 11.3561 14.0504 11.5157C14.0504 11.6752 14.1138 11.8282 14.2266 11.941C14.3394 12.0538 14.4925 12.1172 14.652 12.1172H16.1116V13.2344H14.652C14.4925 13.2344 14.3394 13.2978 14.2266 13.4106C14.1138 13.5234 14.0504 13.6764 14.0504 13.836C14.0504 13.9955 14.1138 14.1485 14.2266 14.2613C14.3394 14.3742 14.4925 14.4375 14.652 14.4375H16.1116V15.5547H14.652C14.4925 15.5547 14.3394 15.6181 14.2266 15.7309C14.1138 15.8437 14.0504 15.9967 14.0504 16.1563C14.0504 16.3158 14.1138 16.4688 14.2266 16.5817C14.3394 16.6945 14.4925 16.7578 14.652 16.7578H16.1116V17.875H14.652C14.4925 17.875 14.3394 17.9384 14.2266 18.0512C14.1138 18.164 14.0504 18.3171 14.0504 18.4766C14.0504 18.6361 14.1138 18.7892 14.2266 18.902C14.3394 19.0148 14.4925 19.0782 14.652 19.0782H16.1116V20.8416C16.1116 20.9567 16.1446 21.0694 16.2068 21.1663C16.2689 21.2631 16.3576 21.3401 16.4622 21.3882C17.976 22.0835 19.2748 23.1735 20.2222 24.5437C21.1696 25.914 21.7308 27.5139 21.8468 29.1758C21.9629 30.8376 21.6295 32.5001 20.8816 33.9886C20.1338 35.4772 18.9991 36.7371 17.5966 37.6361C16.1941 38.5351 14.5755 39.04 12.9106 39.0979C11.2457 39.1557 9.59596 38.7645 8.13441 37.9651C6.67285 37.1657 5.45339 35.9876 4.60399 34.5546C3.75458 33.1215 3.30654 31.4862 3.30687 29.8203ZM41.1641 41.1641H2.83594V40.3047H41.1641V41.1641Z" fill="#0E2D45"/>
<path d="M11.0466 30.8652C10.7237 30.8652 10.408 30.961 10.1395 31.1404C9.87098 31.3198 9.66169 31.5748 9.53811 31.8732C9.41453 32.1716 9.38219 32.4999 9.44519 32.8166C9.5082 33.1333 9.66371 33.4243 9.89206 33.6526C10.1204 33.881 10.4114 34.0365 10.7281 34.0995C11.0448 34.1625 11.3731 34.1302 11.6715 34.0066C11.9698 33.883 12.2248 33.6737 12.4043 33.4052C12.5837 33.1367 12.6794 32.821 12.6794 32.498C12.679 32.0651 12.5068 31.6501 12.2007 31.344C11.8946 31.0379 11.4795 30.8657 11.0466 30.8652ZM11.0466 32.9277C10.9616 32.9277 10.8786 32.9025 10.8079 32.8553C10.7372 32.8081 10.6822 32.741 10.6497 32.6625C10.6171 32.584 10.6086 32.4976 10.6252 32.4142C10.6418 32.3309 10.6827 32.2543 10.7428 32.1942C10.8029 32.1341 10.8795 32.0932 10.9628 32.0766C11.0462 32.06 11.1326 32.0685 11.2111 32.1011C11.2896 32.1336 11.3567 32.1887 11.4039 32.2593C11.4511 32.33 11.4763 32.4131 11.4763 32.498C11.4762 32.612 11.4309 32.7212 11.3504 32.8018C11.2698 32.8823 11.1606 32.9276 11.0466 32.9277Z" fill="#0E2D45"/>
<path d="M16.7148 28.8457C16.3919 28.8457 16.0762 28.9415 15.8077 29.1209C15.5392 29.3003 15.3299 29.5553 15.2063 29.8537C15.0827 30.152 15.0504 30.4803 15.1134 30.7971C15.1764 31.1138 15.3319 31.4047 15.5603 31.6331C15.7886 31.8614 16.0796 32.017 16.3963 32.08C16.713 32.143 17.0413 32.1106 17.3397 31.987C17.6381 31.8635 17.8931 31.6542 18.0725 31.3857C18.2519 31.1171 18.3477 30.8015 18.3477 30.4785C18.3473 30.0456 18.1751 29.6305 17.869 29.3243C17.5629 29.0182 17.1478 28.8461 16.7148 28.8457ZM16.7148 30.9082C16.6299 30.9082 16.5468 30.883 16.4761 30.8358C16.4055 30.7886 16.3504 30.7215 16.3179 30.6429C16.2853 30.5644 16.2768 30.478 16.2934 30.3947C16.31 30.3113 16.3509 30.2348 16.411 30.1747C16.4711 30.1146 16.5477 30.0737 16.631 30.0571C16.7144 30.0405 16.8008 30.049 16.8793 30.0815C16.9578 30.1141 17.0249 30.1691 17.0721 30.2398C17.1193 30.3105 17.1445 30.3935 17.1445 30.4785C17.1444 30.5924 17.0991 30.7017 17.0186 30.7822C16.938 30.8628 16.8288 30.9081 16.7148 30.9082Z" fill="#0E2D45"/>
<path d="M10.4451 23.1641C10.4451 23.487 10.5408 23.8027 10.7202 24.0712C10.8997 24.3397 11.1547 24.549 11.453 24.6726C11.7514 24.7962 12.0797 24.8285 12.3964 24.7655C12.7132 24.7025 13.0041 24.547 13.2325 24.3186C13.4608 24.0903 13.6163 23.7993 13.6793 23.4826C13.7423 23.1659 13.71 22.8376 13.5864 22.5392C13.4628 22.2409 13.2535 21.9858 12.985 21.8064C12.7165 21.627 12.4008 21.5312 12.0779 21.5312C11.645 21.5318 11.23 21.704 10.9239 22.0101C10.6178 22.3162 10.4456 22.7312 10.4451 23.1641ZM12.0779 22.7344C12.1629 22.7344 12.2459 22.7596 12.3166 22.8068C12.3873 22.854 12.4423 22.9211 12.4749 22.9996C12.5074 23.0781 12.5159 23.1645 12.4993 23.2479C12.4827 23.3312 12.4418 23.4078 12.3817 23.4679C12.3216 23.528 12.2451 23.5689 12.1617 23.5855C12.0784 23.6021 11.992 23.5936 11.9134 23.561C11.8349 23.5285 11.7678 23.4734 11.7206 23.4028C11.6734 23.3321 11.6482 23.249 11.6482 23.1641C11.6483 23.0501 11.6936 22.9409 11.7741 22.8603C11.8547 22.7798 11.9639 22.7345 12.0779 22.7344Z" fill="#0E2D45"/>
</svg>
