<svg width="60" height="60" viewBox="0 0 60 60" fill="none" xmlns="http://www.w3.org/2000/svg">
<g clip-path="url(#clip0_467_1141)">
<path d="M56.6391 29.9998L58.4231 26.5191L55.8638 23.5623L56.7611 19.7561L53.5648 17.5027L53.5205 13.5924L49.8777 12.1698L48.9021 8.38286L45.0255 7.8685L43.1751 4.42323L39.288 4.85195L36.6636 1.9529L32.9941 3.30527L29.7511 1.12012L26.5082 3.30527L22.8386 1.9529L20.214 4.85195L16.3271 4.42336L14.4767 7.86863L10.5999 8.38298L9.62449 12.1701L5.98167 13.5926L5.93736 17.503L2.74117 19.7562L3.63844 23.5625L1.0791 26.5191L2.86317 29.9998L1.07922 33.4804L3.63844 36.4372L2.74117 40.2435L5.93748 42.4968L5.9818 46.4072L9.62462 47.8297L10.6002 51.6167L14.4768 52.1311L16.3272 55.5763L20.2143 55.1476L22.8387 58.0467L26.5082 56.6943L29.7511 58.8794L32.9941 56.6943L36.6637 58.0467L39.2883 55.1476L43.1752 55.5762L45.0256 52.1309L48.9023 51.6166L49.8778 47.8295L53.5206 46.4069L53.5649 42.4966L56.7611 40.2433L55.8638 36.4371L58.4232 33.4804L56.6391 29.9998Z" fill="#0E9732"/>
<path d="M29.7512 52.9048C42.4011 52.9048 52.6558 42.6501 52.6558 30.0003C52.6558 17.3504 42.4011 7.0957 29.7512 7.0957C17.1014 7.0957 6.84668 17.3504 6.84668 30.0003C6.84668 42.6501 17.1014 52.9048 29.7512 52.9048Z" fill="#ECF4FA"/>
<path d="M29.7512 44.938C38.0011 44.938 44.689 38.2502 44.689 30.0003C44.689 21.7504 38.0011 15.0625 29.7512 15.0625C21.5013 15.0625 14.8135 21.7504 14.8135 30.0003C14.8135 38.2502 21.5013 44.938 29.7512 44.938Z" fill="#0E9732"/>
<path opacity="0.2" d="M17.6094 38.7025C22.1448 45.0259 30.7747 46.8088 37.4446 42.8004C44.1145 38.792 46.5905 30.3349 43.1355 23.3623C37.2043 31.8825 27.9167 37.4641 17.6094 38.7025Z" fill="white"/>
<path d="M25.7675 38.9622C25.2392 38.9629 24.7324 38.7529 24.3593 38.3788L20.3759 34.3954C19.8652 33.8938 19.663 33.1567 19.8462 32.4647C20.0294 31.7727 20.5698 31.2322 21.2619 31.049C21.9539 30.8659 22.6909 31.0681 23.1925 31.5789L25.7675 34.1538L35.3136 24.6079C36.0934 23.842 37.3447 23.8476 38.1176 24.6205C38.8905 25.3933 38.8961 26.6446 38.1303 27.4244L27.1759 38.3788C26.8028 38.7529 26.2959 38.9629 25.7675 38.9622Z" fill="#ECF4FA"/>
<path fill-rule="evenodd" clip-rule="evenodd" d="M54.5549 16.9822L57.3349 18.9421C57.6672 19.1761 57.8239 19.5885 57.7309 19.9842L56.9504 23.2954L59.1761 25.8674C59.4418 26.1744 59.4945 26.612 59.3093 26.9733L57.7582 29.9997L59.3093 33.0266C59.4945 33.3879 59.4418 33.8254 59.1761 34.1325L56.9518 36.7047L57.7323 40.0159C57.8255 40.4115 57.669 40.8241 57.3368 41.0583L54.5568 43.0183L54.5182 46.4194C54.5136 46.8254 54.2629 47.188 53.8847 47.3357L50.7168 48.5727L49.8685 51.8661C49.7672 52.2594 49.4372 52.5518 49.0345 52.605L45.6631 53.0522L44.0539 56.0485C43.8617 56.4065 43.4713 56.6118 43.0674 56.5672L39.6863 56.1938L37.4034 58.7156C37.1304 59.0168 36.7018 59.1221 36.3204 58.9817L33.1289 57.8053L30.3087 59.7059C29.9723 59.9326 29.532 59.9326 29.1956 59.7059L26.3753 57.8053L23.1841 58.9815C22.8027 59.1223 22.374 59.017 22.1011 58.7156L19.8181 56.1939L16.437 56.5667C16.0332 56.6107 15.6431 56.4056 15.4505 56.048L13.8413 53.0517L10.47 52.6045C10.0673 52.5513 9.73725 52.259 9.63591 51.8657L8.78757 48.5723L5.61927 47.3349C5.24101 47.1872 4.99034 46.8246 4.98579 46.4185L4.9472 43.0174L2.16716 41.0575C1.83496 40.8233 1.67838 40.4108 1.77156 40.0152L2.55205 36.704L0.32633 34.132C0.0606455 33.8249 0.00794477 33.3874 0.193135 33.0261L1.74429 29.9997L0.193135 26.9728C0.00794477 26.6115 0.0606455 26.1739 0.32633 25.8669L2.55243 23.2959L1.77193 19.9846C1.67867 19.589 1.8352 19.1764 2.16741 18.9422L4.94682 16.9823L4.98541 13.5812C4.99002 13.1752 5.24068 12.8126 5.6189 12.6649L8.78682 11.4279L9.63504 8.13451C9.73634 7.74117 10.0664 7.44876 10.4691 7.39559L13.8409 6.94833L15.4501 3.95207C15.6421 3.5939 16.0327 3.38853 16.4366 3.43335L19.8176 3.80617L22.1 1.28431C22.3728 0.982876 22.8015 0.877575 23.183 1.01829L26.3744 2.19464L29.1947 0.294063C29.5311 0.0673436 29.9714 0.0673436 30.3078 0.294063L33.1277 2.19464L36.3189 1.01842C36.7003 0.877455 37.1291 0.982735 37.4019 1.28431L39.6849 3.80667L43.066 3.43323C43.4698 3.38926 43.8599 3.59438 44.0525 3.95194L45.6617 6.94822L49.0325 7.39547C49.4352 7.44863 49.7652 7.74097 49.8666 8.13427L50.7149 11.4277L53.8828 12.6646C54.2611 12.8124 54.5117 13.175 54.5163 13.5811L54.5549 16.9822ZM55.753 29.5456L57.2305 26.6627L55.1106 24.2142C54.9013 23.9726 54.8208 23.6452 54.8942 23.3341L55.637 20.1826L52.9905 18.3168C52.7292 18.1326 52.5723 17.834 52.5687 17.5142L52.5329 14.2761L49.5159 13.098C49.2177 12.9815 48.9937 12.7288 48.9139 12.4188L48.1058 9.28187L44.8951 8.85602C44.5777 8.81406 44.2998 8.62203 44.1483 8.33992L42.616 5.4863L39.3973 5.84132C39.0797 5.87599 38.7646 5.75645 38.55 5.51978L36.3769 3.11929L33.3385 4.23962C33.0383 4.3503 32.7031 4.30992 32.4377 4.13107L29.7512 2.32074L27.0648 4.13132C26.7993 4.30998 26.4643 4.35041 26.1639 4.24L23.1254 3.11966L20.9523 5.52028C20.7376 5.75688 20.4226 5.87641 20.1049 5.84183L16.8863 5.4868L15.3552 8.33955C15.2037 8.62164 14.9258 8.81369 14.6083 8.85565L11.3976 9.2815L10.5896 12.4184C10.5098 12.7285 10.2858 12.9812 9.98757 13.0977L6.97052 14.2758L6.93317 17.5141C6.92954 17.8338 6.77261 18.1323 6.51131 18.3166L3.86483 20.1825L4.60774 23.3338C4.68106 23.6449 4.60059 23.9723 4.39139 24.214L2.27197 26.6627L3.74944 29.5451C3.89588 29.8303 3.89588 30.1686 3.74944 30.4538L2.27197 33.3366L4.39189 35.7852C4.60116 36.0268 4.68165 36.3542 4.60824 36.6653L3.86546 39.8168L6.51193 41.6825C6.77327 41.8668 6.9302 42.1654 6.9338 42.4851L6.96952 45.7233L9.98658 46.9014C10.2848 47.0179 10.5087 47.2706 10.5886 47.5805L11.3967 50.7175L14.6073 51.1433C14.9248 51.1853 15.2027 51.3773 15.3542 51.6594L16.8865 54.513L20.1052 54.158C20.4228 54.1233 20.7379 54.2428 20.9525 54.4795L23.1256 56.88L26.1639 55.7597C26.4642 55.649 26.7994 55.6894 27.0648 55.8683L29.7512 57.6786L32.4377 55.868C32.7031 55.6893 33.0382 55.6489 33.3385 55.7593L36.3771 56.8797L38.5502 54.479C38.7648 54.2423 39.0799 54.1227 39.3976 54.1575L42.6161 54.5125L44.1473 51.6603C44.2988 51.3782 44.5767 51.1861 44.8941 51.1442L48.1049 50.7183L48.9129 47.5814C48.9927 47.2714 49.2167 47.0186 49.5149 46.9021L52.5319 45.724L52.5693 42.4858C52.5729 42.166 52.7299 41.8675 52.9912 41.6832L55.6376 39.8174L54.8947 36.666C54.8214 36.3549 54.9019 36.0275 55.1111 35.7858L57.2305 33.3371L55.753 30.4543C55.6066 30.1691 55.6066 29.8308 55.753 29.5456Z" fill="#102B44"/>
<path d="M47.6767 29.9999V30.0418H49.6684V29.9999C49.6683 29.3052 49.6325 28.6109 49.5611 27.9199L47.5801 28.1255C47.6443 28.7482 47.6766 29.3739 47.6767 29.9999Z" fill="#102B44"/>
<path d="M13.362 37.2715L11.542 38.0806C11.8248 38.716 12.1406 39.3362 12.4881 39.9387L14.2134 38.9436C13.9007 38.4014 13.6165 37.8433 13.362 37.2715Z" fill="#102B44"/>
<path d="M16.4043 44.7832C16.9202 45.249 17.4599 45.6878 18.0213 46.0976L19.1953 44.4893C18.6899 44.1202 18.2041 43.7252 17.7396 43.3057L16.4043 44.7832Z" fill="#102B44"/>
<path d="M43.0752 18.0078C43.494 18.4731 43.8885 18.9598 44.2569 19.4659L45.8674 18.2941C45.4583 17.7324 45.0203 17.1922 44.5554 16.6758L43.0752 18.0078Z" fill="#102B44"/>
<path d="M23.5664 48.9374C24.2277 49.1529 24.8998 49.3337 25.58 49.4789L25.9953 47.531C25.3836 47.4005 24.7791 47.2379 24.1844 47.0439L23.5664 48.9374Z" fill="#102B44"/>
<path d="M47.2888 26.2726L49.2374 25.8605C49.0934 25.1799 48.9137 24.5074 48.6992 23.8457L46.8052 24.4602C46.998 25.0554 47.1595 25.6604 47.2888 26.2726Z" fill="#102B44"/>
<path d="M46.133 22.7097L47.952 21.8988C47.6688 21.2634 47.3525 20.6433 47.0044 20.041L45.2803 21.0384C45.5935 21.5802 45.8781 22.1381 46.133 22.7097Z" fill="#102B44"/>
<path d="M27.6382 49.8057C28.3291 49.8783 29.0234 49.9153 29.7182 49.9164L29.7214 47.9247C29.0954 47.9238 28.4699 47.8906 27.8473 47.8252L27.6382 49.8057Z" fill="#102B44"/>
<path d="M15.234 40.5176L13.6221 41.6878C14.0305 42.2503 14.4679 42.7912 14.9325 43.3083L16.4139 41.9769C15.9956 41.5112 15.6018 41.0242 15.234 40.5176Z" fill="#102B44"/>
<path d="M43.0819 15.2016C42.5655 14.7362 42.0254 14.298 41.4636 13.8887L40.2915 15.4989C40.7971 15.8674 41.2833 16.2618 41.7479 16.6808L43.0819 15.2016Z" fill="#102B44"/>
<path d="M39.7171 12.7517C39.1154 12.4036 38.496 12.0872 37.8613 11.8037L37.0493 13.6224C37.6204 13.8775 38.1778 14.1623 38.7193 14.4756L39.7171 12.7517Z" fill="#102B44"/>
<path d="M24.2213 12.9434L23.6076 11.0488C22.9459 11.2635 22.2958 11.5128 21.6602 11.7957L22.4701 13.6153C23.0417 13.3609 23.6262 13.1366 24.2213 12.9434Z" fill="#102B44"/>
<path d="M27.8865 12.1698L27.6821 10.1885C26.9906 10.2601 26.3033 10.3676 25.623 10.5107L26.0338 12.4597C26.6458 12.3307 27.2643 12.234 27.8865 12.1698Z" fill="#102B44"/>
<path d="M31.8424 10.1915C31.1513 10.1196 30.457 10.0834 29.7622 10.083L29.7612 12.0747C30.3872 12.0751 31.0127 12.1077 31.6353 12.1725L31.8424 10.1915Z" fill="#102B44"/>
<path d="M35.9152 11.0549C35.2538 10.8402 34.5816 10.6601 33.9013 10.5156L33.4878 12.4638C34.0997 12.5939 34.7043 12.756 35.2993 12.9493L35.9152 11.0549Z" fill="#102B44"/>
<path d="M44.2349 40.5635L45.8432 41.7386C46.2531 41.1773 46.6335 40.595 46.9829 39.9941L45.2611 38.9932C44.9465 39.5341 44.6039 40.0582 44.2349 40.5635Z" fill="#102B44"/>
<path d="M38.6865 45.5429L39.6809 47.2687C40.2833 46.9214 40.8671 46.543 41.43 46.1349L40.2612 44.5225C39.7543 44.8898 39.2287 45.2303 38.6865 45.5429Z" fill="#102B44"/>
<path d="M19.7661 47.2368C20.3674 47.5857 20.9865 47.9029 21.6209 48.1871L22.4349 46.3697C21.864 46.114 21.307 45.8286 20.766 45.5146L19.7661 47.2368Z" fill="#102B44"/>
<path d="M41.7207 43.3437L43.0512 44.825C43.5683 44.3607 44.061 43.8699 44.5273 43.3545L43.0501 42.0186C42.6302 42.483 42.1865 42.9253 41.7207 43.3437Z" fill="#102B44"/>
<path d="M46.1167 37.3249L47.9341 38.1397C48.2185 37.505 48.4694 36.8559 48.6857 36.1949L46.7928 35.5762C46.5982 36.1705 46.3725 36.7542 46.1167 37.3249Z" fill="#102B44"/>
<path d="M35.2622 47.0619L35.8736 48.9574C36.5357 48.7437 37.1861 48.4952 37.822 48.2131L37.0141 46.3926C36.4423 46.6463 35.8575 46.8697 35.2622 47.0619Z" fill="#102B44"/>
<path d="M12.2179 26.2526L10.27 25.8389C10.1257 26.519 10.017 27.2062 9.94434 27.8976L11.9251 28.1055C11.9903 27.4832 12.0881 26.8647 12.2179 26.2526Z" fill="#102B44"/>
<path d="M11.8257 29.9994V29.9785H9.83398V29.9994C9.83397 30.6868 9.86908 31.3738 9.93917 32.0577L11.9205 31.8539C11.8573 31.2377 11.8257 30.6188 11.8257 29.9994Z" fill="#102B44"/>
<path d="M31.5962 47.8317L31.7984 49.8132C32.49 49.7424 33.1773 49.6356 33.8577 49.4932L33.4496 47.5439C32.8372 47.6719 32.2185 47.768 31.5962 47.8317Z" fill="#102B44"/>
<path d="M13.3777 22.6926L11.5593 21.8799C11.2757 22.5149 11.0256 23.1643 10.8101 23.8255L12.7038 24.4423C12.8977 23.8477 13.1227 23.2637 13.3777 22.6926Z" fill="#102B44"/>
<path d="M12.2098 33.707L10.2607 34.1169C10.404 34.7977 10.5829 35.4704 10.7967 36.1324L12.6919 35.5197C12.4995 34.9244 12.3386 34.3193 12.2098 33.707Z" fill="#102B44"/>
<path d="M47.2803 33.766L49.228 34.1825C49.3731 33.5025 49.4826 32.8155 49.556 32.1241L47.5754 31.9141C47.5093 32.5361 47.4108 33.1542 47.2803 33.766Z" fill="#102B44"/>
<path d="M17.7669 16.6691L16.4349 15.1885C15.9183 15.6535 15.4262 16.145 14.9604 16.6609L16.4391 17.9951C16.8586 17.5305 17.3017 17.0879 17.7669 16.6691Z" fill="#102B44"/>
<path d="M15.2564 19.4517L13.6468 18.2783C13.2375 18.8401 12.8577 19.4227 12.5088 20.0239L14.2319 21.023C14.5458 20.4818 14.8878 19.9573 15.2564 19.4517Z" fill="#102B44"/>
<path d="M20.7992 14.466L19.8034 12.7412C19.2014 13.0892 18.6178 13.4683 18.0552 13.8769L19.2261 15.4882C19.7323 15.1203 20.2574 14.7791 20.7992 14.466Z" fill="#102B44"/>
<path fill-rule="evenodd" clip-rule="evenodd" d="M29.751 14.0664C38.5509 14.0664 45.6846 21.2002 45.6846 30.0001C45.6746 38.7958 38.5468 45.9236 29.751 45.9337C20.9511 45.9337 13.8174 38.7999 13.8174 30.0001C13.8174 21.2002 20.9511 14.0664 29.751 14.0664ZM15.8091 30.0001C15.8091 37.7 22.0511 43.942 29.751 43.942C37.4473 43.9333 43.6842 37.6963 43.6929 30.0001C43.6929 22.3002 37.4509 16.0581 29.751 16.0581C22.0511 16.0581 15.8091 22.3002 15.8091 30.0001Z" fill="#102B44"/>
<path fill-rule="evenodd" clip-rule="evenodd" d="M34.6092 23.9037C35.7768 22.7391 37.6668 22.7391 38.8344 23.9037C39.3947 24.464 39.7095 25.2239 39.7095 26.0163C39.7095 26.8087 39.3947 27.5686 38.8344 28.1289L27.88 39.0832C27.3197 39.6435 26.5598 39.9583 25.7674 39.9583C24.9751 39.9583 24.2152 39.6435 23.6549 39.0832L19.6715 35.0998C18.5047 33.9331 18.5047 32.0414 19.6715 30.8747C20.8382 29.7079 22.7299 29.7079 23.8966 30.8747L25.7674 32.7456L34.6092 23.9037ZM26.4715 37.6747L37.4259 26.7203C37.6848 26.4703 37.7887 26.1001 37.6976 25.7519C37.6064 25.4037 37.3345 25.1318 36.9863 25.0407C36.6382 24.9495 36.2679 25.0533 36.0179 25.3122L26.4718 34.8581C26.0829 35.2469 25.4524 35.2469 25.0635 34.8581L22.4884 32.2832C22.0983 31.9016 21.4738 31.9051 21.0879 32.2909C20.7021 32.6767 20.6985 33.3011 21.08 33.6913L25.0634 37.6747C25.4523 38.0635 26.0826 38.0635 26.4715 37.6747Z" fill="#102B44"/>
<path fill-rule="evenodd" clip-rule="evenodd" d="M5.85059 30.0001C5.85059 16.8213 16.5723 6.09961 29.751 6.09961C42.9298 6.09961 53.6515 16.8213 53.6515 30.0001C53.6515 43.1788 42.9298 53.9005 29.751 53.9005C16.5723 53.9005 5.85059 43.1788 5.85059 30.0001ZM7.84229 30.0001C7.84229 42.0806 17.6705 51.9088 29.751 51.9088C41.8316 51.9088 51.6598 42.0806 51.6598 30.0001C51.6598 17.9195 41.8316 8.09131 29.751 8.09131C17.6705 8.09131 7.84229 17.9195 7.84229 30.0001Z" fill="#102B44"/>
</g>
<defs>
<clipPath id="clip0_467_1141">
<rect width="60" height="60" fill="white"/>
</clipPath>
</defs>
</svg>
