<svg width="58" height="59" viewBox="0 0 58 59" fill="none" xmlns="http://www.w3.org/2000/svg">
<g clip-path="url(#clip0_1_12485)">
<path d="M29.3273 1.92871C30.4314 1.92871 31.4641 2.35647 32.2452 3.1377L32.2462 3.13867L55.6085 26.5V26.501L55.6144 26.5059C57.2181 28.1148 57.2169 30.7314 55.6115 32.3389C54.8294 33.1205 53.7963 33.5487 52.6925 33.5488H50.6827V51.8877C50.6827 54.6572 48.4279 56.913 45.6573 56.9131H36.5167C36.2225 56.9131 35.9845 56.6741 35.9845 56.3799V42.9004C35.9844 40.7154 34.2086 38.9396 32.0236 38.9395H26.632C24.4468 38.9395 22.6711 40.7153 22.671 42.9004V56.3799C22.671 56.6737 22.4326 56.9129 22.1388 56.9131H12.9982C10.2275 56.9131 7.9718 54.6572 7.9718 51.8877V33.5488H5.89563C5.87777 33.5488 5.86029 33.5475 5.84387 33.5459L5.81262 33.543L5.78137 33.542L5.58801 33.5293C4.68862 33.449 3.85182 33.081 3.18469 32.4727L3.04407 32.3389L2.89758 32.1855C1.43989 30.5716 1.48513 28.0689 3.03528 26.5098C3.03981 26.5052 3.04484 26.5022 3.04797 26.499L3.05774 26.4893L26.4083 3.1377C27.1898 2.35623 28.2229 1.92877 29.3273 1.92871Z" fill="white" stroke="#757575" stroke-width="2.29101"/>
</g>
<defs>
<clipPath id="clip0_1_12485">
<rect width="57.2751" height="57.2751" fill="white" transform="translate(0.692993 0.783203)"/>
</clipPath>
</defs>
</svg>
