<svg width="58" height="59" viewBox="0 0 58 59" fill="none" xmlns="http://www.w3.org/2000/svg">
<path d="M56.4233 25.6951C56.422 25.6938 56.4207 25.6924 56.4194 25.6911L33.0557 2.32828C32.0598 1.33198 30.7358 0.783142 29.3274 0.783142C27.919 0.783142 26.595 1.33155 25.5987 2.32785L2.2472 25.6789C2.23933 25.6868 2.23147 25.6951 2.2236 25.7029C0.178559 27.7598 0.182055 31.0969 2.23365 33.1485C3.17096 34.0863 4.40891 34.6294 5.73251 34.6863C5.78625 34.6915 5.84044 34.6941 5.89506 34.6941H6.82625V51.8878C6.82625 55.29 9.59449 58.0583 12.9976 58.0583H22.1383C23.0647 58.0583 23.8163 57.3071 23.8163 56.3803V42.9005C23.8163 41.3479 25.0791 40.0851 26.6317 40.0851H32.0231C33.5757 40.0851 34.8385 41.3479 34.8385 42.9005V56.3803C34.8385 57.3071 35.5897 58.0583 36.5165 58.0583H45.6571C49.0603 58.0583 51.8285 55.29 51.8285 51.8878V34.6941H52.692C54.0999 34.6941 55.4239 34.1457 56.4207 33.1494C58.4745 31.0943 58.4753 27.7515 56.4233 25.6951Z" fill="#145ED7"/>
</svg>
