<svg width="61" height="61" viewBox="0 0 61 61" fill="none" xmlns="http://www.w3.org/2000/svg">
<g clip-path="url(#clip0_1_12501)">
<path d="M10.0327 8.95862H10.0347L10.9956 8.97522C15.9054 9.1347 23.437 10.5176 27.5806 16.8346L27.7876 17.1598C27.8565 17.271 27.9087 17.4314 27.9087 17.6354V48.4821C22.0409 43.7422 14.5744 42.903 10.0483 42.8922C9.49875 42.8906 9.05713 42.4429 9.05713 41.9069V9.94495C9.05713 9.6769 9.1593 9.43117 9.34814 9.2428C9.53438 9.05709 9.77394 8.95862 10.0327 8.95862Z" fill="white" stroke="#757575" stroke-width="2.29101"/>
<path d="M51.3853 8.95862C51.6435 8.95862 51.8836 9.05705 52.0698 9.2428C52.2586 9.43116 52.3608 9.67693 52.3608 9.94495V41.9069C52.3608 42.4429 51.9182 42.8908 51.3687 42.8922C46.8426 42.9031 39.3767 43.7425 33.5093 48.4821V17.6354C33.5093 17.431 33.5616 17.2707 33.6304 17.1598L33.6294 17.1588C37.7251 10.5644 45.4297 9.13752 50.4224 8.97522L51.3833 8.95862H51.3853Z" fill="white" stroke="#757575" stroke-width="2.29101"/>
<path d="M58.3601 16.3295C58.9025 16.3297 59.3455 16.7729 59.3455 17.3148V51.1898C59.3454 51.4929 59.212 51.7699 58.9763 51.9584C58.7386 52.1478 58.436 52.2176 58.1375 52.1498C53.9855 51.2036 47.2507 50.1162 40.2214 50.8373C43.7658 49.0989 47.6486 48.585 50.5798 48.5043L51.3816 48.4926C55.0086 48.4836 57.9597 45.5324 57.9597 41.9066V16.3295H58.3601Z" fill="white" stroke="#757575" stroke-width="2.29101"/>
<path d="M3.05664 16.3295H3.45703V41.9066C3.45703 45.5325 6.40834 48.4838 10.0352 48.4926C13.0339 48.4997 17.318 48.9349 21.1963 50.8373C14.1668 50.1159 7.43155 51.2024 3.2793 52.1488C2.9803 52.217 2.67823 52.148 2.44043 51.9584H2.44141C2.2051 51.7698 2.07129 51.4925 2.07129 51.1888V17.3148C2.07145 16.7727 2.51456 16.3296 3.05664 16.3295Z" fill="white" stroke="#757575" stroke-width="2.29101"/>
</g>
<defs>
<clipPath id="clip0_1_12501">
<rect width="59.5661" height="59.5661" fill="white" transform="translate(0.925781 0.783203)"/>
</clipPath>
</defs>
</svg>
