<svg width="61" height="61" viewBox="0 0 61 61" fill="none" xmlns="http://www.w3.org/2000/svg">
<g clip-path="url(#clip0_1_12544)">
<path d="M10.0374 7.81305C10.0358 7.81305 10.0339 7.81305 10.0323 7.81305C9.46897 7.81305 8.93909 8.03266 8.53897 8.43178C8.13444 8.8353 7.91162 9.3726 7.91162 9.9446V41.9069C7.91162 43.0789 8.86889 44.0348 10.0458 44.0378C15.0072 44.0497 23.3197 45.0837 29.0541 51.0847V17.6353C29.0541 17.238 28.9526 16.8647 28.7611 16.5559C24.0545 8.9763 15.01 7.82468 10.0374 7.81305Z" fill="#145ED7"/>
<path d="M53.506 41.9071V9.9446C53.506 9.3726 53.2832 8.8353 52.8786 8.43178C52.4785 8.03266 51.9482 7.81305 51.3855 7.81305C51.3837 7.81305 51.3819 7.81305 51.3803 7.81305C46.4078 7.82488 37.3633 8.9765 32.6566 16.5561C32.4651 16.8649 32.3638 17.2382 32.3638 17.6355V51.0847C38.0982 45.0837 46.4106 44.0496 51.372 44.0378C52.5487 44.0348 53.506 43.0789 53.506 41.9071Z" fill="#145ED7"/>
<path d="M58.3597 15.1838H56.8142V41.9067C56.8142 44.8992 54.376 47.3394 51.3788 47.3469C47.1705 47.3569 40.2315 48.1798 35.3171 52.831C43.8165 50.75 52.7763 52.1027 57.8826 53.2664C58.5202 53.4116 59.179 53.2616 59.6898 52.8544C60.1989 52.4483 60.4909 51.8412 60.4909 51.1896V17.315C60.4911 16.1399 59.5348 15.1838 58.3597 15.1838Z" fill="#145ED7"/>
<path d="M4.60245 41.9067V15.1838H3.05693C1.88205 15.1838 0.925781 16.1399 0.925781 17.315V51.189C0.925781 51.8408 1.2178 52.4477 1.72682 52.8538C2.23724 53.2608 2.89548 53.4114 3.53407 53.2658C8.64032 52.1019 17.6003 50.7494 26.0993 52.8304C21.1852 48.1794 14.2462 47.3567 10.0378 47.3466C7.04086 47.3394 4.60245 44.8992 4.60245 41.9067Z" fill="#145ED7"/>
</g>
<defs>
<clipPath id="clip0_1_12544">
<rect width="59.5661" height="59.5661" fill="white" transform="translate(0.925781 0.783142)"/>
</clipPath>
</defs>
</svg>
