<svg width="42" height="41" viewBox="0 0 42 41" fill="none" xmlns="http://www.w3.org/2000/svg">
<g clip-path="url(#clip0_17_30821)">
<path d="M21 0C9.67023 0 0.5 9.1687 0.5 20.5C0.5 31.8298 9.6687 41 21 41C32.3298 41 41.5 31.8313 41.5 20.5C41.5 9.17023 32.3313 0 21 0ZM21 37.7969C11.4405 37.7969 3.70312 30.0608 3.70312 20.5C3.70312 10.9405 11.4392 3.20312 21 3.20312C30.5595 3.20312 38.2969 10.9392 38.2969 20.5C38.2969 30.0595 30.5608 37.7969 21 37.7969Z" fill="white" fill-opacity="0.75"/>
<path d="M27.6978 19.6597C28.3082 20.0536 28.3082 20.9464 27.6978 21.3403L17.7922 27.7321C17.1268 28.1615 16.25 27.6838 16.25 26.8919L16.25 14.1082C16.25 13.3162 17.1268 12.8385 17.7922 13.2679L27.6978 19.6597Z" fill="white" fill-opacity="0.75"/>
</g>
<defs>
<clipPath id="clip0_17_30821">
<rect width="41" height="41" fill="white" transform="translate(0.5)"/>
</clipPath>
</defs>
</svg>
