<svg width="35" height="35" viewBox="0 0 35 35" fill="none" xmlns="http://www.w3.org/2000/svg">
    <path
        d="M17.5 0C7.83501 0 0 7.83501 0 17.5C0 27.165 7.83501 35 17.5 35C27.165 35 35 27.165 35 17.5C35 7.83501 27.165 0 17.5 0ZM17.5 32.8125C9.04313 32.8125 2.1875 25.9569 2.1875 17.5C2.1875 9.04313 9.04313 2.1875 17.5 2.1875C25.9569 2.1875 32.8125 9.04313 32.8125 17.5C32.8125 25.9569 25.9569 32.8125 17.5 32.8125Z"
        fill="#FF8131" />
    <path
        d="M14.5361 17.182L16.0893 15.6289L13.5736 13.1242L16.0893 10.6195L14.5361 9.06641L12.0314 11.582L9.52676 9.06641L7.97363 10.6195L10.4893 13.1242L7.97363 15.6289L9.52676 17.182L12.0314 14.6664L14.5361 17.182Z"
        fill="#FF8131" />
    <path
        d="M25.4731 9.06641L22.9685 11.582L20.4638 9.06641L18.9106 10.6195L21.4263 13.1242L18.9106 15.6289L20.4638 17.182L22.9685 14.6664L25.4731 17.182L27.0263 15.6289L24.5106 13.1242L27.0263 10.6195L25.4731 9.06641Z"
        fill="#FF8131" />
    <path d="M24.0625 21.875H10.9375V24.0625H24.0625V21.875Z" fill="#FF8131" />
</svg>