<svg width="36" height="36" viewBox="0 0 36 36" fill="none" xmlns="http://www.w3.org/2000/svg">
<rect x="0.303711" y="0.0473633" width="35.0975" height="35.0975" rx="3.89972" fill="#145ED7"/>
<g clip-path="url(#clip0_46_328)">
<path d="M30.0666 26.0345C30.3767 26.036 31.217 24.8431 31.3931 24.6089C32.3254 23.369 33.0063 21.78 32.768 20.2022C32.5399 18.6942 31.4958 17.4957 30.4309 16.4774C29.5699 15.6538 28.9304 14.765 28.7119 13.5752C28.5465 12.6732 28.5348 11.7459 28.205 10.8804C27.7295 9.63186 26.8113 8.60341 25.6761 7.91188C24.5389 7.21984 23.2074 6.85561 21.879 6.82981C20.153 6.79591 18.3348 7.36098 17.1066 8.61151C16.7413 8.98333 16.4206 9.39511 16.0913 9.7983C15.6365 10.3548 15.0537 10.8414 14.4421 11.2168C13.5229 11.7808 12.4793 12.0909 11.4205 12.2629C8.83393 12.6828 5.99646 12.9838 4.15051 15.0726C1.87406 17.6485 1.84573 21.6045 3.37349 24.5553C3.59708 24.9868 3.9082 25.7481 4.36399 25.9818C4.65336 26.1301 5.182 26.0167 5.49918 26.0167C6.55698 26.0173 7.61477 26.0183 8.67256 26.0193C12.671 26.0223 16.6695 26.0248 20.6679 26.0279C23.6283 26.0299 26.5882 26.0319 29.5486 26.0345C29.7216 26.0345 29.8941 26.0334 30.0666 26.0345Z" fill="#3D76D3"/>
<path opacity="0.15" d="M24.6923 23.0148C24.8784 22.5109 25.1966 22.0501 25.3534 21.5194C25.6413 20.5466 25.7065 19.2789 25.1354 18.3885C24.8567 17.954 24.1778 17.6727 23.7078 17.5604C22.9723 17.3849 22.3192 17.3277 21.87 16.6655C21.7319 16.4616 21.8007 16.2046 21.7835 15.9745C21.7708 15.8055 21.7303 15.6092 21.7941 15.4458C21.9464 15.0583 22.2347 14.7411 22.3597 14.339C22.4846 13.9363 22.5595 13.5053 22.5438 13.0829C22.5342 12.8188 22.4254 12.534 22.1184 12.5269C22.0364 12.0301 21.657 11.5496 21.2503 11.2693C20.7874 10.9506 20.0994 10.8909 19.6992 11.3432C19.6304 11.4211 19.5753 11.5106 19.5374 11.6072C19.5207 11.6492 19.4428 11.8718 19.4903 11.9067C19.4453 11.8738 19.3957 11.844 19.3441 11.8177C19.3411 11.8161 19.338 11.8146 19.335 11.8131C19.3259 11.8086 19.3168 11.8045 19.3077 11.8C19.3031 11.7979 19.2986 11.7954 19.294 11.7934C19.2854 11.7893 19.2768 11.7858 19.2682 11.7823C19.2627 11.7802 19.2576 11.7777 19.252 11.7757C19.244 11.7721 19.2354 11.7691 19.2273 11.7661C19.2212 11.764 19.2156 11.7615 19.2096 11.7595C19.2015 11.7565 19.1934 11.7539 19.1853 11.7514C19.1792 11.7494 19.1726 11.7473 19.1666 11.7453C19.1585 11.7428 19.1509 11.7408 19.1428 11.7382C19.1362 11.7362 19.1296 11.7347 19.1236 11.7327C19.116 11.7307 19.1084 11.7291 19.1008 11.7271C19.0942 11.7256 19.0876 11.7241 19.0811 11.7226C19.0735 11.721 19.0659 11.7195 19.0588 11.718C19.0522 11.7165 19.0451 11.7155 19.0386 11.7145C19.0315 11.7135 19.0239 11.7124 19.0168 11.7114C19.0102 11.7104 19.0032 11.7094 18.9966 11.7089C18.9895 11.7079 18.9824 11.7074 18.9753 11.7069C18.9688 11.7064 18.9617 11.7059 18.9551 11.7054C18.948 11.7049 18.9414 11.7049 18.9344 11.7043C18.9278 11.7043 18.9212 11.7038 18.9146 11.7038C18.9081 11.7038 18.9015 11.7038 18.8949 11.7043C18.8883 11.7043 18.8817 11.7049 18.8752 11.7054C18.8686 11.7059 18.8625 11.7064 18.8559 11.7069C18.8494 11.7074 18.8433 11.7084 18.8367 11.7089C18.8307 11.7099 18.8246 11.7104 18.8185 11.7114C18.8124 11.7124 18.8064 11.7135 18.8003 11.715C18.7947 11.716 18.7887 11.7175 18.7831 11.719C18.777 11.7205 18.7715 11.7221 18.7654 11.7241C18.7598 11.7256 18.7548 11.7276 18.7492 11.7291C18.7436 11.7312 18.7381 11.7332 18.7325 11.7357C18.7275 11.7377 18.7224 11.7398 18.7173 11.7423C18.7118 11.7448 18.7067 11.7473 18.7017 11.7504C18.6971 11.7529 18.6925 11.7554 18.688 11.7585C18.6829 11.7615 18.6784 11.7645 18.6733 11.7681C18.6688 11.7711 18.6647 11.7742 18.6607 11.7772C18.6561 11.7807 18.6521 11.7848 18.6475 11.7883C18.6435 11.7919 18.6399 11.7954 18.6364 11.7989C18.6323 11.803 18.6283 11.8075 18.6248 11.8121C18.6212 11.8161 18.6182 11.8202 18.6146 11.8242C18.6111 11.8288 18.6076 11.8339 18.6045 11.8389C18.6015 11.8435 18.5985 11.8475 18.5959 11.8526C18.5929 11.8581 18.5904 11.8637 18.5873 11.8693C18.5848 11.8743 18.5823 11.8789 18.5802 11.8839C18.5777 11.89 18.5757 11.8961 18.5737 11.9027C18.5716 11.9082 18.5701 11.9133 18.5681 11.9188C18.5661 11.9254 18.5651 11.9325 18.5635 11.9396C18.5625 11.9457 18.561 11.9512 18.56 11.9573C18.559 11.9649 18.558 11.973 18.5575 11.9806C18.557 11.9866 18.556 11.9927 18.5555 11.9993C18.5549 12.0079 18.5549 12.0165 18.5549 12.0251C18.5549 12.0317 18.5544 12.0377 18.5549 12.0448C18.5555 12.0544 18.5565 12.0645 18.557 12.0741C18.5575 12.0807 18.558 12.0873 18.5585 12.0939C18.56 12.105 18.562 12.1171 18.5641 12.1293C18.5651 12.1354 18.5656 12.1409 18.5671 12.147C18.5706 12.1652 18.5747 12.1844 18.5802 12.2042C18.5802 12.2042 18.5463 12.2163 18.4963 12.2446C18.4872 12.2497 18.4775 12.2553 18.4674 12.2618C18.4118 12.2957 18.343 12.3463 18.2782 12.4171C18.2666 12.4298 18.255 12.4434 18.2433 12.4576C18.2317 12.4718 18.2206 12.4864 18.2099 12.5021C18.1993 12.5178 18.1887 12.534 18.1786 12.5512C18.1533 12.5937 18.131 12.6407 18.1128 12.6928C18.1022 12.7242 18.0926 12.7571 18.0855 12.7915C18.0804 12.8148 18.0764 12.8385 18.0734 12.8633C18.0688 12.9008 18.0663 12.9397 18.0663 12.9807C18.0663 13.0353 18.0708 13.0935 18.0804 13.1552C18.0855 13.1861 18.0916 13.2179 18.0992 13.2508C18.1067 13.2837 18.1158 13.3171 18.1265 13.352C18.1315 13.3692 18.1376 13.3869 18.1437 13.4046C18.1558 13.44 18.1695 13.4769 18.1852 13.5144C18.262 13.7021 18.3814 13.914 18.5555 14.1538C18.556 14.1538 18.5575 14.1543 18.56 14.1553C18.5605 14.1558 18.562 14.1563 18.5625 14.1563C18.5646 14.1574 18.5671 14.1584 18.5696 14.1599C18.5706 14.1604 18.5721 14.1614 18.5742 14.1619C18.3516 14.2292 18.1892 14.4356 18.1892 14.6799C18.1892 14.9405 18.3728 15.1575 18.6177 15.2091C18.7957 16.754 19.5697 16.8861 19.9365 16.9205C19.9643 16.9225 19.9911 16.9225 20.0179 16.923C20.0179 16.923 20.0002 17.1643 19.9997 17.1643C20.0013 17.1355 20.0033 17.1056 20.0063 17.0763C19.9927 17.0879 19.9795 17.099 19.9663 17.1107L19.9714 17.0763C19.6163 17.1071 19.3618 17.3145 19.1797 17.61L17.5513 18.3045L11.1919 24.3862L13.2149 24.9164L17.3459 21.8862C17.5422 22.435 17.8548 23.0633 18.0369 23.8227L14.2985 24.5112V25.5674V25.8983L18.1447 25.5922C18.1265 25.744 18.1012 25.8998 18.0668 26.0602C19.6117 26.0602 21.1562 26.0602 22.7011 26.0602C23.3234 26.0602 24.0073 26.1401 24.626 26.0602C24.6968 26.051 24.7712 26.0602 24.84 26.0505C24.841 25.6286 24.6063 25.1369 24.5643 24.6943C24.5132 24.1515 24.501 23.5338 24.6923 23.0148Z" fill="#63A1FC"/>
<path d="M18.4124 17.874L17.3429 18.0981C16.9924 18.1715 16.6691 18.342 16.4101 18.5893L10.4458 24.2921L12.4688 24.8223L17.5665 21.0828L18.4124 17.874Z" fill="white"/>
<path d="M17.1006 18.2453L16.8001 20.1985L12.1233 24.453L10.5343 24.2107L10.4458 24.2926L12.4688 24.8228L17.5665 21.0833L18.4124 17.874L17.1006 18.2453Z" fill="#F4F4F4"/>
<path d="M20.9317 15.7866C21.0602 15.4947 21.1988 15.1841 21.3187 14.8882C21.5499 14.3165 21.7937 13.712 21.8043 13.0873C21.8064 12.9583 21.8003 12.8252 21.7522 12.7038C21.7239 12.6325 21.6789 12.5687 21.6172 12.5217C21.5828 12.4954 21.5443 12.4751 21.5043 12.4595C21.4917 12.4544 21.3637 12.422 21.3637 12.423C21.3571 12.2171 21.2286 11.9991 21.1214 11.8312C20.9605 11.5772 20.7531 11.3465 20.5047 11.1755C20.0419 10.8568 19.3539 10.7971 18.9537 11.2494C18.8849 11.3273 18.8298 11.4168 18.7918 11.5135C18.7751 11.5555 18.6972 11.778 18.7448 11.813C18.3578 11.5302 17.6683 11.471 17.8347 12.1104C17.8347 12.1104 16.6955 12.5267 17.8094 14.059C17.8423 14.059 20.9317 15.7866 20.9317 15.7866Z" fill="#1B1251"/>
<path d="M18.0279 12.212C17.8913 11.6874 18.331 11.6332 18.7068 11.7865C18.3148 11.5275 17.6743 11.4921 17.8352 12.1108C17.8352 12.1108 16.696 12.5271 17.8099 14.0594C17.815 14.0594 17.8853 14.0964 18.0021 14.1596C16.8887 12.6283 18.0279 12.212 18.0279 12.212Z" fill="white"/>
<path d="M18.0049 14.1616C18.6888 14.5324 20.9314 15.7865 20.9314 15.7865C20.9324 15.785 20.9329 15.783 20.9339 15.7809C20.2707 15.4106 18.0949 14.1965 18.0049 14.1616Z" fill="white"/>
<path d="M21.5381 12.4756C21.5391 12.4837 21.5396 12.4918 21.5401 12.4994C21.5401 12.4989 21.5725 12.507 21.6069 12.5155C21.5851 12.4999 21.5624 12.4867 21.5381 12.4756Z" fill="#1B1251"/>
<path d="M19.1611 18.3299H21.0167L20.9155 15.2896L19.3104 16.321L19.2481 17.1648L19.1611 18.3299Z" fill="#FEB39C"/>
<path d="M19.2358 17.4223C20.3255 17.4552 20.8622 15.2896 20.8622 15.2896L19.3107 16.3215L19.2358 17.4223Z" fill="#FCA28D"/>
<path d="M20.9325 15.2353C20.9325 15.2353 20.4564 16.9163 19.1917 16.8273C18.7157 16.7828 17.5552 16.5743 17.8977 13.3311C18.2103 12.1858 20.5161 11.3972 20.6203 14.1643C21.0685 13.8836 21.5967 14.1335 21.4869 14.6591C21.3802 15.1665 21.0903 15.2525 20.9325 15.2353Z" fill="#FEB39C"/>
<path d="M19.3611 16.6931C18.885 16.6486 17.7245 16.4401 18.067 13.197C18.1318 12.9597 18.282 12.7381 18.4803 12.5601C18.1991 12.7538 17.9795 13.03 17.8976 13.331C17.5556 16.5742 18.7156 16.7826 19.1916 16.8271C19.6069 16.8565 19.9367 16.6941 20.1927 16.4639C19.9651 16.6192 19.6899 16.7164 19.3611 16.6931Z" fill="#FFE8E3"/>
<path d="M18.6337 15.2161C18.6575 15.2793 18.665 15.3441 18.6701 15.4078C18.6711 15.4295 18.6858 15.4548 18.7055 15.47C18.7252 15.4857 18.7536 15.4897 18.7849 15.4746C18.7768 15.4892 18.7627 15.5019 18.7445 15.5085C18.7263 15.5145 18.7045 15.5125 18.6863 15.5044C18.6499 15.4882 18.6241 15.4538 18.6195 15.4113C18.6165 15.3461 18.6175 15.2818 18.6337 15.2161Z" fill="#1B1251"/>
<path d="M18.2186 14.7941C18.2206 14.878 18.1857 14.9468 18.1412 14.9478C18.0967 14.9489 18.0592 14.8816 18.0572 14.7976C18.0552 14.7136 18.0901 14.6448 18.1346 14.6438C18.1791 14.6428 18.2166 14.7101 18.2186 14.7941Z" fill="#1B1251"/>
<path d="M19.4036 14.7689C19.4057 14.8529 19.3708 14.9217 19.3262 14.9227C19.2817 14.9237 19.2443 14.8564 19.2423 14.7725C19.2402 14.6885 19.2752 14.6197 19.3197 14.6187C19.3647 14.6177 19.4021 14.6849 19.4036 14.7689Z" fill="#1B1251"/>
<path d="M18.6369 15.8322C18.5833 15.8297 18.5373 15.8747 18.5454 15.9278C18.5676 16.0715 18.6582 16.2268 18.7442 16.2794C18.8509 16.3452 18.9986 16.3255 19.1221 16.2334C19.2318 16.1514 19.3158 16.024 19.3912 15.8909C19.4165 15.8464 19.3796 15.7938 19.329 15.8004C19.0953 15.8317 18.8641 15.8424 18.6369 15.8322Z" fill="white"/>
<path d="M17.94 14.3675C18.0766 14.2628 18.201 14.279 18.3326 14.3949L18.3366 14.3913C18.2587 14.2274 18.0402 14.2492 17.9385 14.3665" fill="#1B1251"/>
<path d="M17.94 14.3675C18.0766 14.2628 18.201 14.279 18.3326 14.3949L18.3366 14.3913C18.2587 14.2274 18.0402 14.2492 17.9385 14.3665" stroke="#1B1251" stroke-width="0.0263208" stroke-linecap="round" stroke-linejoin="round"/>
<path d="M19.5725 14.35C19.4248 14.2367 19.2908 14.2544 19.1481 14.3793L19.1436 14.3753C19.2275 14.1982 19.4638 14.222 19.5736 14.3485" fill="#1B1251"/>
<path d="M19.5725 14.35C19.4248 14.2367 19.2908 14.2544 19.1481 14.3793L19.1436 14.3753C19.2275 14.1982 19.4638 14.222 19.5736 14.3485" stroke="#1B1251" stroke-width="0.0263208" stroke-linecap="round" stroke-linejoin="round"/>
<path opacity="0.15" d="M19.8934 15.0807C20.1659 14.8793 20.2236 14.495 20.0221 14.2225C19.8207 13.95 19.4364 13.8923 19.1639 14.0938C18.8913 14.2952 18.8337 14.6794 19.0352 14.952C19.2366 15.2245 19.6208 15.2822 19.8934 15.0807Z" fill="white"/>
<path d="M17.835 12.1109C17.2568 12.4306 17.3488 12.7792 17.4804 12.981C17.538 13.069 17.6144 13.1434 17.7009 13.2031C17.7029 13.2046 17.705 13.2061 17.707 13.2076C17.833 13.2947 17.9751 13.3554 18.1238 13.3898C19.8074 13.7778 20.3821 12.7908 20.3821 12.7908L20.4271 11.8635" fill="#1B1251"/>
<path d="M18.3054 13.3898C18.1562 13.3554 18.0146 13.2942 17.8886 13.2077C17.8866 13.2062 17.8846 13.2046 17.8825 13.2031C17.796 13.1429 17.7191 13.0691 17.662 12.981C17.5304 12.7792 17.4267 12.4145 18.005 12.0942L17.835 12.1104C17.2568 12.4301 17.3488 12.7787 17.4804 12.9805C17.538 13.0686 17.6144 13.1429 17.7009 13.2026C17.7029 13.2041 17.705 13.2057 17.707 13.2072C17.833 13.2942 17.9751 13.3549 18.1238 13.3893C18.4425 13.4626 18.7213 13.4869 18.9646 13.4778C18.7668 13.4722 18.5483 13.4459 18.3054 13.3898Z" fill="white"/>
<path opacity="0.15" d="M17.9851 15.1275C18.2841 15.1275 18.5264 14.8852 18.5264 14.5862C18.5264 14.2873 18.2841 14.0449 17.9851 14.0449C17.6862 14.0449 17.4438 14.2873 17.4438 14.5862C17.4438 14.8852 17.6862 15.1275 17.9851 15.1275Z" fill="white"/>
<path d="M19.8934 15.0807C20.1659 14.8793 20.2236 14.495 20.0221 14.2225C19.8207 13.95 19.4364 13.8923 19.1639 14.0938C18.8913 14.2952 18.8337 14.6794 19.0352 14.952C19.2366 15.2245 19.6208 15.2822 19.8934 15.0807Z" stroke="white" stroke-width="0.0505878" stroke-miterlimit="10"/>
<path d="M17.9851 15.1275C18.2841 15.1275 18.5264 14.8852 18.5264 14.5862C18.5264 14.2873 18.2841 14.0449 17.9851 14.0449C17.6862 14.0449 17.4438 14.2873 17.4438 14.5862C17.4438 14.8852 17.6862 15.1275 17.9851 15.1275Z" stroke="white" stroke-width="0.0505878" stroke-miterlimit="10"/>
<path d="M19.998 14.1921L20.6193 14.1638" stroke="white" stroke-width="0.0505878" stroke-miterlimit="10"/>
<path d="M19.0111 14.2549H18.4121" stroke="white" stroke-width="0.0505878" stroke-miterlimit="10"/>
<path d="M16.9339 18.6774L18.5967 18.7623L19.0531 18.7856L20.7649 18.8731L21.2637 18.8989L21.3791 18.9121L23.4506 19.1478L24.2555 18.0597L21.9143 17.1091L20.6754 17.3732C20.3871 17.7096 20.2282 17.7212 19.8569 17.9276C19.8569 17.9276 19.6429 17.8072 19.4588 17.6332L18.8684 17.3317L16.9243 18.2408L16.9339 18.6774Z" fill="white"/>
<path d="M17.4211 25.2736C17.4575 24.7864 17.4181 24.3433 17.3361 23.9365C17.3048 23.7797 17.2678 23.629 17.2258 23.4828C17.199 23.3877 17.1702 23.2946 17.1403 23.2035C16.7781 22.1048 16.6567 20.9412 16.7958 19.7924C16.8915 19.0017 16.984 18.2788 16.984 18.2788L23.3738 18.895L23.992 18.9547V21.0834C23.992 21.0834 23.9439 21.6641 23.9019 22.4058C23.8721 22.9354 23.8447 23.547 23.8412 24.0868C23.8382 24.533 23.8503 24.9306 23.8888 25.1937L24.1275 25.9671H17.3209C17.3462 25.8488 17.367 25.7329 17.3832 25.6196C17.4004 25.5017 17.413 25.3864 17.4211 25.2736Z" fill="white"/>
<path d="M20.5821 18.5527L19.9983 19.2558C19.9983 19.2558 19.7008 19.1107 19.5278 19.2558C19.3882 19.1107 19.0928 18.6533 19.0928 18.6533L19.5835 18.1121H20.1359L20.5821 18.5527Z" fill="#FE7300"/>
<path d="M19.8564 17.9276L20.764 19.0638L21.0614 19.5171C21.0614 19.5171 21.2754 19.3486 21.3781 19.1027C21.6149 18.5326 21.9371 17.5522 21.8537 17.3023C21.5218 16.9568 20.9557 16.632 20.9163 16.6123C20.9466 16.6346 21.0923 17.0757 20.6745 17.5639C20.3866 17.9013 20.2278 17.7217 19.8564 17.9276Z" fill="#E5E5E5"/>
<path d="M19.8564 17.9274L20.764 18.8729L21.1996 19.3261C21.1996 19.3261 21.2754 19.1577 21.3781 18.9118C21.6149 18.3417 21.9968 17.3588 21.9139 17.1089C21.582 16.7634 20.9921 16.4411 20.9527 16.4214C20.9542 16.4689 20.9613 16.5079 20.9598 16.6288C20.9572 16.8074 20.9238 17.0821 20.675 17.3729C20.3866 17.7099 20.2278 17.7215 19.8564 17.9274Z" fill="white"/>
<path d="M20.1415 25.9524V20.07L19.9988 19.2561C19.7125 18.948 19.5283 19.2561 19.5283 19.2561L19.1616 20.0032L18.6855 25.9524H20.1415V25.9524Z" fill="#FE7300"/>
<path d="M19.6406 19.1486L19.6361 19.143C19.4267 18.8729 19.4413 18.4915 19.671 18.2385L19.7858 18.1121H19.5835L19.0928 18.6533C19.0928 18.6533 19.3882 19.1107 19.5278 19.2558C19.5283 19.2558 19.5283 19.2553 19.5288 19.2553C19.5288 19.2559 19.5283 19.2564 19.5283 19.2564L19.1616 20.0035L18.6855 25.9527H18.8373L19.2496 20.7988C19.2916 20.2732 19.4327 19.7602 19.6649 19.2872C19.6766 19.2629 19.6796 19.2356 19.672 19.2098C19.6664 19.1901 19.6568 19.1678 19.6406 19.1486Z" fill="#FFA664"/>
<path d="M18.3506 17.9377L18.558 18.9262L18.6652 19.4432L19.1332 18.906L19.8561 17.9281C19.8561 17.9281 19.6644 17.871 19.4802 17.6969C19.2865 17.5138 19.1266 17.271 19.2829 17.0464C18.7184 17.5224 18.3506 17.9377 18.3506 17.9377Z" fill="#E5E5E5"/>
<path d="M18.3286 17.8745L18.5962 18.7628L18.7121 19.1483L19.052 18.7861L19.8564 17.9281C19.8564 17.9281 19.6424 17.8077 19.4582 17.6337C19.2645 17.4506 19.2357 17.2265 19.2609 16.9832C18.6964 17.4592 18.3286 17.8745 18.3286 17.8745Z" fill="white"/>
<path d="M13.5526 25.8045H11.5078C11.5078 25.8045 12.3936 24.6329 13.5526 24.7194C14.7115 24.8059 13.5526 25.8045 13.5526 25.8045Z" fill="#FEB39C"/>
<path d="M23.9021 22.4056C23.7934 22.6049 23.6669 22.8067 23.5207 23.0106C22.3273 23.9121 18.8241 25.2527 18.8241 25.2527L17.4213 25.2734C17.4578 24.7862 17.4183 24.3431 17.3364 23.9364C17.305 23.7795 17.2681 23.6288 17.2261 23.4826L17.8948 23.3774L23.374 18.8948L24.1293 18.2771C24.1293 18.2771 24.2912 18.5816 24.4045 19.0921C24.5734 19.8504 24.6362 21.063 23.9021 22.4056Z" fill="#F4F4F4"/>
<path d="M22.6231 23.7102C22.5908 23.7289 22.5584 23.7477 22.5255 23.7664C22.4881 23.7876 22.4506 23.8094 22.4127 23.8306C22.3267 23.8792 22.2402 23.9278 22.1532 23.9753C22.0682 24.0224 21.9827 24.0689 21.8972 24.1149C21.7591 24.1893 21.621 24.2626 21.4844 24.334C21.3934 24.3815 21.3028 24.4286 21.2133 24.4741C21.1794 24.4918 21.1455 24.509 21.1121 24.5262C21.0635 24.551 21.015 24.5758 20.9669 24.5996C20.9133 24.6269 20.8602 24.6537 20.8081 24.68C20.7818 24.6931 20.756 24.7063 20.7302 24.7189L20.6725 24.7478C20.6583 24.7549 20.6447 24.7619 20.6305 24.7685C20.6027 24.7827 20.5754 24.7963 20.548 24.8095C20.5238 24.8216 20.4995 24.8338 20.4752 24.8454C20.4372 24.8641 20.4003 24.8823 20.3639 24.9001C20.3467 24.9081 20.33 24.9167 20.3133 24.9248C20.2759 24.9431 20.2389 24.9608 20.2035 24.9785C20.1798 24.9901 20.1565 25.0012 20.1332 25.0124C20.0958 25.0306 20.0599 25.0478 20.025 25.0645C19.6481 25.2435 19.2419 25.3513 18.826 25.3852L13.5528 25.8046L13.3135 24.6638L18.1375 23.5833C18.3105 23.5443 18.4704 23.4603 18.5999 23.3389L24.2556 18.0596C24.2556 18.0596 24.6209 18.1921 24.7671 18.6944C24.7762 18.7253 24.7848 18.7577 24.7934 18.7906C24.8556 19.0354 24.8981 19.3319 24.9047 19.6667C24.9391 21.326 24.0512 22.8674 22.6231 23.7102Z" fill="white"/>
<path d="M17.8143 22.9184C17.8143 22.9867 17.7591 23.0423 17.6903 23.0423C17.6221 23.0423 17.5664 22.9872 17.5664 22.9184C17.5664 22.8501 17.6215 22.7944 17.6903 22.7944C17.7586 22.7949 17.8143 22.8501 17.8143 22.9184Z" fill="#00070E"/>
<path d="M18.4022 22.9184C18.4022 22.9867 18.347 23.0423 18.2782 23.0423C18.2099 23.0423 18.1543 22.9872 18.1543 22.9184C18.1543 22.8501 18.2094 22.7944 18.2782 22.7944C18.347 22.7949 18.4022 22.8501 18.4022 22.9184Z" fill="#00070E"/>
<path d="M17.6909 22.9182C17.6909 22.9182 17.3065 23.0376 17.2271 22.6597V20.9584C17.2271 20.7485 17.3045 20.5436 17.4532 20.3959C17.5746 20.2755 17.7557 20.1758 18.0223 20.1814" stroke="#00070E" stroke-width="0.0505878" stroke-miterlimit="10"/>
<path d="M21.7803 16.9309C22.183 17.0508 22.3408 17.4171 22.3641 17.6078C22.4566 18.6549 22.3226 19.2195 22.3226 19.2195" stroke="#00070E" stroke-width="0.0505878" stroke-miterlimit="10" stroke-linecap="round"/>
<path d="M18.3358 22.9184C18.3358 22.9184 18.7203 23.0378 18.7997 22.6599V20.9586C18.7997 20.7487 18.7223 20.5438 18.5736 20.3961C18.4522 20.2757 18.2711 20.176 18.0045 20.1816C18.0045 20.1816 17.7748 17.1094 19.2272 16.9824" stroke="#00070E" stroke-width="0.0505878" stroke-miterlimit="10" stroke-linecap="round"/>
<path d="M22.3228 20.0192C22.5717 20.0192 22.7735 19.8173 22.7735 19.5684C22.7735 19.3195 22.5717 19.1177 22.3228 19.1177C22.0739 19.1177 21.8721 19.3195 21.8721 19.5684C21.8721 19.8173 22.0739 20.0192 22.3228 20.0192Z" fill="#BEBFBF"/>
<path d="M22.3222 19.7628C22.4295 19.7628 22.5164 19.6758 22.5164 19.5685C22.5164 19.4612 22.4295 19.3743 22.3222 19.3743C22.2149 19.3743 22.1279 19.4612 22.1279 19.5685C22.1279 19.6758 22.2149 19.7628 22.3222 19.7628Z" fill="#909091"/>
<path d="M20.4214 12.9304C20.4123 12.9471 20.4048 12.9578 20.3972 12.9699C20.3896 12.982 20.3815 12.9932 20.3734 13.0043C20.3577 13.0271 20.341 13.0483 20.3233 13.0685C20.2899 13.111 20.2525 13.1485 20.2156 13.1869C20.1761 13.2223 20.1397 13.2608 20.0972 13.2921L20.0355 13.3412C20.0147 13.3569 19.992 13.3706 19.9707 13.3852C19.7967 13.5016 19.6034 13.5825 19.4056 13.6326L19.2554 13.6614L19.218 13.6685L19.18 13.6721L19.1046 13.6786C19.0045 13.6918 18.9033 13.6857 18.8037 13.6842C18.7536 13.6857 18.704 13.6761 18.6544 13.671L18.5062 13.6533C18.4086 13.6341 18.3119 13.6119 18.2158 13.5916C18.3145 13.6017 18.4121 13.6134 18.5097 13.622L18.6569 13.6235C18.706 13.623 18.7546 13.627 18.8031 13.6205C18.9003 13.6113 18.9974 13.6068 19.0915 13.584L19.1623 13.5704L19.1977 13.5633L19.2321 13.5527L19.3692 13.5107C19.5478 13.4444 19.7147 13.3518 19.8569 13.2324C19.8746 13.2173 19.8933 13.2036 19.91 13.1874L19.9596 13.1389C19.9935 13.1075 20.0218 13.0711 20.0522 13.0372C20.08 13.0008 20.1088 12.9653 20.1321 12.9274C20.1447 12.9087 20.1564 12.89 20.167 12.8707C20.1726 12.8611 20.1781 12.8515 20.1827 12.8424C20.1872 12.8333 20.1928 12.8232 20.1948 12.8176L20.4214 12.9304Z" fill="#1B1251"/>
<path opacity="0.45" d="M22.6224 23.7102C22.59 23.7289 22.5577 23.7476 22.5248 23.7663C22.4873 23.7876 22.4499 23.8093 22.412 23.8306C22.326 23.8792 22.2395 23.9277 22.1525 23.9753C22.0675 24.0223 21.982 24.0689 21.8965 24.1149C21.7584 24.1893 21.6203 24.2626 21.4837 24.3339C21.3926 24.3815 21.3021 24.4285 21.2125 24.4741C21.1786 24.4918 21.1447 24.509 21.1114 24.5262C21.0628 24.551 21.0142 24.5757 20.9662 24.5995C20.9125 24.6268 20.8594 24.6537 20.8073 24.68C20.781 24.6931 20.7552 24.7063 20.7294 24.7189L20.6717 24.7477C20.6576 24.7548 20.6439 24.7619 20.6298 24.7685C20.6019 24.7827 20.5746 24.7963 20.5473 24.8095C20.523 24.8216 20.4987 24.8337 20.4745 24.8454C20.4365 24.8641 20.3996 24.8823 20.3632 24.9C20.346 24.9081 20.3293 24.9167 20.3126 24.9248C20.2751 24.943 20.2382 24.9607 20.2028 24.9784C20.179 24.9901 20.1558 25.0012 20.1325 25.0123C20.095 25.0305 20.0591 25.0477 20.0242 25.0644C19.6473 25.2435 19.2411 25.3513 18.8253 25.3852L13.552 25.8045L13.4883 25.4413C14.2375 25.3922 15.3469 25.3558 16.8063 25.2597C21.6461 24.9243 24.1016 20.4397 24.7926 18.7905C24.8549 19.0354 24.8973 19.3318 24.9039 19.6667C24.9383 21.326 24.0505 22.8674 22.6224 23.7102Z" fill="#EAEAEA"/>
<path d="M23.8889 25.1934C23.8889 25.1934 23.255 25.2945 22.3955 25.5601" stroke="#F4F4F4" stroke-width="0.101176" stroke-miterlimit="10"/>
<path d="M21.2866 14.6206C21.2836 14.6586 21.2775 14.6955 21.2694 14.7284C21.2446 14.8326 21.1606 15.0167 21.0301 15.0167C20.9158 15.0167 20.8237 14.8594 20.8237 14.6652C20.8237 14.5569 20.851 14.4213 20.9401 14.349C21.0134 14.2898 21.1323 14.3019 21.2026 14.3596C21.2775 14.4213 21.2937 14.524 21.2866 14.6206Z" fill="#FCA28D"/>
<path d="M15.0668 13.4549H9.1379C8.90216 13.4549 8.71094 13.2636 8.71094 13.0279V9.13668C8.71094 8.90094 8.90216 8.70972 9.1379 8.70972H15.0668C15.3025 8.70972 15.4937 8.90094 15.4937 9.13668V13.0279C15.4937 13.2636 15.3025 13.4549 15.0668 13.4549Z" fill="#C5E2FB"/>
<path opacity="0.45" d="M14.8244 9.9677H11.736C11.6632 9.9677 11.604 9.90851 11.604 9.83567V9.77901C11.604 9.70616 11.6632 9.64697 11.736 9.64697H14.8244C14.8973 9.64697 14.9565 9.70616 14.9565 9.77901V9.83567C14.9565 9.90851 14.8973 9.9677 14.8244 9.9677Z" fill="#3B47BD"/>
<path opacity="0.45" d="M14.8244 10.4472H11.736C11.6632 10.4472 11.604 10.388 11.604 10.3152V10.2585C11.604 10.1857 11.6632 10.1265 11.736 10.1265H14.8244C14.8973 10.1265 14.9565 10.1857 14.9565 10.2585V10.3152C14.9565 10.388 14.8973 10.4472 14.8244 10.4472Z" fill="#3B47BD"/>
<path d="M14.8244 10.9264H11.736C11.6632 10.9264 11.604 10.8673 11.604 10.7944V10.7377C11.604 10.6649 11.6632 10.6057 11.736 10.6057H14.8244C14.8973 10.6057 14.9565 10.6649 14.9565 10.7377V10.7944C14.9565 10.8673 14.8973 10.9264 14.8244 10.9264Z" fill="white"/>
<path d="M14.8244 11.3932H11.736C11.6632 11.3932 11.604 11.334 11.604 11.2612V11.2045C11.604 11.1317 11.6632 11.0725 11.736 11.0725H14.8244C14.8973 11.0725 14.9565 11.1317 14.9565 11.2045V11.2612C14.9565 11.334 14.8973 11.3932 14.8244 11.3932Z" fill="white"/>
<path d="M13.8096 11.9523H11.7355C11.6627 11.9523 11.6035 11.8931 11.6035 11.8203V11.7636C11.6035 11.6908 11.6627 11.6316 11.7355 11.6316H13.8096C13.8825 11.6316 13.9417 11.6908 13.9417 11.7636V11.8203C13.9417 11.8931 13.8825 11.9523 13.8096 11.9523Z" fill="white"/>
<path d="M11.1674 12.1096H9.4069C9.31129 12.1096 9.23389 12.0322 9.23389 11.9366V9.81998C9.23389 9.72437 9.31129 9.64697 9.4069 9.64697H11.1674C11.263 9.64697 11.3404 9.72437 11.3404 9.81998V11.9366C11.3404 12.0322 11.263 12.1096 11.1674 12.1096Z" fill="white"/>
<path d="M11.2083 12.6806H9.36641C9.29356 12.6806 9.23438 12.6214 9.23438 12.5485C9.23438 12.4757 9.29356 12.4165 9.36641 12.4165H11.2083C11.2812 12.4165 11.3403 12.4757 11.3403 12.5485C11.3403 12.6214 11.2812 12.6806 11.2083 12.6806Z" fill="white"/>
<path d="M10.6637 10.6419C10.6617 10.6328 10.6591 10.6242 10.6561 10.6151C10.6531 10.6059 10.6495 10.5968 10.6455 10.5882C10.6419 10.5801 10.6379 10.5721 10.6333 10.564C10.6298 10.5579 10.6263 10.5523 10.6227 10.5468C10.5994 10.5139 10.5721 10.5174 10.5413 10.4931C10.5231 10.4785 10.5038 10.4638 10.4816 10.4572C10.4593 10.4506 10.4335 10.4542 10.4173 10.4719L10.2772 10.5002L10.1376 10.4714C10.1214 10.4537 10.0956 10.4506 10.0733 10.4567C10.0511 10.4633 10.0324 10.478 10.0136 10.4926C9.98278 10.5174 9.95547 10.5134 9.93219 10.5463C9.92815 10.5518 9.92461 10.5574 9.92157 10.5635C9.91702 10.5715 9.91297 10.5796 9.90943 10.5877C9.90538 10.5963 9.90184 10.6054 9.89881 10.6145C9.89577 10.6231 9.89324 10.6323 9.89122 10.6414C9.8897 10.6489 9.88818 10.657 9.88818 10.6651C9.88818 10.6687 9.88818 10.6717 9.88869 10.6753C9.8892 10.6783 9.89021 10.6874 9.89527 10.6864C9.89729 10.6859 9.89931 10.6844 9.90083 10.6823C9.90235 10.6803 9.90336 10.6788 9.90437 10.6768C9.90488 10.6758 9.90538 10.6747 9.90589 10.6732C9.90639 10.6722 9.9069 10.6712 9.9069 10.6702C9.8978 10.7223 9.90387 10.7769 9.92359 10.8255C9.92815 10.8371 9.93422 10.8488 9.94332 10.8569C9.95243 10.865 9.96609 10.8685 9.97671 10.8629C9.97722 10.8624 9.97772 10.8619 9.97823 10.8619C9.98025 10.8629 9.98177 10.8634 9.98379 10.8639C9.99644 10.8685 10.004 10.8817 10.0152 10.8908C10.0207 10.8953 10.0268 10.8994 10.0329 10.9034C10.0374 10.9059 10.047 10.9085 10.0506 10.912C10.0425 10.9034 10.047 10.8872 10.0571 10.8806C10.0673 10.8746 10.0799 10.8761 10.0905 10.8801C10.1012 10.8842 10.1113 10.8908 10.1224 10.8938C10.1345 10.8973 10.1467 10.8968 10.1593 10.8953C10.1816 10.8983 10.2054 10.8973 10.2276 10.8943C10.2443 10.8923 10.261 10.8892 10.2777 10.8872C10.2944 10.8892 10.3111 10.8923 10.3278 10.8943C10.3501 10.8973 10.3738 10.8983 10.3961 10.8953C10.4087 10.8973 10.4209 10.8973 10.433 10.8938C10.4441 10.8903 10.4543 10.8842 10.4649 10.8801C10.4755 10.8761 10.4887 10.8746 10.4983 10.8806C10.5084 10.8867 10.5129 10.9029 10.5048 10.912C10.5084 10.9085 10.518 10.9059 10.5226 10.9034C10.5286 10.8999 10.5347 10.8953 10.5403 10.8908C10.5514 10.8817 10.559 10.8685 10.5716 10.8639C10.5736 10.8634 10.5757 10.8624 10.5772 10.8619C10.5777 10.8624 10.5782 10.8629 10.5787 10.8629C10.5893 10.8685 10.603 10.865 10.6121 10.8569C10.6212 10.8488 10.6273 10.8371 10.6318 10.8255C10.6516 10.7769 10.6576 10.7223 10.6485 10.6702C10.6485 10.6712 10.649 10.6727 10.6495 10.6732C10.65 10.6747 10.6505 10.6758 10.651 10.6768C10.6521 10.6788 10.6531 10.6803 10.6546 10.6823C10.6561 10.6844 10.6581 10.6859 10.6602 10.6864C10.6652 10.6874 10.6662 10.6788 10.6667 10.6753C10.6672 10.6722 10.6672 10.6687 10.6672 10.6651C10.6667 10.6575 10.6652 10.6495 10.6637 10.6419Z" fill="#FE7300"/>
<path d="M10.6523 11.4281L10.2841 11.5485L9.93652 11.4165C9.93652 11.4165 10.0969 11.3548 10.1009 11.3537C10.105 11.3426 10.1126 11.3092 10.1126 11.2197C10.1126 11.2075 10.1126 11.1939 10.1121 11.1787H10.4561C10.4556 11.2 10.4556 11.2187 10.4556 11.2354C10.4566 11.3133 10.4636 11.3431 10.4672 11.3537C10.4707 11.3553 10.6523 11.4281 10.6523 11.4281Z" fill="#FEB39C"/>
<path d="M10.5844 10.8393C10.5844 10.8393 10.6395 10.816 10.6724 10.859C10.7048 10.902 10.6405 11.0427 10.5308 10.9966" fill="#FDC8A9"/>
<path d="M10.5844 10.8393C10.5844 10.8393 10.6395 10.816 10.6724 10.859C10.7048 10.902 10.6405 11.0427 10.5308 10.9966" fill="url(#paint0_linear_46_328)"/>
<path d="M9.98096 10.8431C9.98096 10.8431 9.92885 10.8132 9.89142 10.8527C9.85398 10.8917 9.90204 11.0384 10.0159 11.006" fill="#FDC8A9"/>
<path d="M9.98096 10.8431C9.98096 10.8431 9.92885 10.8132 9.89142 10.8527C9.85398 10.8917 9.90204 11.0384 10.0159 11.006" fill="url(#paint1_linear_46_328)"/>
<path opacity="0.25" d="M10.4553 11.2354C10.4118 11.2789 10.3577 11.3082 10.2939 11.3082C10.2201 11.3082 10.1599 11.2718 10.1123 11.2197C10.1123 11.2075 10.1123 11.1939 10.1118 11.1787H10.4558C10.4553 11.2 10.4548 11.2187 10.4553 11.2354Z" fill="#FDB293"/>
<path d="M10.5863 10.6094C10.5367 10.3985 10.2807 10.4319 10.2807 10.4319C10.2807 10.4319 10.0248 10.3985 9.97519 10.6094C9.97519 10.6094 9.94888 10.8543 9.98682 10.9853C10.0253 11.1163 10.1219 11.2843 10.2802 11.2843C10.4386 11.2843 10.5332 11.1062 10.5716 10.9752C10.6101 10.8442 10.5863 10.6094 10.5863 10.6094Z" fill="#FEB39C"/>
<path opacity="0.25" d="M10.0255 11.3816L10.2769 11.4388C10.2769 11.4388 10.4444 11.4251 10.5425 11.3846C10.5931 11.4403 10.6093 11.4565 10.6093 11.4565L10.3326 11.6001L10.1499 11.5925L9.95215 11.4342L10.0255 11.3816Z" fill="#FDB293"/>
<path d="M10.9411 11.4995C10.9411 11.4995 10.8501 11.8344 10.799 12.0807H9.75739C9.70579 11.8338 9.61523 11.4995 9.61523 11.4995L9.96075 11.4003L10.0255 11.3816C10.0923 11.4327 10.1707 11.4615 10.2506 11.4681L10.2855 11.4812L10.3199 11.4686C10.3958 11.463 10.4702 11.4372 10.5354 11.3917L10.543 11.3861L10.6219 11.4084L10.9411 11.4995Z" fill="#FE7300"/>
<path d="M9.76882 12.0808C9.77337 12.0611 9.77641 12.0479 9.77641 12.0479L9.61807 11.4985C9.61807 11.4985 9.52144 11.5269 9.46327 11.7606C9.38081 12.0085 9.36816 12.0697 9.36816 12.0697C9.36816 12.0697 9.36968 12.0737 9.37423 12.0808H9.76882Z" fill="#FE7300"/>
<path d="M11.2005 12.0808C11.1914 12.0499 11.1631 11.9558 11.0978 11.7605C11.0396 11.5273 10.9415 11.4995 10.9415 11.4995L10.7847 12.0484C10.7847 12.0484 10.7872 12.0615 10.7912 12.0813H11.2005V12.0808Z" fill="#FE7300"/>
<path d="M10.0255 11.3816L10.2856 11.4818L10.1348 11.592L9.96484 11.4039L10.0255 11.3816Z" fill="#FE7300"/>
<path d="M10.5436 11.3845L10.2856 11.4816L10.4485 11.5874L10.62 11.4088L10.5436 11.3845Z" fill="#FE7300"/>
<path d="M10.2852 11.4818L10.2847 11.4823L10.1593 11.5824L9.96045 11.4003V11.3998L10.0252 11.3816L10.2498 11.4681L10.2847 11.4812L10.2852 11.4818Z" fill="#FE7300"/>
<path d="M10.6216 11.4083L10.6211 11.4088L10.4101 11.5823L10.2847 11.4822L10.2842 11.4816L10.2847 11.4811L10.3191 11.4685L10.5432 11.3845L10.6216 11.4083Z" fill="#FE7300"/>
<path d="M10.0381 10.6171C10.1034 10.6656 10.2051 10.6489 10.1631 10.6044C10.2597 10.652 10.3978 10.6727 10.501 10.6454C10.5501 10.6322 10.5986 10.6095 10.6305 10.568C10.6624 10.5265 10.6558 10.4638 10.627 10.4198C10.5981 10.3758 10.542 10.3646 10.4919 10.3596C10.5157 10.3545 10.5288 10.35 10.5319 10.3348C10.5349 10.3196 10.5207 10.3004 10.4626 10.2999C10.3801 10.2994 10.2982 10.3297 10.2304 10.3793C10.2784 10.3292 10.2794 10.2958 10.2627 10.2898C10.2552 10.2872 10.2476 10.2903 10.24 10.2933C10.195 10.314 10.156 10.35 10.1297 10.394C9.93747 10.3656 9.93089 10.5129 9.92431 10.5822C9.91774 10.6515 9.97996 10.7921 9.99412 10.7638C10.0219 10.7066 10.0381 10.6747 10.0381 10.6171Z" fill="#FE7300"/>
<path d="M29.5495 13.4779H24.3081C24.084 13.4779 23.9023 13.2963 23.9023 13.0722V9.07979C23.9023 8.85568 24.084 8.67407 24.3081 8.67407H29.5495C29.7736 8.67407 29.9552 8.85568 29.9552 9.07979V13.0722C29.9552 13.2963 29.7736 13.4779 29.5495 13.4779Z" fill="#C5E2FB"/>
<path d="M26.2307 13.1035H24.4708C24.3995 13.1035 24.3418 13.0458 24.3418 12.9745V12.2303C24.3418 12.159 24.3995 12.1013 24.4708 12.1013H26.2307C26.3021 12.1013 26.3597 12.159 26.3597 12.2303V12.975C26.3597 13.0458 26.3016 13.1035 26.2307 13.1035Z" fill="#C5E2FB"/>
<g opacity="0.45">
<path opacity="0.45" d="M27.3194 9.46009H24.4308C24.3813 9.46009 24.3413 9.42012 24.3413 9.37055C24.3413 9.32097 24.3813 9.28101 24.4308 9.28101H27.3194C27.369 9.28101 27.409 9.32097 27.409 9.37055C27.4095 9.41962 27.369 9.46009 27.3194 9.46009Z" fill="#3B47BD"/>
<path opacity="0.45" d="M27.3189 9.83094H24.4304C24.3808 9.83094 24.3408 9.79097 24.3408 9.7414C24.3408 9.69182 24.3808 9.65186 24.4304 9.65186H27.3189C27.3685 9.65186 27.4085 9.69182 27.4085 9.7414C27.409 9.79047 27.3685 9.83094 27.3189 9.83094Z" fill="#3B47BD"/>
<path opacity="0.45" d="M27.3189 10.2018H24.4304C24.3808 10.2018 24.3408 10.1618 24.3408 10.1122C24.3408 10.0627 24.3808 10.0227 24.4304 10.0227H27.3189C27.3685 10.0227 27.4085 10.0627 27.4085 10.1122C27.409 10.1618 27.3685 10.2018 27.3189 10.2018Z" fill="#3B47BD"/>
<path opacity="0.45" d="M27.3189 10.5724H24.4304C24.3808 10.5724 24.3408 10.5324 24.3408 10.4829C24.3408 10.4333 24.3808 10.3933 24.4304 10.3933H27.3189C27.3685 10.3933 27.4085 10.4333 27.4085 10.4829C27.409 10.5324 27.3685 10.5724 27.3189 10.5724Z" fill="#3B47BD"/>
<path opacity="0.45" d="M27.3189 10.9435H24.4304C24.3808 10.9435 24.3408 10.9035 24.3408 10.8539C24.3408 10.8044 24.3808 10.7644 24.4304 10.7644H27.3189C27.3685 10.7644 27.4085 10.8044 27.4085 10.8539C27.409 10.9035 27.3685 10.9435 27.3189 10.9435Z" fill="#3B47BD"/>
<path opacity="0.45" d="M26.8677 11.2555H24.4304C24.3808 11.2555 24.3408 11.2155 24.3408 11.166C24.3408 11.1164 24.3808 11.0764 24.4304 11.0764H26.8677C26.9173 11.0764 26.9572 11.1164 26.9572 11.166C26.9572 11.2155 26.9173 11.2555 26.8677 11.2555Z" fill="#3B47BD"/>
</g>
<path d="M27.9723 12.8826L28.0082 12.9554L28.0887 12.967L28.0305 13.0237L28.0441 13.1036L27.9723 13.0657L27.9005 13.1036L27.9141 13.0237L27.856 12.967L27.9364 12.9554L27.9723 12.8826Z" fill="white"/>
<path d="M28.3288 12.8826L28.3647 12.9554L28.4451 12.967L28.3869 13.0237L28.4006 13.1036L28.3288 13.0657L28.2569 13.1036L28.2706 13.0237L28.2124 12.967L28.2928 12.9554L28.3288 12.8826Z" fill="white"/>
<path d="M28.6847 12.8826L28.7206 12.9554L28.8006 12.967L28.7429 13.0237L28.7565 13.1036L28.6847 13.0657L28.6129 13.1036L28.6265 13.0237L28.5684 12.967L28.6488 12.9554L28.6847 12.8826Z" fill="white"/>
<path d="M29.0412 12.8826L29.0771 12.9554L29.1575 12.967L29.0993 13.0237L29.113 13.1036L29.0412 13.0657L28.9693 13.1036L28.983 13.0237L28.9248 12.967L29.0052 12.9554L29.0412 12.8826Z" fill="white"/>
<path d="M29.3976 12.8826L29.4335 12.9554L29.5139 12.967L29.4558 13.0237L29.4699 13.1036L29.3976 13.0657L29.3257 13.1036L29.3399 13.0237L29.2817 12.967L29.3617 12.9554L29.3976 12.8826Z" fill="white"/>
<path d="M29.5417 11.3141H27.8916C27.7919 11.3141 27.71 11.2327 27.71 11.1325V9.46213C27.71 9.36247 27.7914 9.28052 27.8916 9.28052H29.5417C29.6414 9.28052 29.7234 9.36196 29.7234 9.46213V11.133C29.7234 11.2327 29.6419 11.3141 29.5417 11.3141Z" fill="white"/>
<path d="M29.3476 9.92736C29.1979 9.78116 28.9586 9.78369 28.8124 9.93293L28.7158 10.0316L28.6167 9.93394C28.4679 9.78723 28.2281 9.78926 28.0814 9.93799C27.9347 10.0867 27.9368 10.3265 28.0855 10.4732L28.4538 10.8359C28.4548 10.8369 28.4553 10.8374 28.4558 10.8384C28.5145 10.8961 28.5873 10.9305 28.6627 10.9422C28.779 10.9599 28.902 10.9234 28.991 10.8329L29.3532 10.4631C29.4994 10.3128 29.4969 10.0736 29.3476 9.92736Z" fill="#F7392F"/>
<path d="M24.5518 12.6352H24.8942L25.2504 12.2026V13.0024L25.3647 12.6023H25.5645L25.7785 12.3109V12.6023H26.1918" stroke="white" stroke-width="0.124254" stroke-miterlimit="10" stroke-linecap="round" stroke-linejoin="round"/>
<path d="M15.9931 14.1768C16.0691 14.1768 16.1307 14.1152 16.1307 14.0392C16.1307 13.9632 16.0691 13.9016 15.9931 13.9016C15.9171 13.9016 15.8555 13.9632 15.8555 14.0392C15.8555 14.1152 15.9171 14.1768 15.9931 14.1768Z" fill="#3B47BD"/>
<path d="M4.62772 24.3638C4.68639 24.3638 4.73395 24.3163 4.73395 24.2576C4.73395 24.1989 4.68639 24.1514 4.62772 24.1514C4.56905 24.1514 4.52148 24.1989 4.52148 24.2576C4.52148 24.3163 4.56905 24.3638 4.62772 24.3638Z" fill="#3B47BD"/>
<path d="M26.5365 19.5192C26.5365 19.6148 26.4591 19.6922 26.3634 19.6922C26.2678 19.6922 26.1904 19.6148 26.1904 19.5192C26.1904 19.4236 26.2678 19.3462 26.3634 19.3462C26.4591 19.3462 26.5365 19.4236 26.5365 19.5192Z" fill="#3B47BD"/>
<path d="M23.1002 16.2219C23.1561 16.2219 23.2014 16.1766 23.2014 16.1207C23.2014 16.0648 23.1561 16.0195 23.1002 16.0195C23.0443 16.0195 22.999 16.0648 22.999 16.1207C22.999 16.1766 23.0443 16.2219 23.1002 16.2219Z" fill="#3B47BD"/>
<path d="M4.99043 18.6673C4.99043 18.7194 4.94844 18.7614 4.89634 18.7614C4.84423 18.7614 4.80225 18.7194 4.80225 18.6673C4.80225 18.6152 4.84423 18.5732 4.89634 18.5732C4.94844 18.5732 4.99043 18.6152 4.99043 18.6673Z" fill="white"/>
<path d="M1.37241 17.8083C1.42438 17.8083 1.46651 17.7662 1.46651 17.7142C1.46651 17.6622 1.42438 17.6201 1.37241 17.6201C1.32045 17.6201 1.27832 17.6622 1.27832 17.7142C1.27832 17.7662 1.32045 17.8083 1.37241 17.8083Z" fill="#9FC6FF"/>
<path d="M2.36753 24.7565C2.4195 24.7565 2.46162 24.7144 2.46162 24.6625C2.46162 24.6105 2.4195 24.5684 2.36753 24.5684C2.31556 24.5684 2.27344 24.6105 2.27344 24.6625C2.27344 24.7144 2.31556 24.7565 2.36753 24.7565Z" fill="#9FC6FF"/>
<path d="M33.7707 23.933C33.7707 23.9851 33.7287 24.0271 33.6766 24.0271C33.6245 24.0271 33.5825 23.9851 33.5825 23.933C33.5825 23.8809 33.6245 23.8389 33.6766 23.8389C33.7287 23.8389 33.7707 23.8809 33.7707 23.933Z" fill="#9FC6FF"/>
<path d="M25.8998 22.8593C25.9517 22.8593 25.9939 22.8172 25.9939 22.7652C25.9939 22.7133 25.9517 22.6711 25.8998 22.6711C25.8478 22.6711 25.8057 22.7133 25.8057 22.7652C25.8057 22.8172 25.8478 22.8593 25.8998 22.8593Z" fill="#82B4FC"/>
<path d="M29.1726 24.266C29.1726 24.3419 29.1114 24.4031 29.0355 24.4031C28.9596 24.4031 28.8984 24.3419 28.8984 24.266C28.8984 24.1901 28.9596 24.1289 29.0355 24.1289C29.1114 24.1289 29.1726 24.1906 29.1726 24.266Z" fill="#3B47BD"/>
<path d="M25.7695 14.4209C25.7695 14.4983 25.7068 14.5615 25.6289 14.5615C25.5515 14.5615 25.4883 14.4988 25.4883 14.4209C25.4883 14.343 25.551 14.2803 25.6289 14.2803C25.7068 14.2803 25.7695 14.343 25.7695 14.4209Z" fill="white"/>
<path d="M26.2198 25.4207C26.2198 25.4718 26.1783 25.5133 26.1272 25.5133C26.0762 25.5133 26.0347 25.4718 26.0347 25.4207C26.0347 25.3696 26.0762 25.3281 26.1272 25.3281C26.1783 25.3276 26.2198 25.3691 26.2198 25.4207Z" fill="white"/>
<path d="M23.9029 8.2129C23.9029 8.2903 23.8401 8.35353 23.7622 8.35353C23.6848 8.35353 23.6216 8.2908 23.6216 8.2129C23.6216 8.13499 23.6843 8.07227 23.7622 8.07227C23.8401 8.07227 23.9029 8.13499 23.9029 8.2129Z" fill="white"/>
<path d="M16.7066 17.1526C16.7066 17.23 16.6438 17.2932 16.5659 17.2932C16.4885 17.2932 16.4253 17.2305 16.4253 17.1526C16.4253 17.0747 16.488 17.012 16.5659 17.012C16.6438 17.012 16.7066 17.0752 16.7066 17.1526Z" fill="white"/>
<path d="M31.0987 14.2747C31.0987 14.3521 31.0359 14.4153 30.958 14.4153C30.8806 14.4153 30.8174 14.3526 30.8174 14.2747C30.8174 14.1968 30.8801 14.134 30.958 14.134C31.0359 14.134 31.0987 14.1973 31.0987 14.2747Z" fill="#9FC6FF"/>
<path d="M20.8662 6.03761C20.8662 6.11501 20.8035 6.17824 20.7256 6.17824C20.6482 6.17824 20.585 6.11551 20.585 6.03761C20.585 5.9597 20.6477 5.89697 20.7256 5.89697C20.803 5.89697 20.8662 5.9597 20.8662 6.03761Z" fill="#9FC6FF"/>
<path d="M34.2862 18.6211C34.2862 18.6985 34.2234 18.7617 34.1455 18.7617C34.0676 18.7617 34.0049 18.699 34.0049 18.6211C34.0049 18.5432 34.0676 18.4805 34.1455 18.4805C34.2234 18.4805 34.2862 18.5432 34.2862 18.6211Z" fill="#9FC6FF"/>
<path d="M13.3501 7.81104C13.3501 7.88844 13.2874 7.95168 13.2095 7.95168C13.1316 7.95168 13.0688 7.88895 13.0688 7.81104C13.0688 7.73314 13.1316 7.67041 13.2095 7.67041C13.2874 7.67041 13.3501 7.73314 13.3501 7.81104Z" fill="#9FC6FF"/>
<path d="M5.4131 12.2351C5.4131 12.3125 5.35038 12.3758 5.27247 12.3758C5.19456 12.3758 5.13184 12.313 5.13184 12.2351C5.13184 12.1572 5.19456 12.0945 5.27247 12.0945C5.35038 12.0945 5.4131 12.1577 5.4131 12.2351Z" fill="#9FC6FF"/>
<path d="M12.3043 20.9039C12.3532 20.9039 12.3929 20.8642 12.3929 20.8153C12.3929 20.7664 12.3532 20.7268 12.3043 20.7268C12.2555 20.7268 12.2158 20.7664 12.2158 20.8153C12.2158 20.8642 12.2555 20.9039 12.3043 20.9039Z" fill="white"/>
<path d="M3.43898 21.0779C3.43898 21.1553 3.37625 21.2185 3.29835 21.2185C3.22044 21.2185 3.15771 21.1558 3.15771 21.0779C3.15771 21.0005 3.22044 20.9373 3.29835 20.9373C3.37625 20.9373 3.43898 21 3.43898 21.0779Z" fill="#82B4FC"/>
<path d="M11.3394 17.4775V17.772" stroke="white" stroke-width="0.127051" stroke-miterlimit="10" stroke-linecap="round"/>
<path d="M11.4863 17.6248H11.1919" stroke="white" stroke-width="0.127051" stroke-miterlimit="10" stroke-linecap="round"/>
<path d="M30.2134 21.3086V21.6288" stroke="white" stroke-width="0.13816" stroke-miterlimit="10" stroke-linecap="round"/>
<path d="M30.3725 21.469H30.0522" stroke="white" stroke-width="0.13816" stroke-miterlimit="10" stroke-linecap="round"/>
<path d="M18.8306 9.30615V9.56971" stroke="white" stroke-width="0.113645" stroke-miterlimit="10" stroke-linecap="round"/>
<path d="M18.9623 9.43823H18.6987" stroke="white" stroke-width="0.113645" stroke-miterlimit="10" stroke-linecap="round"/>
<path d="M7.31928 20.2179C7.76797 20.2179 8.13172 19.8542 8.13172 19.4055C8.13172 18.9568 7.76797 18.593 7.31928 18.593C6.87058 18.593 6.50684 18.9568 6.50684 19.4055C6.50684 19.8542 6.87058 20.2179 7.31928 20.2179Z" fill="#C5E2FB"/>
<path d="M7.1017 19.0618C7.10272 19.0563 7.10474 19.0507 7.10676 19.0451C7.10879 19.0396 7.11081 19.034 7.11334 19.0285C7.11587 19.0234 7.1184 19.0183 7.12093 19.0133C7.12295 19.0097 7.12548 19.0057 7.1275 19.0027C7.14217 18.9819 7.15937 18.9844 7.1786 18.9688C7.19023 18.9597 7.20187 18.9506 7.21603 18.9465C7.22969 18.9425 7.24638 18.9445 7.2565 18.9556L7.34402 18.9733L7.43154 18.9556C7.44165 18.9445 7.45784 18.9425 7.47201 18.9465C7.48566 18.9506 7.49781 18.9597 7.50944 18.9688C7.52917 18.9844 7.54586 18.9819 7.56053 19.0027C7.56306 19.0062 7.56509 19.0097 7.56711 19.0133C7.56964 19.0183 7.57268 19.0234 7.5747 19.0285C7.57723 19.034 7.57925 19.0396 7.58128 19.0451C7.5833 19.0507 7.58482 19.0563 7.58633 19.0618C7.58735 19.0669 7.58836 19.072 7.58836 19.0765C7.58836 19.0785 7.58836 19.0806 7.58785 19.0826C7.58735 19.0846 7.58684 19.0902 7.5838 19.0892C7.58229 19.0887 7.58128 19.0881 7.58026 19.0866C7.57925 19.0856 7.57875 19.0846 7.57824 19.0831C7.57773 19.0826 7.57773 19.0821 7.57723 19.0811C7.57723 19.0806 7.57672 19.0795 7.57672 19.079C7.58229 19.1114 7.57875 19.1458 7.5661 19.1762C7.56306 19.1838 7.55952 19.1908 7.55345 19.1959C7.54738 19.201 7.53929 19.2035 7.53221 19.1999C7.5317 19.1999 7.5317 19.1994 7.53119 19.1994C7.53018 19.1999 7.52866 19.2005 7.52765 19.201C7.51956 19.2035 7.51501 19.2121 7.50792 19.2177C7.50438 19.2207 7.50084 19.2232 7.49679 19.2252C7.49376 19.2268 7.48819 19.2283 7.48566 19.2308C7.49072 19.2252 7.48769 19.2151 7.48162 19.2111C7.47555 19.207 7.46745 19.208 7.46088 19.2106C7.4543 19.2131 7.44772 19.2171 7.44064 19.2192C7.43305 19.2212 7.42547 19.2212 7.41737 19.2202C7.40321 19.2222 7.38854 19.2212 7.37437 19.2197C7.36375 19.2182 7.35363 19.2166 7.34301 19.2151C7.33238 19.2166 7.32227 19.2182 7.31164 19.2197C7.29748 19.2217 7.28281 19.2222 7.26864 19.2202C7.26105 19.2212 7.25296 19.2217 7.24537 19.2192C7.23829 19.2171 7.23222 19.2131 7.22514 19.2106C7.21856 19.208 7.21047 19.207 7.2044 19.2111C7.19833 19.2151 7.19529 19.2252 7.20035 19.2308C7.19833 19.2283 7.19226 19.2273 7.18922 19.2252C7.18517 19.2227 7.18163 19.2202 7.17809 19.2177C7.17101 19.2121 7.16646 19.2035 7.15836 19.201C7.15735 19.2005 7.15583 19.1999 7.15482 19.1994C7.15431 19.1994 7.15431 19.1999 7.15381 19.1999C7.14723 19.2035 7.13863 19.201 7.13256 19.1959C7.12649 19.1908 7.12295 19.1833 7.11992 19.1762C7.10777 19.1458 7.10373 19.1114 7.10929 19.079C7.10929 19.0795 7.10879 19.0806 7.10879 19.0811C7.10828 19.0821 7.10828 19.0826 7.10777 19.0831C7.10727 19.0846 7.10676 19.0856 7.10575 19.0866C7.10474 19.0876 7.10373 19.0887 7.10221 19.0892C7.09917 19.0897 7.09867 19.0841 7.09816 19.0826C7.09766 19.0806 7.09766 19.0785 7.09766 19.0765C7.10019 19.0715 7.10069 19.0664 7.1017 19.0618Z" fill="white"/>
<path d="M7.1084 19.5545L7.33958 19.6299L7.55762 19.5474C7.55762 19.5474 7.45695 19.509 7.45442 19.508C7.45189 19.5009 7.44734 19.4801 7.44734 19.424C7.44734 19.4164 7.44734 19.4078 7.44784 19.3982H7.23234C7.23284 19.4113 7.23284 19.4235 7.23234 19.4336C7.23183 19.4827 7.22728 19.5014 7.22526 19.508C7.22172 19.509 7.1084 19.5545 7.1084 19.5545Z" fill="white"/>
<path d="M7.15069 19.1853C7.15069 19.1853 7.11579 19.1707 7.09555 19.198C7.07532 19.2253 7.11579 19.3128 7.18408 19.2845L7.15069 19.1853Z" fill="white"/>
<path d="M7.15069 19.1853C7.15069 19.1853 7.11579 19.1707 7.09555 19.198C7.07532 19.2253 7.11579 19.3128 7.18408 19.2845L7.15069 19.1853Z" fill="white"/>
<path d="M7.52958 19.1879C7.52958 19.1879 7.56246 19.1692 7.58574 19.194C7.60901 19.2188 7.57916 19.3103 7.50732 19.2901L7.52958 19.1879Z" fill="white"/>
<path d="M7.52958 19.1879C7.52958 19.1879 7.56246 19.1692 7.58574 19.194C7.60901 19.2188 7.57916 19.3103 7.50732 19.2901L7.52958 19.1879Z" fill="white"/>
<path opacity="0.25" d="M7.23242 19.4336C7.25974 19.4609 7.29363 19.4792 7.3336 19.4792C7.37963 19.4792 7.41757 19.4564 7.44742 19.4235C7.44742 19.4159 7.44742 19.4073 7.44793 19.3977H7.23242C7.23242 19.4119 7.23242 19.4235 7.23242 19.4336Z" fill="white"/>
<path d="M7.14998 19.0415C7.18084 18.909 7.34171 18.9302 7.34171 18.9302C7.34171 18.9302 7.50208 18.909 7.53344 19.0415C7.53344 19.0415 7.55013 19.1948 7.52585 19.2772C7.50157 19.3597 7.44086 19.4649 7.34171 19.4649C7.24256 19.4649 7.18337 19.3536 7.15909 19.2712C7.13531 19.1887 7.14998 19.0415 7.14998 19.0415Z" fill="white"/>
<path opacity="0.25" d="M7.50151 19.5256L7.34368 19.5616C7.34368 19.5616 7.23845 19.553 7.17724 19.5277C7.14537 19.5626 7.13525 19.5727 7.13525 19.5727L7.30877 19.6627L7.4236 19.6582L7.54754 19.559L7.50151 19.5256Z" fill="white"/>
<path d="M7.87183 19.8145C7.86323 19.8262 7.85463 19.8373 7.84552 19.8479C7.71906 19.9982 7.53036 20.0928 7.31941 20.0928C7.12263 20.0928 6.94506 20.0103 6.8196 19.8773C6.81202 19.8697 6.80493 19.8611 6.79785 19.8535C6.80797 19.8251 6.8191 19.7948 6.82972 19.7624C6.84844 19.6896 6.87272 19.6486 6.89245 19.6258C6.91218 19.6031 6.92786 19.5985 6.92786 19.5985L7.12819 19.5419L7.13831 19.5388L7.16613 19.5312H7.16664L7.17625 19.5282H7.17675L7.17777 19.5277L7.18232 19.5312C7.22279 19.5596 7.26933 19.5758 7.31688 19.5793H7.31789L7.33914 19.5874H7.33965L7.36089 19.5788H7.36191C7.41148 19.5747 7.46005 19.5565 7.50153 19.5252V19.5247H7.50203L7.5425 19.5363L7.75902 19.5985L7.75851 19.599C7.76813 19.6026 7.82124 19.6289 7.85412 19.7624C7.8607 19.7816 7.86627 19.7993 7.87183 19.8145Z" fill="white"/>
<path d="M7.50127 19.5256L7.33838 19.5884L7.43298 19.6577L7.53972 19.5393L7.50127 19.5256Z" fill="white"/>
<path d="M7.17695 19.5271L7.33883 19.5883L7.23715 19.6546L7.12939 19.5428L7.17695 19.5271Z" fill="white"/>
<path d="M7.33838 19.5884H7.33888L7.4173 19.6516L7.54174 19.5373L7.54225 19.5368L7.50127 19.5256L7.36064 19.5798L7.33888 19.5879L7.33838 19.5884Z" fill="white"/>
<path d="M7.12793 19.5423H7.12844L7.26047 19.6515L7.33939 19.5883V19.5878L7.31763 19.5797L7.177 19.5271L7.12793 19.5423Z" fill="white"/>
<path d="M7.4943 19.0463C7.45332 19.0767 7.38958 19.0665 7.41588 19.0382C7.35569 19.0681 7.26867 19.0812 7.20392 19.064C7.17357 19.0559 7.14271 19.0418 7.12298 19.0154C7.10325 18.9896 7.1073 18.9502 7.125 18.9229C7.14322 18.8956 7.17812 18.8885 7.20949 18.8849C7.19431 18.8819 7.18622 18.8789 7.18419 18.8692C7.18217 18.8596 7.19077 18.8475 7.2277 18.8475C7.2793 18.847 7.3309 18.8662 7.37339 18.8976C7.34354 18.8662 7.34253 18.845 7.35316 18.8414C7.35771 18.8399 7.36277 18.8414 7.36732 18.844C7.39565 18.8571 7.41993 18.8794 7.43663 18.9072C7.55753 18.8895 7.56158 18.9816 7.56562 19.0251C7.56967 19.0686 7.53072 19.1566 7.52212 19.1389C7.50391 19.1025 7.49379 19.0827 7.4943 19.0463Z" fill="white"/>
<path opacity="0.45" d="M8.47656 19.22H9.16203" stroke="#3B47BD" stroke-width="0.101176" stroke-miterlimit="10" stroke-linecap="round" stroke-linejoin="round"/>
<path d="M8.47656 19.5212H9.16203" stroke="#C5E2FB" stroke-width="0.0822355" stroke-miterlimit="10" stroke-linecap="round"/>
<path d="M8.47656 19.6721H9.16203" stroke="#C5E2FB" stroke-width="0.0822355" stroke-miterlimit="10" stroke-linecap="round"/>
<path d="M7.38471 18.0714C7.8334 18.0714 8.19715 17.7077 8.19715 17.259C8.19715 16.8103 7.8334 16.4465 7.38471 16.4465C6.93601 16.4465 6.57227 16.8103 6.57227 17.259C6.57227 17.7077 6.93601 18.0714 7.38471 18.0714Z" fill="#C5E2FB"/>
<path d="M7.16713 16.9154C7.16814 16.9098 7.17017 16.9042 7.17219 16.8987C7.17422 16.8931 7.17624 16.8875 7.17877 16.882C7.1813 16.8769 7.18383 16.8719 7.18636 16.8668C7.18838 16.8633 7.19091 16.8592 7.19293 16.8562C7.2076 16.8354 7.2248 16.838 7.24403 16.8223C7.25566 16.8132 7.2673 16.8041 7.28146 16.8C7.29512 16.796 7.31181 16.798 7.32193 16.8091L7.40945 16.8268L7.49697 16.8091C7.50708 16.798 7.52327 16.796 7.53744 16.8C7.55109 16.8041 7.56324 16.8132 7.57487 16.8223C7.5946 16.838 7.61129 16.8354 7.62596 16.8562C7.62849 16.8597 7.63052 16.8633 7.63254 16.8668C7.63558 16.8719 7.63811 16.8769 7.64013 16.882C7.64266 16.8875 7.64468 16.8931 7.64671 16.8987C7.64873 16.9042 7.65025 16.9098 7.65176 16.9154C7.65278 16.9204 7.65379 16.9255 7.65379 16.93C7.65379 16.9321 7.65379 16.9341 7.65328 16.9361C7.65278 16.9381 7.65227 16.9437 7.64923 16.9427C7.64772 16.9422 7.64671 16.9417 7.64569 16.9401C7.64468 16.9391 7.64418 16.9381 7.64367 16.9366C7.64316 16.9361 7.64316 16.9356 7.64266 16.9346C7.64266 16.9341 7.64215 16.9331 7.64215 16.9326C7.64772 16.9649 7.64418 16.9993 7.63153 17.0297C7.62849 17.0373 7.62495 17.0444 7.61888 17.0494C7.61281 17.0545 7.60472 17.057 7.59764 17.0535C7.59713 17.0535 7.59713 17.053 7.59662 17.053C7.59561 17.0535 7.59409 17.054 7.59308 17.0545C7.58499 17.057 7.58044 17.0656 7.57335 17.0712C7.56981 17.0742 7.56627 17.0767 7.56222 17.0788C7.55919 17.0803 7.55362 17.0818 7.55109 17.0843C7.55615 17.0788 7.55312 17.0686 7.54705 17.0646C7.54098 17.0605 7.53288 17.0616 7.52631 17.0641C7.51973 17.0666 7.51315 17.0707 7.50607 17.0727C7.49848 17.0747 7.49089 17.0747 7.4828 17.0737C7.46864 17.0757 7.45397 17.0747 7.4398 17.0732C7.42918 17.0717 7.41906 17.0702 7.40844 17.0686C7.39781 17.0702 7.3877 17.0717 7.37707 17.0732C7.36291 17.0752 7.34824 17.0757 7.33407 17.0737C7.32648 17.0747 7.31839 17.0752 7.3108 17.0727C7.30372 17.0707 7.29765 17.0666 7.29057 17.0641C7.28399 17.0616 7.2759 17.0605 7.26983 17.0646C7.26376 17.0686 7.26072 17.0788 7.26578 17.0843C7.26376 17.0818 7.25768 17.0808 7.25465 17.0788C7.2506 17.0762 7.24706 17.0737 7.24352 17.0712C7.23644 17.0656 7.23189 17.057 7.22379 17.0545C7.22278 17.054 7.22126 17.0535 7.22025 17.053C7.21974 17.053 7.21974 17.0535 7.21924 17.0535C7.21266 17.057 7.20406 17.0545 7.19799 17.0494C7.19192 17.0444 7.18838 17.0368 7.18534 17.0297C7.1732 16.9993 7.16916 16.9649 7.17472 16.9326C7.17472 16.9331 7.17422 16.9341 7.17422 16.9346C7.17371 16.9356 7.17371 16.9361 7.1732 16.9366C7.1727 16.9381 7.17219 16.9391 7.17118 16.9401C7.17017 16.9412 7.16916 16.9422 7.16764 16.9427C7.1646 16.9432 7.1641 16.9376 7.16359 16.9361C7.16309 16.9341 7.16309 16.9321 7.16309 16.93C7.16511 16.9255 7.16612 16.9204 7.16713 16.9154Z" fill="white"/>
<path d="M7.17285 17.4088L7.40404 17.4841L7.62207 17.4017C7.62207 17.4017 7.5214 17.3632 7.51887 17.3622C7.51634 17.3551 7.51179 17.3344 7.51179 17.2782C7.51179 17.2707 7.51179 17.2621 7.5123 17.2524H7.29679C7.2973 17.2656 7.2973 17.2777 7.29679 17.2879C7.29629 17.3369 7.29173 17.3556 7.28971 17.3622C7.28667 17.3627 7.17285 17.4088 7.17285 17.4088Z" fill="white"/>
<path d="M7.21515 17.0393C7.21515 17.0393 7.18024 17.0247 7.16001 17.052C7.13977 17.0793 7.18024 17.1668 7.24854 17.1385L7.21515 17.0393Z" fill="white"/>
<path d="M7.21515 17.0393C7.21515 17.0393 7.18024 17.0247 7.16001 17.052C7.13977 17.0793 7.18024 17.1668 7.24854 17.1385L7.21515 17.0393Z" fill="white"/>
<path d="M7.59404 17.0422C7.59404 17.0422 7.62692 17.0235 7.65019 17.0482C7.67346 17.073 7.64361 17.1646 7.57178 17.1444L7.59404 17.0422Z" fill="white"/>
<path d="M7.59404 17.0422C7.59404 17.0422 7.62692 17.0235 7.65019 17.0482C7.67346 17.073 7.64361 17.1646 7.57178 17.1444L7.59404 17.0422Z" fill="white"/>
<path opacity="0.25" d="M7.29688 17.2879C7.32419 17.3152 7.35809 17.3334 7.39805 17.3334C7.44409 17.3334 7.48203 17.3106 7.51187 17.2778C7.51187 17.2702 7.51187 17.2616 7.51238 17.252H7.29688C7.29688 17.2656 7.29738 17.2772 7.29688 17.2879Z" fill="white"/>
<path d="M7.21269 16.8953C7.24355 16.7627 7.40442 16.784 7.40442 16.784C7.40442 16.784 7.56478 16.7627 7.59615 16.8953C7.59615 16.8953 7.61284 17.0485 7.58856 17.131C7.56428 17.2135 7.50357 17.3187 7.40442 17.3187C7.30527 17.3187 7.24608 17.2074 7.2218 17.1249C7.19752 17.0425 7.21269 16.8953 7.21269 16.8953Z" fill="white"/>
<path opacity="0.25" d="M7.56694 17.3792L7.40911 17.4151C7.40911 17.4151 7.30388 17.4065 7.24267 17.3812C7.2108 17.4161 7.20068 17.4262 7.20068 17.4262L7.3742 17.5162L7.48903 17.5117L7.61297 17.4125L7.56694 17.3792Z" fill="white"/>
<path d="M7.93677 17.6688C7.92817 17.6804 7.91957 17.6915 7.91047 17.7022C7.784 17.8524 7.5953 17.947 7.38435 17.947C7.18757 17.947 7.01 17.8645 6.88455 17.7315C6.87696 17.7239 6.86988 17.7153 6.86279 17.7077C6.87291 17.6794 6.88404 17.649 6.89466 17.6167C6.91338 17.5438 6.93766 17.5028 6.95739 17.4801C6.97712 17.4573 6.9928 17.4528 6.9928 17.4528L7.19313 17.3961L7.20325 17.3931L7.23107 17.3855H7.23158L7.24119 17.3824H7.2417L7.24271 17.3819L7.24726 17.3855C7.28773 17.4138 7.33427 17.43 7.38182 17.4335H7.38284L7.40408 17.4416H7.40459L7.42584 17.433H7.42685C7.47642 17.429 7.52499 17.4108 7.56647 17.3794V17.3789H7.56698L7.60745 17.3905L7.82396 17.4528L7.82346 17.4533C7.83307 17.4568 7.88618 17.4831 7.91907 17.6167C7.92564 17.6359 7.93121 17.6531 7.93677 17.6688Z" fill="white"/>
<path d="M7.5667 17.3792L7.40381 17.4419L7.49841 17.5112L7.60464 17.3933L7.5667 17.3792Z" fill="white"/>
<path d="M7.24189 17.3811L7.40377 17.4418L7.30158 17.5081L7.19434 17.3963L7.24189 17.3811Z" fill="white"/>
<path d="M7.40381 17.4419L7.40431 17.4424L7.48273 17.5051L7.60717 17.3908L7.5667 17.3792L7.42607 17.4333L7.40431 17.4419H7.40381Z" fill="white"/>
<path d="M7.19287 17.3958V17.3963L7.32541 17.505L7.40433 17.4423V17.4418L7.38258 17.4337L7.24194 17.3811L7.19287 17.3958Z" fill="white"/>
<path d="M7.55875 16.9003C7.51777 16.9307 7.45403 16.9205 7.48034 16.8922C7.42014 16.9221 7.33313 16.9352 7.26837 16.918C7.23802 16.9099 7.20716 16.8958 7.18743 16.8695C7.16771 16.8437 7.17175 16.8042 7.18946 16.7769C7.20767 16.7496 7.24258 16.7425 7.27394 16.7389C7.25876 16.7359 7.25067 16.7329 7.24865 16.7233C7.24662 16.7136 7.25522 16.7015 7.29215 16.7015C7.34375 16.701 7.39535 16.7202 7.43784 16.7516C7.408 16.7202 7.40699 16.699 7.41761 16.6954C7.42216 16.6939 7.42722 16.6954 7.43177 16.698C7.4601 16.7111 7.48438 16.7334 7.50108 16.7612C7.62198 16.7435 7.62603 16.8356 7.63008 16.8791C7.63412 16.9226 7.59517 17.0106 7.58657 16.9929C7.56836 16.9565 7.55824 16.9362 7.55875 16.9003Z" fill="white"/>
<path opacity="0.45" d="M8.54102 17.0911H9.51433" stroke="#3B47BD" stroke-width="0.101176" stroke-miterlimit="10" stroke-linecap="round" stroke-linejoin="round"/>
<path d="M8.54102 17.2554H9.22648" stroke="#C5E2FB" stroke-width="0.0822355" stroke-miterlimit="10" stroke-linecap="round"/>
<path d="M7.31976 16.0287C7.76846 16.0287 8.1322 15.6649 8.1322 15.2162C8.1322 14.7676 7.76846 14.4038 7.31976 14.4038C6.87107 14.4038 6.50732 14.7676 6.50732 15.2162C6.50732 15.6649 6.87107 16.0287 7.31976 16.0287Z" fill="#C5E2FB"/>
<path d="M7.1017 14.8726C7.10272 14.8671 7.10474 14.8615 7.10676 14.8559C7.10879 14.8504 7.11081 14.8448 7.11334 14.8392C7.11587 14.8342 7.1184 14.8291 7.12093 14.8241C7.12295 14.8205 7.12548 14.8165 7.1275 14.8134C7.14217 14.7927 7.15937 14.7952 7.1786 14.7796C7.19023 14.7704 7.20187 14.7613 7.21603 14.7573C7.22969 14.7532 7.24638 14.7553 7.2565 14.7664L7.34402 14.7841L7.43154 14.7664C7.44165 14.7553 7.45784 14.7532 7.47201 14.7573C7.48566 14.7613 7.49781 14.7704 7.50944 14.7796C7.52917 14.7952 7.54586 14.7927 7.56053 14.8134C7.56306 14.817 7.56509 14.8205 7.56711 14.8241C7.56964 14.8291 7.57268 14.8342 7.5747 14.8392C7.57723 14.8448 7.57925 14.8504 7.58128 14.8559C7.5833 14.8615 7.58482 14.8671 7.58633 14.8726C7.58735 14.8777 7.58836 14.8828 7.58836 14.8873C7.58836 14.8893 7.58836 14.8914 7.58785 14.8934C7.58735 14.8954 7.58684 14.901 7.5838 14.9C7.58229 14.8994 7.58128 14.8989 7.58026 14.8974C7.57925 14.8964 7.57875 14.8954 7.57824 14.8939C7.57773 14.8934 7.57773 14.8929 7.57723 14.8919C7.57723 14.8914 7.57672 14.8903 7.57672 14.8898C7.58229 14.9222 7.57875 14.9566 7.5661 14.987C7.56306 14.9946 7.55952 15.0016 7.55345 15.0067C7.54738 15.0118 7.53929 15.0143 7.53221 15.0107C7.5317 15.0107 7.5317 15.0102 7.53119 15.0102C7.53018 15.0107 7.52866 15.0112 7.52765 15.0118C7.51956 15.0148 7.51501 15.0229 7.50792 15.0284C7.50438 15.0315 7.50084 15.034 7.49679 15.036C7.49376 15.0376 7.48819 15.0391 7.48566 15.0416C7.49072 15.036 7.48769 15.0259 7.48162 15.0219C7.47555 15.0178 7.46745 15.0188 7.46088 15.0214C7.4543 15.0239 7.44772 15.0279 7.44064 15.03C7.43305 15.032 7.42547 15.032 7.41737 15.031C7.40321 15.033 7.38854 15.032 7.37437 15.0305C7.36375 15.029 7.35363 15.0274 7.34301 15.0259C7.33238 15.0274 7.32227 15.029 7.31164 15.0305C7.29748 15.0325 7.28281 15.033 7.26864 15.031C7.26105 15.032 7.25296 15.0325 7.24537 15.03C7.23829 15.0279 7.23222 15.0239 7.22514 15.0214C7.21856 15.0188 7.21047 15.0178 7.2044 15.0219C7.19833 15.0259 7.19529 15.036 7.20035 15.0416C7.19833 15.0391 7.19226 15.0381 7.18922 15.036C7.18517 15.0335 7.18163 15.031 7.17809 15.0284C7.17101 15.0229 7.16646 15.0143 7.15836 15.0118C7.15735 15.0112 7.15583 15.0107 7.15482 15.0102C7.15431 15.0102 7.15431 15.0107 7.15381 15.0107C7.14723 15.0143 7.13863 15.0118 7.13256 15.0067C7.12649 15.0016 7.12295 14.994 7.11992 14.987C7.10777 14.9566 7.10373 14.9222 7.10929 14.8898C7.10929 14.8903 7.10879 14.8914 7.10879 14.8919C7.10828 14.8929 7.10828 14.8934 7.10777 14.8939C7.10727 14.8954 7.10676 14.8964 7.10575 14.8974C7.10474 14.8984 7.10373 14.8994 7.10221 14.9C7.09917 14.9005 7.09867 14.8949 7.09816 14.8934C7.09766 14.8914 7.09766 14.8893 7.09766 14.8873C7.10019 14.8828 7.10069 14.8777 7.1017 14.8726Z" fill="#FE7300"/>
<path d="M7.1084 15.3658L7.33958 15.4412L7.55762 15.3587C7.55762 15.3587 7.45695 15.3203 7.45442 15.3192C7.45189 15.3122 7.44734 15.2914 7.44734 15.2353C7.44734 15.2277 7.44734 15.2191 7.44784 15.2095H7.23234C7.23284 15.2226 7.23284 15.2348 7.23234 15.2449C7.23183 15.294 7.22728 15.3127 7.22526 15.3192C7.22172 15.3198 7.1084 15.3658 7.1084 15.3658Z" fill="#FCA28D"/>
<path d="M7.15069 14.9966C7.15069 14.9966 7.11579 14.9819 7.09555 15.0093C7.07532 15.0366 7.11579 15.1241 7.18408 15.0958L7.15069 14.9966Z" fill="white"/>
<path d="M7.15069 14.9966C7.15069 14.9966 7.11579 14.9819 7.09555 15.0093C7.07532 15.0366 7.11579 15.1241 7.18408 15.0958L7.15069 14.9966Z" fill="#FEB39C"/>
<path d="M7.52958 14.9992C7.52958 14.9992 7.56246 14.9805 7.58574 15.0053C7.60901 15.0301 7.57916 15.1216 7.50732 15.1014L7.52958 14.9992Z" fill="white"/>
<path d="M7.52958 14.9992C7.52958 14.9992 7.56246 14.9805 7.58574 15.0053C7.60901 15.0301 7.57916 15.1216 7.50732 15.1014L7.52958 14.9992Z" fill="#FEB39C"/>
<path opacity="0.25" d="M7.23242 15.2449C7.25974 15.2722 7.29363 15.2904 7.3336 15.2904C7.37963 15.2904 7.41757 15.2677 7.44742 15.2348C7.44742 15.2272 7.44742 15.2186 7.44793 15.209H7.23242C7.23242 15.2226 7.23242 15.2343 7.23242 15.2449Z" fill="white"/>
<path d="M7.14998 14.8523C7.18084 14.7198 7.34171 14.741 7.34171 14.741C7.34171 14.741 7.50208 14.7198 7.53344 14.8523C7.53344 14.8523 7.55013 15.0056 7.52585 15.088C7.50157 15.1705 7.44086 15.2757 7.34171 15.2757C7.24256 15.2757 7.18337 15.1644 7.15909 15.082C7.13531 14.9995 7.14998 14.8523 7.14998 14.8523Z" fill="#FEB39C"/>
<path opacity="0.25" d="M7.50151 15.3367L7.34368 15.3726C7.34368 15.3726 7.23845 15.364 7.17724 15.3387C7.14537 15.3736 7.13525 15.3837 7.13525 15.3837L7.30877 15.4738L7.4236 15.4692L7.54754 15.3701L7.50151 15.3367Z" fill="white"/>
<path d="M7.87183 15.6261C7.86323 15.6377 7.85463 15.6488 7.84552 15.6594C7.71906 15.8097 7.53036 15.9043 7.31941 15.9043C7.12263 15.9043 6.94506 15.8218 6.8196 15.6888C6.81202 15.6812 6.80493 15.6726 6.79785 15.665C6.80797 15.6367 6.8191 15.6063 6.82972 15.5739C6.84844 15.5011 6.87272 15.4601 6.89245 15.4374C6.91218 15.4146 6.92786 15.41 6.92786 15.41L7.12819 15.3534L7.13831 15.3503L7.16613 15.3428H7.16664L7.17625 15.3397H7.17675L7.17777 15.3392L7.18232 15.3428C7.22279 15.3711 7.26933 15.3873 7.31688 15.3908H7.31789L7.33914 15.3989H7.33965L7.36089 15.3903H7.36191C7.41148 15.3863 7.46005 15.3681 7.50153 15.3367V15.3362H7.50203L7.5425 15.3478L7.75902 15.41L7.75851 15.4105C7.76813 15.4141 7.82124 15.4404 7.85412 15.5739C7.8607 15.5932 7.86627 15.6104 7.87183 15.6261Z" fill="#FE7300"/>
<path d="M7.50127 15.3367L7.33838 15.3994L7.41274 15.4768L7.53972 15.3508L7.50127 15.3367Z" fill="#F95900"/>
<path d="M7.17695 15.3384L7.33883 15.3991L7.26042 15.4729L7.12939 15.3536L7.17695 15.3384Z" fill="#F95900"/>
<path d="M7.33838 15.3994H7.33888L7.4173 15.4626L7.54174 15.3483H7.54225L7.50127 15.3367L7.36064 15.3908L7.33888 15.3994H7.33838Z" fill="white"/>
<path d="M7.12793 15.353H7.12844L7.26047 15.4623L7.33939 15.3991L7.31763 15.391L7.177 15.3384L7.12793 15.353Z" fill="white"/>
<path d="M7.4943 14.8576C7.45332 14.8879 7.38958 14.8778 7.41588 14.8495C7.35569 14.8793 7.26867 14.8925 7.20392 14.8753C7.17357 14.8672 7.14271 14.853 7.12298 14.8267C7.10325 14.8009 7.1073 14.7615 7.125 14.7342C7.14322 14.7068 7.17812 14.6998 7.20949 14.6962C7.19431 14.6932 7.18622 14.6901 7.18419 14.6805C7.18217 14.6709 7.19077 14.6588 7.2277 14.6588C7.2793 14.6583 7.3309 14.6775 7.37339 14.7089C7.34354 14.6775 7.34253 14.6562 7.35316 14.6527C7.35771 14.6512 7.36277 14.6527 7.36732 14.6552C7.39565 14.6684 7.41993 14.6906 7.43663 14.7185C7.55753 14.7008 7.56158 14.7928 7.56562 14.8363C7.56967 14.8798 7.53072 14.9679 7.52212 14.9502C7.50391 14.9132 7.49379 14.8935 7.4943 14.8576Z" fill="#FE7300"/>
<path opacity="0.45" d="M8.47656 14.8662H9.44987" stroke="#3B47BD" stroke-width="0.101176" stroke-miterlimit="10" stroke-linecap="round" stroke-linejoin="round"/>
<path d="M8.47656 15.0305H9.16203" stroke="#C5E2FB" stroke-width="0.0822355" stroke-miterlimit="10" stroke-linecap="round"/>
<path d="M8.47656 15.332H9.16203" stroke="#C5E2FB" stroke-width="0.0822355" stroke-miterlimit="10" stroke-linecap="round"/>
<path d="M8.47656 15.4827H9.16203" stroke="#C5E2FB" stroke-width="0.0822355" stroke-miterlimit="10" stroke-linecap="round"/>
<path d="M8.47656 15.6335H9.44987" stroke="#C5E2FB" stroke-width="0.0822355" stroke-miterlimit="10" stroke-linecap="round"/>
<path d="M30.9872 19.8535H27.7556C27.5735 19.8535 27.4253 19.7058 27.4253 19.5231V15.2368C27.4253 15.0547 27.573 14.9065 27.7556 14.9065H29.986C30.7211 14.9065 31.317 15.5024 31.317 16.2375V19.5226C31.3175 19.7058 31.1693 19.8535 30.9872 19.8535Z" fill="#C5E2FB"/>
<path opacity="0.45" d="M28.2381 15.8088H29.5651C29.6404 15.8088 29.7011 15.7476 29.7011 15.6727C29.7011 15.5973 29.6399 15.5366 29.5651 15.5366H28.2381C28.1628 15.5366 28.1021 15.5978 28.1021 15.6727C28.1021 15.7476 28.1628 15.8088 28.2381 15.8088Z" fill="#3B47BD"/>
<path opacity="0.45" d="M28.2376 16.2155H29.5646C29.6399 16.2155 29.7006 16.1543 29.7006 16.0794C29.7006 16.0041 29.6394 15.9434 29.5646 15.9434H28.2376C28.1623 15.9434 28.1016 16.0046 28.1016 16.0794C28.1016 16.1543 28.1623 16.2155 28.2376 16.2155Z" fill="#3B47BD"/>
<path d="M28.2376 16.622H29.5646C29.6399 16.622 29.7006 16.5608 29.7006 16.4859C29.7006 16.4106 29.6394 16.3499 29.5646 16.3499H28.2376C28.1623 16.3499 28.1016 16.4111 28.1016 16.4859C28.1016 16.5613 28.1623 16.622 28.2376 16.622Z" fill="white"/>
<path d="M28.2376 17.0187H29.5646C29.6399 17.0187 29.7006 16.9575 29.7006 16.8827C29.7006 16.8073 29.6394 16.7466 29.5646 16.7466H28.2376C28.1623 16.7466 28.1016 16.8078 28.1016 16.8827C28.1016 16.9575 28.1623 17.0187 28.2376 17.0187Z" fill="white"/>
<path d="M28.2376 18.0952H28.7653C28.8407 18.0952 28.9014 18.0345 28.9014 17.9591C28.9014 17.8837 28.8401 17.823 28.7653 17.823H28.2376C28.1623 17.823 28.1016 17.8842 28.1016 17.9591C28.1016 18.0345 28.1623 18.0952 28.2376 18.0952Z" fill="white"/>
<path d="M28.2376 18.5378H28.7653C28.8407 18.5378 28.9014 18.4766 28.9014 18.4017C28.9014 18.3263 28.8401 18.2656 28.7653 18.2656H28.2376C28.1623 18.2656 28.1016 18.3268 28.1016 18.4017C28.1016 18.4766 28.1623 18.5378 28.2376 18.5378Z" fill="white"/>
<path d="M28.2376 18.9804H28.7653C28.8407 18.9804 28.9014 18.9192 28.9014 18.8443C28.9014 18.769 28.8401 18.7083 28.7653 18.7083H28.2376C28.1623 18.7083 28.1016 18.7695 28.1016 18.8443C28.1016 18.9192 28.1623 18.9804 28.2376 18.9804Z" fill="white"/>
<path d="M29.4419 17.959C29.4419 18.0323 29.3822 18.092 29.3088 18.092C29.2355 18.092 29.1758 18.0323 29.1758 17.959C29.1758 17.8856 29.2355 17.8259 29.3088 17.8259C29.3822 17.8259 29.4419 17.8856 29.4419 17.959Z" fill="#F7392F"/>
<path d="M29.7009 18.092C29.7744 18.092 29.834 18.0325 29.834 17.959C29.834 17.8855 29.7744 17.8259 29.7009 17.8259C29.6274 17.8259 29.5679 17.8855 29.5679 17.959C29.5679 18.0325 29.6274 18.092 29.7009 18.092Z" fill="white"/>
<path d="M29.4419 18.4018C29.4419 18.4752 29.3822 18.5349 29.3088 18.5349C29.2355 18.5349 29.1758 18.4752 29.1758 18.4018C29.1758 18.3285 29.2355 18.2688 29.3088 18.2688C29.3822 18.2688 29.4419 18.3285 29.4419 18.4018Z" fill="#F7392F"/>
<path d="M29.834 18.4018C29.834 18.4752 29.7743 18.5349 29.7009 18.5349C29.6276 18.5349 29.5679 18.4752 29.5679 18.4018C29.5679 18.3285 29.6276 18.2688 29.7009 18.2688C29.7748 18.2688 29.834 18.3285 29.834 18.4018Z" fill="white"/>
<path d="M29.4419 18.8437C29.4419 18.9171 29.3822 18.9768 29.3088 18.9768C29.2355 18.9768 29.1758 18.9171 29.1758 18.8437C29.1758 18.7704 29.2355 18.7107 29.3088 18.7107C29.3822 18.7107 29.4419 18.7704 29.4419 18.8437Z" fill="#F7392F"/>
<path d="M29.834 18.8437C29.834 18.9171 29.7743 18.9768 29.7009 18.9768C29.6276 18.9768 29.5679 18.9171 29.5679 18.8437C29.5679 18.7704 29.6276 18.7107 29.7009 18.7107C29.7748 18.7107 29.834 18.7704 29.834 18.8437Z" fill="white"/>
<path d="M31.3941 26.4624H3.40635C3.25712 26.4624 3.13672 26.3415 3.13672 26.1927C3.13672 26.0435 3.25762 25.9231 3.40635 25.9231H31.3941C31.5433 25.9231 31.6637 26.044 31.6637 26.1927C31.6637 26.3415 31.5428 26.4624 31.3941 26.4624Z" fill="#F7F7F7"/>
<path opacity="0.45" d="M31.6268 26.0613C31.6076 26.1913 31.4963 26.292 31.3607 26.292H3.37303C3.27186 26.292 3.18485 26.2358 3.13881 26.1539C3.13679 26.167 3.13477 26.1797 3.13477 26.1933C3.13477 26.3425 3.25567 26.4629 3.4044 26.4629H31.3921C31.5413 26.4629 31.6617 26.342 31.6617 26.1933C31.6622 26.1447 31.6486 26.1002 31.6268 26.0613Z" fill="#EAEAEA"/>
<path d="M31.3107 24.4093H30.4052C30.2979 24.4093 30.2109 24.3223 30.2109 24.2151V23.3217C30.2109 23.2145 30.2979 23.1274 30.4052 23.1274H31.3107C31.418 23.1274 31.505 23.2145 31.505 23.3217V24.2151C31.5045 24.3223 31.418 24.4093 31.3107 24.4093Z" stroke="white" stroke-width="0.0344452" stroke-miterlimit="10"/>
<path d="M30.8574 24.1322C31.0583 24.1322 31.2211 23.9694 31.2211 23.7685C31.2211 23.5676 31.0583 23.4048 30.8574 23.4048C30.6565 23.4048 30.4937 23.5676 30.4937 23.7685C30.4937 23.9694 30.6565 24.1322 30.8574 24.1322Z" fill="#FEFEFE"/>
<path d="M30.8385 23.7501C31.1476 23.4 31.3161 22.9538 31.308 22.5087C31.3019 22.1814 31.2007 21.8536 31.004 21.5768C30.3655 20.6789 29.0523 20.6197 28.1189 21.0371C27.4739 21.3254 26.9974 21.8844 26.7369 22.534C26.4612 23.221 26.3135 24.1528 26.6949 24.8286C26.8178 25.0462 27.0257 25.2328 27.2787 25.2849C27.5402 25.3386 27.8306 25.2389 27.9727 25.0047C28.4209 24.2651 27.5716 23.8042 26.9696 23.6272C25.9108 23.315 24.7549 23.4526 23.7006 23.7056C22.2012 24.0658 20.6441 24.4351 19.2469 25.0917C17.6316 25.8515 16.2596 26.9675 14.6363 27.7051C12.8667 28.5094 10.6009 28.9895 8.70283 28.3571C7.67034 28.0131 6.66668 27.1354 6.75217 25.9603" stroke="white" stroke-width="0.0445274" stroke-miterlimit="10"/>
<path d="M4.96387 21.4688L17.6235 12.7212L21.8708 20.2269L13.2866 25.9479" fill="url(#paint2_linear_46_328)"/>
<path d="M6.22109 25.9478H13.2872L12.02 21.8173C11.9502 21.5892 11.7392 21.4333 11.5009 21.4333H5.31253C5.07578 21.4333 4.90631 21.6625 4.97562 21.8891L6.22109 25.9478Z" fill="#9A9FB3"/>
<path d="M13.0921 25.9488H6.13226C6.06902 25.9488 6.01337 25.9073 5.99466 25.8466L4.78105 21.8896C4.72743 21.7166 4.81444 21.5416 4.96469 21.4692C5.01022 21.447 5.06182 21.4343 5.11746 21.4343H11.3059C11.5446 21.4343 11.7551 21.5896 11.8249 21.8178L13.0921 25.9488Z" fill="white"/>
<path d="M9.35842 23.762C9.37461 23.9638 9.10295 24.1272 8.75137 24.1272C8.39978 24.1272 8.10232 23.9638 8.08614 23.762C8.06995 23.5601 8.34161 23.3967 8.69319 23.3967C9.04427 23.3967 9.34223 23.5601 9.35842 23.762Z" fill="#EAEAEA"/>
<path d="M13.0921 25.9485H6.13226C6.06902 25.9485 6.01337 25.9071 5.99466 25.8464L4.78105 21.8894C4.72743 21.7164 4.81444 21.5413 4.96469 21.469C5.12202 21.8712 6.76308 25.641 13.0921 25.9485Z" fill="#F4F4F4"/>
</g>
<defs>
<linearGradient id="paint0_linear_46_328" x1="10.5827" y1="10.9155" x2="10.6893" y2="10.9518" gradientUnits="userSpaceOnUse">
<stop stop-color="#FDA889"/>
<stop offset="1" stop-color="#FDA889" stop-opacity="0"/>
</linearGradient>
<linearGradient id="paint1_linear_46_328" x1="9.98418" y1="10.9165" x2="9.89295" y2="10.9375" gradientUnits="userSpaceOnUse">
<stop stop-color="#FDA889"/>
<stop offset="1" stop-color="#FDA889" stop-opacity="0"/>
</linearGradient>
<linearGradient id="paint2_linear_46_328" x1="8.49657" y1="24.0993" x2="14.8543" y2="19.7902" gradientUnits="userSpaceOnUse">
<stop stop-color="white" stop-opacity="0.4"/>
<stop offset="1" stop-color="white" stop-opacity="0"/>
</linearGradient>
<clipPath id="clip0_46_328">
<rect width="33.007" height="22.7741" fill="white" transform="translate(1.27832 5.89697)"/>
</clipPath>
</defs>
</svg>
