<svg width="43" height="43" viewBox="0 0 43 43" fill="none" xmlns="http://www.w3.org/2000/svg">
<path d="M38.2129 37.668V17.4277H40.9004V12.1367H32.8379V8.02148H34.1816V4.07422H22.1719V8.02148H23.5156V12.1367H19.4004V10.0371H18.1406V12.1367H11.3379V8.02148H20.7441V4.07422H8.73438V8.02148H10.0781V12.1367H2.01562V17.4277H4.70312V37.668H0V38.9277H43V37.668H38.2129ZM23.4316 6.76172V5.33398H32.9219V6.76172H23.4316ZM31.5781 8.02148V12.1367H24.7754V8.02148H31.5781ZM9.99414 6.76172V5.33398H19.4844V6.76172H9.99414ZM3.27539 16.168V13.3965H39.6406V16.168H3.27539ZM24.7754 21.543V17.4277H31.5781V27.5059C31.5781 29.3814 30.0523 30.9072 28.1768 30.9072C26.3012 30.9072 24.7754 29.3814 24.7754 27.5059V22.8027H29.5625V21.543H24.7754ZM11.3379 18.8555V17.4277H18.1406V18.8555H11.3379ZM18.1406 20.1152V27.5059C18.1406 29.3814 16.6148 30.9072 14.7393 30.9072C12.8637 30.9072 11.3379 29.3814 11.3379 27.5059V20.1152H18.1406ZM34.2656 37.668H8.65039V34.8965H34.2656V37.668ZM34.2656 33.6367H8.65039V19.4434H7.39062V37.668H5.96289V17.4277H10.0781V27.5059C10.0781 30.076 12.1691 32.167 14.7393 32.167C17.3094 32.167 19.4004 30.076 19.4004 27.5059V17.4277H23.5156V27.5059C23.5156 30.076 25.6066 32.167 28.1768 32.167C30.7469 32.167 32.8379 30.076 32.8379 27.5059V17.4277H34.2656V33.6367ZM36.9531 37.668H35.5254V17.4277H36.9531V37.668Z" fill="#0E2D45"/>
<path d="M17.4688 21.543H16.125V22.8027H17.4688V21.543Z" fill="#0E2D45"/>
<path d="M14.7812 26.918H13.4375V28.1777H14.7812V26.918Z" fill="#0E2D45"/>
<path d="M28.2188 26.918H26.875V28.1777H28.2188V26.918Z" fill="#0E2D45"/>
</svg>
