<svg width="41" height="41" viewBox="0 0 41 41" fill="none" xmlns="http://www.w3.org/2000/svg">
<path d="M19.5391 27.5859C18.5014 27.5859 17.6572 28.4301 17.6572 29.4678C17.6572 30.5054 18.5014 31.3496 19.5391 31.3496C20.5767 31.3496 21.4209 30.5054 21.4209 29.4678C21.4209 28.4301 20.5767 27.5859 19.5391 27.5859ZM19.5391 30.1484C19.1637 30.1484 18.8584 29.8431 18.8584 29.4678C18.8584 29.0924 19.1637 28.7871 19.5391 28.7871C19.9144 28.7871 20.2197 29.0924 20.2197 29.4678C20.2197 29.8431 19.9144 30.1484 19.5391 30.1484Z" fill="#0E2D45"/>
<path d="M29.7891 32.7109C28.3982 32.7109 27.2666 33.8425 27.2666 35.2334C27.2666 36.6243 28.3982 37.7559 29.7891 37.7559C31.1799 37.7559 32.3115 36.6243 32.3115 35.2334C32.3115 33.8425 31.1799 32.7109 29.7891 32.7109ZM29.7891 36.5547C29.0605 36.5547 28.4678 35.9619 28.4678 35.2334C28.4678 34.5048 29.0605 33.9121 29.7891 33.9121C30.5176 33.9121 31.1104 34.5048 31.1104 35.2334C31.1104 35.9619 30.5176 36.5547 29.7891 36.5547Z" fill="#0E2D45"/>
<path d="M31.0547 10.9707L33.4274 0.720703H29.6319L27.2592 10.9707H6.80664L11.2109 16.8564V39.1182C11.2109 40.1558 12.0952 41 13.1328 41H32.3516C33.3892 41 34.1934 40.1558 34.1934 39.1182V10.9707H31.0547ZM30.5868 1.92188H31.9163L29.8217 10.9707H28.4922L30.5868 1.92188ZM28.2142 12.1719H29.5437L26.5593 25.0645H25.2297L28.2142 12.1719ZM26.2812 26.2656L24.1866 35.3145H22.8571L24.9517 26.2656H26.2812ZM9.20898 12.1719H26.9812L23.9968 25.0645H14.9746V22.4219H16.9766V21.2207H14.9746V18.5781H16.9766V17.377H14.9746V14.7344H16.9766V13.5332H13.7734V25.0645H12.4121V16.4561L9.20898 12.1719ZM32.9922 39.1182C32.9922 39.4935 32.7269 39.7988 32.3516 39.7988H13.1328C12.7575 39.7988 12.4121 39.4935 12.4121 39.1182V26.2656H13.7734V37.7969H16.9766V36.5957H14.9746V33.9531H16.9766V32.752H14.9746V30.1094H16.9766V28.9082H14.9746V26.2656H23.7187L21.346 36.5156H25.1415L27.5142 26.2656H31.0703V25.0645H27.7922L30.7767 12.1719H32.9922V39.1182Z" fill="#0E2D45"/>
<path d="M18.8984 4.52344C17.5076 4.52344 16.376 5.65502 16.376 7.0459C16.376 8.43678 17.5076 9.56836 18.8984 9.56836C20.2893 9.56836 21.4209 8.43678 21.4209 7.0459C21.4209 5.65502 20.2893 4.52344 18.8984 4.52344ZM18.8984 8.36719C18.1699 8.36719 17.5771 7.77445 17.5771 7.0459C17.5771 6.31735 18.1699 5.72461 18.8984 5.72461C19.627 5.72461 20.2197 6.31735 20.2197 7.0459C20.2197 7.77445 19.627 8.36719 18.8984 8.36719Z" fill="#0E2D45"/>
<path d="M22.1016 17.3359C21.0639 17.3359 20.2197 18.1801 20.2197 19.2178C20.2197 20.2554 21.0639 21.0996 22.1016 21.0996C23.1392 21.0996 23.9834 20.2554 23.9834 19.2178C23.9834 18.1801 23.1392 17.3359 22.1016 17.3359ZM22.1016 19.8984C21.7262 19.8984 21.4209 19.5931 21.4209 19.2178C21.4209 18.8424 21.7262 18.5371 22.1016 18.5371C22.4769 18.5371 22.7822 18.8424 22.7822 19.2178C22.7822 19.5931 22.4769 19.8984 22.1016 19.8984Z" fill="#0E2D45"/>
<path d="M24.6641 0C23.6264 0 22.7822 0.844184 22.7822 1.88184C22.7822 2.91949 23.6264 3.76367 24.6641 3.76367C25.7017 3.76367 26.5459 2.91949 26.5459 1.88184C26.5459 0.844184 25.7017 0 24.6641 0ZM24.6641 2.5625C24.2887 2.5625 23.9834 2.25716 23.9834 1.88184C23.9834 1.50651 24.2887 1.20117 24.6641 1.20117C25.0394 1.20117 25.3447 1.50651 25.3447 1.88184C25.3447 2.25716 25.0394 2.5625 24.6641 2.5625Z" fill="#0E2D45"/>
<path d="M19.5391 21.2207H18.2578V22.4219H19.5391V21.2207Z" fill="#0E2D45"/>
<path d="M19.5391 17.377H18.2578V18.5781H19.5391V17.377Z" fill="#0E2D45"/>
<path d="M19.5391 13.5332H18.2578V14.7344H19.5391V13.5332Z" fill="#0E2D45"/>
</svg>
