<svg width="30" height="33" viewBox="0 0 30 33" fill="none" xmlns="http://www.w3.org/2000/svg">
<g clip-path="url(#clip0_529_923)">
<path d="M28.8672 22.4844C29.0384 22.8693 29.1972 23.4767 29.3145 24.0801C29.4347 24.6992 29.498 25.2407 29.498 25.4482C29.498 25.9041 29.1716 26.1912 28.8682 26.1914C28.5634 26.1914 28.2364 25.904 28.2363 25.4482C28.2363 25.2406 28.2998 24.6991 28.4199 24.0801C28.5371 23.4765 28.6956 22.869 28.8672 22.4844ZM29.123 20.4375C29.3363 20.5533 29.5 20.7958 29.5 21.1055C29.5 21.4358 29.3163 21.6936 29.0996 21.7939L28.8662 21.9014L28.6377 21.7949C28.4201 21.6928 28.2364 21.4342 28.2363 21.1035C28.2363 20.7959 28.4013 20.5508 28.6123 20.4365L28.8662 20.2988L29.123 20.4375ZM14.6465 6.82812C14.7142 6.80177 14.7849 6.80241 14.8506 6.82812H14.8516L28.5723 12.1523L28.1768 12.3223L14.8633 18.0254C14.789 18.0567 14.7101 18.0564 14.6357 18.0254L0.921875 12.1543L14.6465 6.82812Z" fill="white" stroke="#757575"/>
<path d="M24.3801 19.6094C24.3801 21.0032 23.4246 22.3557 21.6731 23.4082C19.9358 24.4522 17.4962 25.1429 14.7493 25.2266C12.0019 25.1429 9.56191 24.4516 7.82446 23.4072C6.0727 22.3542 5.11743 21.0016 5.11743 19.6094C5.11743 19.3264 5.11627 17.7566 5.11548 16.2031L14.2405 20.1123H14.2415C14.5661 20.2511 14.9275 20.251 15.2522 20.1123H15.2532L24.3811 16.2031C24.3799 17.7578 24.3801 19.3283 24.3801 19.6094Z" fill="white" stroke="#757575"/>
</g>
<defs>
<clipPath id="clip0_529_923">
<rect width="30" height="33" fill="white"/>
</clipPath>
</defs>
</svg>
