<svg width="30" height="33" viewBox="0 0 30 33" fill="none" xmlns="http://www.w3.org/2000/svg">
<g clip-path="url(#clip0_91_14266)">
<path d="M30 21.1054C30 20.6131 29.7366 20.2018 29.3617 19.9982V12.3607C29.4467 12.3254 29.4996 12.2371 29.4986 12.1385C29.4986 12.0398 29.4401 11.9525 29.3579 11.9203L15.0326 6.36235C14.8494 6.29068 14.6492 6.29068 14.4651 6.36235L0.141651 11.9214C0.0576119 11.9536 0.000956484 12.0408 1.22266e-05 12.1395C-0.000932031 12.2382 0.0528906 12.3265 0.135985 12.3618L14.4396 18.4859C14.6388 18.57 14.8588 18.57 15.0581 18.4859L28.374 12.7814V19.9971C28.0001 20.1997 27.7366 20.6141 27.7366 21.1033C27.7366 21.6144 28.0199 22.0579 28.425 22.248C28.0199 23.1277 27.7366 24.933 27.7366 25.4482C27.7366 26.1347 28.2437 26.6915 28.8678 26.6915C29.4911 26.6915 29.9981 26.1347 29.9981 25.4482C29.9981 24.933 29.7139 23.1277 29.3098 22.248C29.7158 22.06 30 21.6164 30 21.1054Z" fill="#145ED7"/>
<path d="M4.61548 15.4453C4.61642 17.2069 4.61737 19.2801 4.61737 19.6094C4.61737 22.8896 9.10542 25.56 14.7492 25.7272C20.3921 25.56 24.8802 22.8927 24.8802 19.6094C24.8802 19.2822 24.8802 17.208 24.8821 15.4453L15.0561 19.653C14.8569 19.7382 14.6369 19.7382 14.4376 19.653L4.61548 15.4453Z" fill="#145ED7"/>
</g>
<defs>
<clipPath id="clip0_91_14266">
<rect width="30" height="33" fill="white"/>
</clipPath>
</defs>
</svg>
