<svg width="69" height="77" viewBox="0 0 69 77" fill="none" xmlns="http://www.w3.org/2000/svg">
<g clip-path="url(#clip0_1_12554)">
<path d="M68.8996 48.97C68.8996 47.842 68.2961 46.8997 67.4372 46.4333V28.9359C67.6319 28.855 67.7531 28.6527 67.7509 28.4266C67.7509 28.2006 67.6168 28.0007 67.4286 27.9269L34.6092 15.1935C34.1895 15.0293 33.7309 15.0293 33.309 15.1935L0.493956 27.9293C0.301423 28.0031 0.171625 28.203 0.169462 28.429C0.167298 28.6551 0.290606 28.8574 0.480977 28.9383L33.2506 42.9686C33.7071 43.1613 34.2111 43.1613 34.6676 42.9686L65.1744 29.8996V46.4309C64.3178 46.8949 63.7142 47.8444 63.7142 48.9652C63.7142 50.136 64.3632 51.1521 65.2912 51.5876C64.3632 53.6031 63.7142 57.7389 63.7142 58.9192C63.7142 60.4921 64.8759 61.7676 66.3058 61.7676C67.7336 61.7676 68.8953 60.4921 68.8953 58.9192C68.8953 57.7389 68.2441 53.6031 67.3183 51.5876C68.2485 51.1569 68.8996 50.1408 68.8996 48.97Z" fill="#145ED7"/>
<path d="M10.7434 36.0038C10.7456 40.0396 10.7477 44.7894 10.7477 45.5437C10.7477 53.0586 21.0299 59.1766 33.9599 59.5597C46.8878 59.1766 57.17 53.0657 57.17 45.5437C57.17 44.7941 57.17 40.042 57.1743 36.0038L34.663 45.6437C34.2065 45.8388 33.7025 45.8388 33.246 45.6437L10.7434 36.0038Z" fill="#145ED7"/>
</g>
<defs>
<clipPath id="clip0_1_12554">
<rect width="68.7302" height="75.6032" fill="white" transform="translate(0.169434 0.618713)"/>
</clipPath>
</defs>
</svg>
