<svg width="69" height="77" viewBox="0 0 69 77" fill="none" xmlns="http://www.w3.org/2000/svg">
<g clip-path="url(#clip0_1_12511)">
<path d="M66.3042 52.13C66.6964 53.0119 67.061 54.4031 67.3296 55.7853C67.6051 57.2034 67.7495 58.4434 67.7495 58.9191C67.7495 59.9637 67.0015 60.622 66.3062 60.6222C65.608 60.6222 64.8599 59.9632 64.8599 58.9191C64.8599 58.4432 65.0036 57.203 65.2788 55.7853C65.5472 54.4028 65.9113 53.0113 66.3042 52.13ZM66.8901 47.4396C67.3787 47.7049 67.7543 48.2606 67.7544 48.9698C67.7544 49.7265 67.3338 50.3179 66.8374 50.548L66.3013 50.796L65.7778 50.5509C65.2793 50.317 64.8599 49.7227 64.8599 48.965C64.86 48.2605 65.237 47.7004 65.7202 47.4386L66.3042 47.1212L66.8901 47.4396ZM33.7241 16.2609C33.8794 16.2004 34.0413 16.201 34.1919 16.2599L34.1948 16.2618L65.6304 28.4581L64.7231 28.8468L34.2222 41.9132C34.0517 41.9852 33.8703 41.9853 33.6997 41.9142L2.28271 28.463L33.7231 16.2618L33.7241 16.2609Z" fill="white" stroke="#757575" stroke-width="2.29101"/>
<path d="M56.0247 45.5439C56.0246 48.7371 53.8351 51.8357 49.8225 54.247C45.8422 56.6388 40.2527 58.2215 33.9592 58.413C27.6653 58.2213 22.0753 56.6367 18.095 54.2441C14.0819 51.8317 11.8929 48.7333 11.8928 45.5439C11.8928 44.8956 11.8907 41.2993 11.8889 37.7402L32.7952 46.6962L32.7961 46.6972C33.4936 46.9953 34.2661 47.0138 34.9729 46.7529L35.1135 46.6972L56.0276 37.7402C56.0248 41.302 56.0247 44.9 56.0247 45.5439Z" fill="white" stroke="#757575" stroke-width="2.29101"/>
</g>
<defs>
<clipPath id="clip0_1_12511">
<rect width="68.7302" height="75.6032" fill="white" transform="translate(0.169434 0.618713)"/>
</clipPath>
</defs>
</svg>
