<svg width="56" height="56" viewBox="0 0 56 56" fill="none" xmlns="http://www.w3.org/2000/svg">
<g clip-path="url(#clip0_1_12518)">
<path d="M27.6184 1.21991C34.8405 1.22015 40.7483 7.12863 40.7483 14.3508C40.7481 21.5727 34.8403 27.4804 27.6184 27.4807C20.3963 27.4807 14.4878 21.5729 14.4875 14.3508C14.4875 7.12848 20.3961 1.21991 27.6184 1.21991Z" fill="white" stroke="#757575" stroke-width="2.29101"/>
<path d="M17.0583 29.7879C17.2934 29.741 17.5975 29.7975 17.8494 29.9471L17.9539 30.0174L17.9607 30.0223C20.781 32.1039 24.1377 33.1765 27.6179 33.1766C31.0981 33.1766 34.4548 32.1039 37.2751 30.0223L37.283 30.0174C37.4888 29.8631 37.8593 29.7628 38.282 29.8035C42.9223 30.4518 47.0505 33.0676 49.7351 37.0359L49.7419 37.0467C50.2656 37.8031 50.7191 38.5999 51.0544 39.4383L51.0593 39.451C51.0564 39.4548 51.0542 39.4603 51.0505 39.4647L50.9861 39.5418L50.9363 39.6287C50.4701 40.4446 49.9404 41.2118 49.3396 41.993L49.3328 42.0018L49.3259 42.0115C48.5041 43.1268 47.5539 44.1391 46.5701 45.1229C45.7332 45.9596 44.7763 46.7961 43.825 47.5096C39.1015 51.0366 33.4214 52.8913 27.5564 52.8914C21.6998 52.8914 16.0269 51.0424 11.3074 47.5252C10.3062 46.7118 9.36133 45.9424 8.54175 45.1229L8.52905 45.1102L8.51636 45.0984L8.14429 44.7401C7.28729 43.8962 6.51486 43.0009 5.78589 42.0115L5.78003 42.0037L5.36108 41.4354C4.94967 40.8665 4.54144 40.2631 4.19897 39.6688C4.16625 39.5992 4.15338 39.5465 4.15112 39.5174C4.15085 39.5139 4.15118 39.5109 4.15112 39.5086L4.15796 39.4949L4.17163 39.4637C4.51975 38.6513 4.98258 37.7853 5.4939 37.0467L5.50073 37.0369L5.50757 37.0262C8.13061 33.0626 12.3275 30.4397 16.989 29.7986L17.0242 29.7947L17.0583 29.7879Z" fill="white" stroke="#757575" stroke-width="2.29101"/>
</g>
<defs>
<clipPath id="clip0_1_12518">
<rect width="54.9841" height="54.9841" fill="white" transform="translate(0.121582 0.0741577)"/>
</clipPath>
</defs>
</svg>
