<svg width="56" height="56" viewBox="0 0 56 56" fill="none" xmlns="http://www.w3.org/2000/svg">
<g clip-path="url(#clip0_1_12561)">
<path d="M27.618 0.365295C19.7631 0.365295 13.342 6.78631 13.342 14.6412C13.342 22.4962 19.7631 28.9172 27.618 28.9172C35.4729 28.9172 41.8939 22.4962 41.8939 14.6412C41.8939 6.78631 35.4729 0.365295 27.618 0.365295Z" fill="#145ED7"/>
<path d="M52.1179 39.3038C51.7438 38.3686 51.2451 37.4959 50.6841 36.6855C47.8164 32.4463 43.3903 29.641 38.4031 28.9552C37.7798 28.8929 37.094 29.0175 36.5952 29.3916C33.9769 31.3241 30.86 32.3216 27.6182 32.3216C24.3764 32.3216 21.2595 31.3241 18.6412 29.3916C18.1424 29.0175 17.4566 28.8305 16.8333 28.9552C11.8461 29.641 7.3576 32.4463 4.55231 36.6855C3.99126 37.4959 3.49249 38.431 3.11853 39.3038C2.93155 39.6778 2.99384 40.1142 3.18081 40.4883C3.67959 41.361 4.30293 42.2339 4.86399 42.9819C5.73672 44.1664 6.67185 45.2261 7.73168 46.2235C8.60441 47.0963 9.60183 47.9067 10.5994 48.7172C15.5242 52.3953 21.4466 54.3277 27.5559 54.3277C33.6653 54.3277 39.5876 52.3952 44.5125 48.7172C45.5099 47.9691 46.5073 47.0963 47.3801 46.2235C48.3776 45.2261 49.375 44.1663 50.2478 42.9819C50.8712 42.1715 51.4324 41.361 51.931 40.4883C52.2426 40.1142 52.3049 39.6777 52.1179 39.3038Z" fill="#145ED7"/>
</g>
<defs>
<clipPath id="clip0_1_12561">
<rect width="54.9841" height="54.9841" fill="white" transform="translate(0.121582 0.365112)"/>
</clipPath>
</defs>
</svg>
