<svg width="59" height="59" viewBox="0 0 59 59" fill="none" xmlns="http://www.w3.org/2000/svg">
<g clip-path="url(#clip0_1_12489)">
<path d="M32.9148 1.92896C46.1548 1.92896 56.939 12.8115 56.9392 26.0647C56.9392 26.3595 56.7017 26.5978 56.407 26.5979H32.9148C32.6201 26.5978 32.3826 26.3594 32.3826 26.0647V2.46118C32.3827 2.16655 32.6202 1.92909 32.9148 1.92896Z" fill="white" stroke="#757575" stroke-width="2.29101"/>
<path d="M26.2032 8.75275C26.498 8.75279 26.7353 8.99028 26.7355 9.28497V32.6785L26.8077 32.8729L34.9503 54.6971C35.041 54.9399 34.9451 55.2058 34.7355 55.3377L34.6388 55.3856C31.9417 56.3987 29.1042 56.9129 26.2032 56.9129C12.95 56.9129 1.9553 46.0173 1.9552 32.7772C1.9552 19.5436 12.9433 8.75275 26.2032 8.75275Z" fill="white" stroke="#757575" stroke-width="2.29101"/>
<path d="M32.9152 32.2445H56.4064C56.7011 32.2445 56.9385 32.482 56.9386 32.7767C56.9386 42.7264 50.6671 51.8783 41.3517 55.3842C41.2167 55.4349 41.0739 55.4294 40.9445 55.3705L40.9425 55.3695L40.8527 55.3177C40.7682 55.2573 40.7014 55.1718 40.6632 55.0707L32.4161 32.9662V32.9652L32.3966 32.9027C32.3613 32.7564 32.3898 32.6015 32.4757 32.476C32.5776 32.3296 32.742 32.2445 32.9152 32.2445Z" fill="white" stroke="#757575" stroke-width="2.29101"/>
</g>
<defs>
<clipPath id="clip0_1_12489">
<rect width="57.2751" height="57.2751" fill="white" transform="translate(0.809692 0.783203)"/>
</clipPath>
</defs>
</svg>
