<svg width="59" height="59" viewBox="0 0 59 59" fill="none" xmlns="http://www.w3.org/2000/svg">
<g clip-path="url(#clip0_1_12532)">
<path d="M32.9148 0.783386C31.9873 0.783386 31.2368 1.53389 31.2368 2.46137V26.065C31.2368 26.9925 31.9873 27.743 32.9148 27.743H56.4066C57.334 27.743 58.0845 26.9925 58.0845 26.065C58.0845 12.1856 46.7942 0.783386 32.9148 0.783386Z" fill="#145ED7"/>
<path d="M36.0235 54.2961L27.881 32.4721V9.28516C27.881 8.35768 27.1305 7.60718 26.203 7.60718C12.3237 7.60718 0.80957 18.8975 0.80957 32.7769C0.80957 46.6563 12.3237 58.0585 26.203 58.0585C29.2411 58.0585 32.2152 57.5194 35.042 56.4575C35.9088 56.1314 36.348 55.1646 36.0235 54.2961Z" fill="#145ED7"/>
<path d="M56.4064 31.0989H32.9146C32.364 31.0989 31.8496 31.3693 31.5349 31.8216C31.2219 32.2739 31.1499 32.8506 31.3432 33.3668L39.5921 55.476C39.7494 55.8922 40.0641 56.2297 40.4705 56.4133C40.8771 56.5982 41.3353 56.6139 41.7552 56.4559C51.5216 52.7804 58.0844 43.1988 58.0844 32.7769C58.0844 31.8494 57.3339 31.0989 56.4064 31.0989Z" fill="#145ED7"/>
</g>
<defs>
<clipPath id="clip0_1_12532">
<rect width="57.2751" height="57.2751" fill="white" transform="translate(0.80957 0.783142)"/>
</clipPath>
</defs>
</svg>
