<svg width="114" height="102" viewBox="0 0 114 102" fill="none" xmlns="http://www.w3.org/2000/svg">
<g clip-path="url(#clip0_610_1265)">
<mask id="mask0_610_1265" style="mask-type:luminance" maskUnits="userSpaceOnUse" x="0" y="0" width="114" height="102">
<path d="M114 0H0V102H114V0Z" fill="white"/>
</mask>
<g mask="url(#mask0_610_1265)">
<path d="M92.3566 71.5763C93.3823 69.6706 92.9557 67.3933 91.2913 65.8912L87.7144 62.6774C98.881 44.406 93.3316 21.5682 74.6938 9.09479C56.0563 -3.37865 30.0037 -1.69105 13.5685 13.0543C-2.86676 27.7996 -4.68186 51.1143 9.30978 67.7562C23.3014 84.3977 48.841 89.3007 69.2314 79.2599L72.7972 82.452C73.8466 83.3887 75.2692 83.9132 76.7518 83.91C77.5849 83.9033 78.4063 83.7321 79.1569 83.4083L96.2698 98.7202C99.9211 101.987 105.84 101.986 109.491 98.7191C113.142 95.4524 113.141 90.1562 109.49 86.8898L92.3566 71.5763ZM3.73743 42.64C3.73743 21.3998 22.9818 4.1811 46.7212 4.1811C70.4602 4.1811 89.7046 21.3998 89.7046 42.64C89.7046 63.8804 70.4602 81.0991 46.7212 81.0991C22.9929 81.0752 3.76419 63.8705 3.73743 42.64ZM75.4396 80.0842L72.5113 77.4706C77.7526 74.3507 82.2415 70.3223 85.7128 65.6236L88.6375 68.2522C89.3572 68.9037 89.3572 69.9519 88.6375 70.603C88.5856 70.6484 88.5376 70.697 88.4938 70.7485L78.088 80.0759C77.7385 80.3918 77.2627 80.5706 76.7656 80.5719C76.2688 80.5735 75.7918 80.398 75.4396 80.0842ZM106.848 96.354C104.624 98.2442 101.136 98.2442 98.9125 96.354L82.0423 81.2663L89.9608 74.1682L106.84 89.254C109.028 91.2162 109.028 94.3921 106.84 96.354H106.848Z" fill="white" fill-opacity="0.25"/>
<path d="M33.9847 41.356C36.6652 41.2057 39.1915 40.1824 41.0866 38.4798C41.8156 37.8254 41.8141 36.7662 41.0827 36.1137C40.3516 35.4612 39.1675 35.4628 38.4382 36.1172C37.0147 37.3911 35.0698 38.0877 33.0568 38.0439C31.0438 38.0004 29.1388 37.2207 27.7858 35.8864C27.0885 35.2161 25.9184 35.1724 25.1611 35.7881C24.4037 36.4041 24.3408 37.4504 25.0199 38.1355C26.392 39.4768 28.1488 40.456 30.0994 40.9662C29.6302 41.7846 28.8609 42.434 27.9204 42.8057C27.1027 43.1174 26.6434 43.9011 26.8221 44.6801C27.0008 45.4591 27.7679 46.0176 28.6567 46.016C28.9098 46.0152 29.1601 45.9691 29.393 45.8807C31.5814 45.0355 33.2554 43.386 33.9847 41.356Z" fill="white" fill-opacity="0.25"/>
<path d="M40.0293 47.1197C39.6027 47.1197 39.1767 47.1396 38.7528 47.1801C35.2998 47.4276 32.3268 49.4574 31.1484 52.3719C29.9675 55.4 30.8406 58.7654 33.3909 61.0186C34.506 62.0085 35.1387 63.3522 35.1516 64.7574C35.1516 65.681 35.9883 66.4297 37.0203 66.4297C38.0526 66.4297 38.8893 65.681 38.8893 64.7574C38.8812 62.4772 37.8678 60.2917 36.069 58.6761C34.5222 57.3353 33.9774 55.317 34.6692 53.4923C35.367 51.786 37.1277 50.6111 39.1545 50.4991C39.4443 50.471 39.7359 50.457 40.0272 50.4575C41.0595 50.4575 41.8962 49.7089 41.8962 48.7853C41.8962 47.8619 41.0595 47.1133 40.0272 47.1133L40.0293 47.1197Z" fill="white" fill-opacity="0.25"/>
<path d="M53.8474 47.1783C53.4229 47.138 52.996 47.1179 52.5691 47.1182C51.5371 47.1182 50.7001 47.8668 50.7001 48.7904C50.7001 49.7138 51.5371 50.4624 52.5691 50.4624C52.8619 50.4622 53.1544 50.4761 53.4457 50.5043C55.4725 50.6157 57.2335 51.7908 57.9307 53.4975C58.6237 55.3222 58.0786 57.3407 56.5312 58.6809C54.7273 60.2952 53.7091 62.4815 53.698 64.7642C53.698 65.6878 54.5347 66.4364 55.5667 66.4364C56.599 66.4364 57.4357 65.6878 57.4357 64.7642C57.4495 63.3579 58.0837 62.0137 59.1997 61.0237C61.7503 58.7714 62.6233 55.4059 61.4425 52.3787C60.2683 49.4636 57.2992 47.4306 53.8474 47.1783Z" fill="white" fill-opacity="0.25"/>
<path d="M79.8188 51.1471C79.8227 49.2936 79.1036 47.4971 77.7854 46.0672C80.8211 42.2301 80.4212 37.0117 76.8287 33.5813C77.7182 28.9776 74.6018 24.5101 69.5888 23.2025C70.6976 19.606 68.5949 15.8404 64.7147 14.474C57.4076 9.71346 52.0889 8.18512 48.4745 9.8238C47.8094 10.1247 47.2145 10.5361 46.7213 11.0361C46.2287 10.5349 45.6338 10.1223 44.9684 9.82048C41.3561 8.18179 36.0335 9.70844 28.7094 14.4774C24.8382 15.8479 22.7433 19.6083 23.8504 23.1992C18.8371 24.5083 15.7222 28.9774 16.6142 33.5813C13.0207 37.0117 12.6215 42.2309 15.6592 46.0672C14.3397 47.4965 13.6198 49.2933 13.624 51.1471C13.6378 54.527 16.0081 57.54 19.5595 58.6918C18.9299 61.0819 19.4648 63.5986 21.0307 65.615C22.5967 67.6313 25.0464 68.9576 27.7694 69.2631C29.6358 72.3048 33.1427 74.2533 37.0175 74.4015C40.8923 74.5494 44.5721 72.8755 46.7213 69.987C48.8708 72.8755 52.5506 74.5494 56.4254 74.4015C60.3002 74.2533 63.8072 72.3048 65.6735 69.2631C68.3963 68.9576 70.8461 67.6313 72.4121 65.615C73.9781 63.5986 74.513 61.0819 73.8833 58.6918C77.4347 57.54 79.805 54.527 79.8188 51.1471ZM37.4948 71.0655C34.5233 71.069 31.8425 69.4697 30.7034 67.014C30.413 66.3912 29.7327 65.9856 28.9785 65.9856C25.7004 65.983 23.0434 63.6064 23.0393 60.6733C23.0353 59.8321 23.2625 59.0029 23.7009 58.2589C23.9976 57.7599 23.9926 57.1608 23.6875 56.6658C23.3826 56.1711 22.8189 55.8474 22.189 55.8058C19.4685 55.6165 17.3672 53.5886 17.3617 51.1471C17.3673 50.1864 17.7076 49.2512 18.3354 48.4717C20.2026 49.6533 22.4343 50.2862 24.7213 50.2827C25.7534 50.2827 26.5901 49.5341 26.5901 48.6105C26.5901 47.6871 25.7534 46.9385 24.7213 46.9385C21.6547 46.9406 18.9083 45.2405 17.8296 42.6722C16.7508 40.1037 17.5661 37.2061 19.8754 35.4007C20.3672 34.953 20.5774 34.3152 20.436 33.7002C20.2762 33.1782 20.1945 32.6394 20.1931 32.0983C20.1925 29.264 22.4272 26.8232 25.533 26.2657C28.6388 25.7082 31.7528 27.1889 32.9741 29.8041C33.3815 30.644 34.4681 31.0345 35.4119 30.6802C36.3554 30.3256 36.8048 29.3583 36.4202 28.5098C34.9208 25.3121 31.5494 23.1325 27.6853 22.8631C27.4372 22.3722 27.3025 21.8416 27.2891 21.303C27.2961 19.5842 28.5139 18.0564 30.3278 17.4905C30.8063 17.3325 31.313 17.2538 31.823 17.2581C33.5903 17.2604 35.195 18.1813 35.9345 19.6175C36.2012 20.1764 36.7856 20.5618 37.4612 20.6243C38.1368 20.6868 38.7968 20.4164 39.1856 19.9182C39.5744 19.4199 39.6305 18.7721 39.332 18.2263C38.5127 16.6323 37.0865 15.3509 35.3084 14.6111C40.2515 12.0895 42.4622 12.4374 43.2659 12.8002C44.8058 13.4841 44.8562 15.5759 44.8562 15.586V23.2427C44.1011 22.9553 43.2887 22.8075 42.4679 22.8079C41.4359 22.8079 40.5992 23.5565 40.5992 24.4801C40.5992 25.4035 41.4359 26.1522 42.4679 26.1522C43.7843 26.1549 44.8505 27.1097 44.8526 28.2875V64.4825C44.8484 68.1166 41.5568 71.062 37.4948 71.0655ZM71.2538 55.8058C70.6241 55.8474 70.0604 56.1711 69.7553 56.6658C69.4502 57.1608 69.4454 57.7599 69.7421 58.2589C70.1804 59.0029 70.4075 59.8321 70.4036 60.6733C70.3994 63.6064 67.7426 65.983 64.4642 65.9856C63.71 65.9856 63.0299 66.3912 62.7395 67.014C61.3901 69.9102 57.944 71.5522 54.5051 70.9367C51.0665 70.3215 48.5909 67.6203 48.5903 64.4825V34.6365C48.5912 33.4568 49.6601 32.5004 50.9786 32.4996C52.0109 32.4996 52.8476 31.751 52.8476 30.8273C52.8476 29.904 52.0109 29.1553 50.9786 29.1553C50.1575 29.1569 49.3451 29.307 48.5903 29.5969V15.586C48.5903 15.5659 48.6575 13.4891 50.1656 12.8069C50.9693 12.444 53.1764 12.0778 58.1384 14.6111C56.3603 15.3509 54.9341 16.6323 54.1145 18.2263C53.8163 18.7721 53.8721 19.4199 54.2609 19.9182C54.6497 20.4164 55.31 20.6868 55.9856 20.6243C56.6612 20.5618 57.2456 20.1764 57.5123 19.6175C58.2515 18.1813 59.8565 17.2604 61.6238 17.2581C62.1341 17.2574 62.6402 17.3384 63.1187 17.4972L63.1859 17.5206C64.3535 17.8831 65.2961 18.6693 65.7821 19.686C66.2681 20.7027 66.2525 21.8556 65.7389 22.8614C61.8749 23.1309 58.5032 25.3104 57.0038 28.5082C56.6192 29.3566 57.0689 30.324 58.0124 30.6783C58.9559 31.0329 60.0425 30.6424 60.4499 29.8025C61.6646 27.1744 64.7882 25.6835 67.9043 26.2444C71.0201 26.8053 73.2563 29.2614 73.2404 32.105C73.2389 32.6461 73.1573 33.1849 72.9974 33.7069C72.8354 34.3224 73.0484 34.9691 73.5581 35.4074C75.8717 37.2112 76.6898 40.1109 75.6104 42.6811C74.531 45.2512 71.7809 46.9511 68.7122 46.9452C67.6802 46.9452 66.8435 47.6938 66.8435 48.6172C66.8435 49.5408 67.6802 50.2895 68.7122 50.2895C70.9994 50.2924 73.2311 49.6589 75.098 48.4768C75.7253 49.2566 76.0655 50.1915 76.0718 51.1522C76.0637 53.5889 73.9685 55.6125 71.2538 55.8058Z" fill="white" fill-opacity="0.25"/>
<path d="M65.5221 42.8065C64.5816 42.435 63.8121 41.7857 63.3429 40.9673C65.2944 40.4533 67.0506 39.47 68.4207 38.1247C69.0996 37.4397 69.0369 36.3934 68.2794 35.7774C67.5222 35.1616 66.3519 35.2054 65.6547 35.8756C64.3017 37.2099 62.3967 37.9897 60.3837 38.0332C58.3707 38.0769 56.4258 37.3804 55.0023 36.1065C54.2688 35.4727 53.1033 35.4816 52.3824 36.1266C51.6615 36.7716 51.6513 37.8147 52.3596 38.4707C54.2547 40.1733 56.781 41.1965 59.4612 41.3468C60.1935 43.3732 61.8672 45.0186 64.053 45.8614C64.2861 45.95 64.5363 45.9962 64.7895 45.997C65.6781 45.9986 66.4452 45.44 66.624 44.661C66.8025 43.8821 66.3435 43.098 65.5257 42.7864L65.5221 42.8065Z" fill="white" fill-opacity="0.25"/>
</g>
</g>
<defs>
<clipPath id="clip0_610_1265">
<rect width="114" height="102" fill="white"/>
</clipPath>
</defs>
</svg>
