<svg width="38" height="38" viewBox="0 0 38 38" fill="none" xmlns="http://www.w3.org/2000/svg">
<g clip-path="url(#clip0_91_14481)">
<path d="M30.7856 26.6646C31.1275 25.9546 30.9853 25.1063 30.4305 24.5466L29.2382 23.3493C32.9604 16.5423 31.1106 8.03414 24.898 3.38718C18.6855 -1.25978 10.0013 -0.63107 4.5229 4.86229C-0.955504 10.3556 -1.56054 19.0415 3.10334 25.2414C7.76723 31.4412 16.2804 33.2679 23.0772 29.5271L24.2658 30.7163C24.6156 31.0653 25.0898 31.2608 25.584 31.2595C25.8617 31.257 26.1355 31.1932 26.3857 31.0726L32.09 36.777C33.3071 37.9939 35.2802 37.9937 36.4971 36.7767C37.714 35.5596 37.7139 33.5865 36.4968 32.3696L30.7856 26.6646ZM1.24589 15.8845C1.24589 7.9714 7.66069 1.55659 15.5738 1.55659C23.4868 1.55659 29.9016 7.9714 29.9016 15.8845C29.9016 23.7975 23.4868 30.2123 15.5738 30.2123C7.66439 30.2034 1.25481 23.7938 1.24589 15.8845ZM25.1466 29.8342L24.1705 28.8605C25.9176 27.6982 27.4139 26.1974 28.571 24.4469L29.5459 25.4262C29.7858 25.6689 29.7858 26.0594 29.5459 26.3021C29.5286 26.3189 29.5126 26.3371 29.498 26.3563L26.0294 29.8311C25.9129 29.9489 25.7543 30.0154 25.5886 30.016C25.423 30.0166 25.264 29.9511 25.1466 29.8342ZM35.616 35.8955C34.8749 36.5997 33.712 36.5997 32.9709 35.8955L27.3475 30.2746L29.987 27.6302L35.6135 33.2505C36.3426 33.9814 36.3426 35.1646 35.6135 35.8955H35.616Z" fill="#0E2D45"/>
<path d="M11.3283 15.4061C12.2218 15.3501 13.0639 14.969 13.6956 14.3346C13.9386 14.0909 13.9381 13.6962 13.6943 13.4531C13.4506 13.2101 13.0559 13.2106 12.8128 13.4544C12.3383 13.929 11.69 14.1885 11.019 14.1723C10.348 14.156 9.71302 13.8655 9.26202 13.3684C9.02958 13.1187 8.63955 13.1024 8.3871 13.3319C8.13464 13.5613 8.11367 13.9511 8.34005 14.2063C8.79741 14.706 9.38303 15.0708 10.0332 15.2609C9.87681 15.5659 9.62037 15.8078 9.30687 15.9462C9.03431 16.0623 8.88123 16.3543 8.94078 16.6445C9.00034 16.9347 9.25605 17.1429 9.55232 17.1423C9.63667 17.1419 9.72012 17.1248 9.79776 17.0918C10.5272 16.777 11.0852 16.1625 11.3283 15.4061Z" fill="#0E2D45"/>
<path d="M13.3431 17.5533C13.2009 17.5532 13.0589 17.5607 12.9176 17.5757C11.7666 17.668 10.7756 18.4242 10.3828 19.51C9.98918 20.638 10.2802 21.8919 11.1303 22.7312C11.502 23.1 11.7129 23.6006 11.7172 24.1242C11.7172 24.4682 11.9961 24.7471 12.3401 24.7471C12.6842 24.7471 12.9631 24.4682 12.9631 24.1242C12.9604 23.2746 12.6226 22.4604 12.023 21.8585C11.5074 21.359 11.3258 20.6071 11.5564 19.9273C11.789 19.2916 12.3759 18.854 13.0515 18.8123C13.1481 18.8017 13.2453 18.7965 13.3424 18.7967C13.6865 18.7967 13.9654 18.5178 13.9654 18.1737C13.9654 17.8297 13.6865 17.5508 13.3424 17.5508L13.3431 17.5533Z" fill="#0E2D45"/>
<path d="M17.9492 17.5752C17.8077 17.5601 17.6654 17.5526 17.5231 17.5527C17.1791 17.5527 16.9001 17.8316 16.9001 18.1757C16.9001 18.5197 17.1791 18.7986 17.5231 18.7986C17.6207 18.7985 17.7182 18.8037 17.8153 18.8142C18.4909 18.8557 19.0779 19.2935 19.3103 19.9293C19.5413 20.6091 19.3596 21.3611 18.8438 21.8604C18.2425 22.4619 17.9031 23.2764 17.8994 24.1267C17.8994 24.4708 18.1783 24.7497 18.5223 24.7497C18.8664 24.7497 19.1453 24.4708 19.1453 24.1267C19.1499 23.6029 19.3613 23.102 19.7333 22.7332C20.5835 21.8941 20.8745 20.6404 20.4809 19.5125C20.0895 18.4265 19.0998 17.6691 17.9492 17.5752Z" fill="#0E2D45"/>
<path d="M26.6062 19.0546C26.6075 18.3641 26.3678 17.6948 25.9284 17.1621C26.9403 15.7326 26.807 13.7885 25.6095 12.5105C25.906 10.7954 24.8672 9.13103 23.1962 8.64389C23.5657 7.30399 22.8649 5.90115 21.5715 5.39209C19.1358 3.61855 17.3628 3.04917 16.1581 3.65966C15.9364 3.77175 15.7381 3.92503 15.5737 4.1113C15.4095 3.92458 15.2112 3.77088 14.9894 3.65842C13.7852 3.04793 12.0111 3.61668 9.56972 5.39334C8.27931 5.90394 7.58101 7.30486 7.95005 8.64265C6.27894 9.13034 5.24065 10.7953 5.53799 12.5105C4.34016 13.7885 4.2071 15.7329 5.21966 17.1621C4.77982 17.6946 4.53986 18.364 4.54127 19.0546C4.54586 20.3138 5.33595 21.4363 6.51976 21.8654C6.3099 22.7558 6.48818 23.6934 7.01017 24.4446C7.53217 25.1958 8.34873 25.6899 9.25638 25.8037C9.87852 26.9369 11.0475 27.6628 12.3391 27.718C13.6307 27.7731 14.8573 27.1495 15.5737 26.0734C16.2902 27.1495 17.5168 27.7731 18.8084 27.718C20.1 27.6628 21.2689 26.9369 21.8911 25.8037C22.7987 25.6899 23.6153 25.1958 24.1373 24.4446C24.6593 23.6934 24.8376 22.7558 24.6277 21.8654C25.8115 21.4363 26.6016 20.3138 26.6062 19.0546ZM12.4982 26.4752C11.5077 26.4765 10.6141 25.8807 10.2344 24.9658C10.1376 24.7338 9.91084 24.5827 9.65943 24.5827C8.56672 24.5817 7.68107 23.6963 7.67969 22.6036C7.67836 22.2902 7.75409 21.9813 7.90022 21.7041C7.99911 21.5182 7.99744 21.295 7.89577 21.1106C7.79411 20.9263 7.6062 20.8057 7.39625 20.7902C6.48942 20.7197 5.78898 19.9642 5.78717 19.0546C5.78901 18.6967 5.90247 18.3483 6.11173 18.0579C6.73413 18.4981 7.47801 18.7339 8.24035 18.7326C8.58439 18.7326 8.8633 18.4537 8.8633 18.1096C8.8633 17.7656 8.58439 17.4867 8.24035 17.4867C7.21816 17.4875 6.30269 16.8541 5.94311 15.8973C5.58352 14.9404 5.85528 13.8609 6.62504 13.1883C6.78899 13.0215 6.85906 12.7839 6.81192 12.5548C6.75866 12.3603 6.73143 12.1596 6.73094 11.958C6.73076 10.9021 7.47566 9.99275 8.51093 9.78507C9.5462 9.57738 10.5842 10.129 10.9913 11.1033C11.1271 11.4162 11.4893 11.5617 11.8038 11.4297C12.1184 11.2976 12.2682 10.9372 12.14 10.6211C11.6402 9.4298 10.5164 8.61781 9.22835 8.51743C9.14567 8.33456 9.10075 8.13687 9.09628 7.93622C9.09863 7.2959 9.50457 6.72669 10.1092 6.51589C10.2687 6.45703 10.4376 6.42769 10.6076 6.4293C11.1967 6.43014 11.7316 6.77322 11.9781 7.30829C12.0669 7.5165 12.2618 7.6601 12.4869 7.68337C12.7121 7.70665 12.9322 7.60593 13.0618 7.4203C13.1914 7.23467 13.2101 6.99335 13.1106 6.78999C12.8375 6.19615 12.3621 5.71877 11.7694 5.44317C13.4171 4.50376 14.154 4.63334 14.4219 4.76852C14.9352 5.0233 14.952 5.80261 14.952 5.80635V8.65884C14.7003 8.5518 14.4295 8.49671 14.1559 8.49688C13.8118 8.49688 13.5329 8.77578 13.5329 9.11983C13.5329 9.46387 13.8118 9.74278 14.1559 9.74278C14.5947 9.74381 14.9501 10.0995 14.9508 10.5383V24.0227C14.9494 25.3766 13.8522 26.4739 12.4982 26.4752ZM23.7512 20.7902C23.5412 20.8057 23.3533 20.9263 23.2517 21.1106C23.15 21.295 23.1483 21.5182 23.2472 21.7041C23.3934 21.9813 23.4691 22.2902 23.4678 22.6036C23.4664 23.6963 22.5807 24.5817 21.488 24.5827C21.2366 24.5827 21.0098 24.7338 20.913 24.9658C20.4633 26.0448 19.3146 26.6565 18.1683 26.4272C17.022 26.198 16.1969 25.1917 16.1967 24.0227V12.9036C16.197 12.4641 16.5533 12.1078 16.9928 12.1075C17.3369 12.1075 17.6158 11.8286 17.6158 11.4845C17.6158 11.1405 17.3369 10.8616 16.9928 10.8616C16.7191 10.8622 16.4483 10.9181 16.1967 11.0261V5.80635C16.1967 5.79888 16.2191 5.02517 16.7218 4.77101C16.9897 4.63583 17.7254 4.4994 19.3793 5.44317C18.7866 5.71877 18.3112 6.19615 18.0381 6.78999C17.9386 6.99335 17.9573 7.23467 18.0869 7.4203C18.2165 7.60593 18.4366 7.70665 18.6618 7.68337C18.8869 7.6601 19.0818 7.5165 19.1706 7.30829C19.4171 6.77322 19.952 6.43014 20.5411 6.4293C20.7112 6.42903 20.88 6.4592 21.0395 6.51838L21.0619 6.52711C21.4511 6.66214 21.7653 6.95504 21.9273 7.33381C22.0893 7.71259 22.0841 8.14211 21.9129 8.51681C20.6248 8.61719 19.501 9.42917 19.0012 10.6205C18.873 10.9366 19.0229 11.297 19.3374 11.429C19.6519 11.5611 20.0141 11.4156 20.1499 11.1027C20.5548 10.1236 21.596 9.56816 22.6347 9.77713C23.6733 9.9861 24.4187 10.9011 24.4134 11.9605C24.4129 12.1621 24.3857 12.3628 24.3324 12.5573C24.2783 12.7866 24.3494 13.0275 24.5193 13.1908C25.2905 13.8628 25.5632 14.9431 25.2034 15.9006C24.8436 16.8581 23.9269 17.4914 22.904 17.4892C22.5599 17.4892 22.281 17.7681 22.281 18.1121C22.281 18.4562 22.5599 18.7351 22.904 18.7351C23.6664 18.7362 24.4103 18.5002 25.0326 18.0598C25.2416 18.3503 25.3551 18.6986 25.3572 19.0565C25.3545 19.9643 24.6561 20.7182 23.7512 20.7902Z" fill="#0E2D45"/>
<path d="M21.8406 15.9466C21.5271 15.8082 21.2707 15.5663 21.1143 15.2614C21.7647 15.0699 22.3502 14.7036 22.8068 14.2024C23.0332 13.9472 23.0122 13.5574 22.7598 13.328C22.5073 13.0985 22.1173 13.1148 21.8849 13.3645C21.4339 13.8616 20.7989 14.1521 20.1279 14.1683C19.4569 14.1846 18.8086 13.9251 18.334 13.4505C18.0896 13.2144 17.7011 13.2178 17.4608 13.4581C17.2205 13.6984 17.2171 14.0869 17.4532 14.3313C18.0849 14.9657 18.9269 15.3468 19.8204 15.4028C20.0645 16.1578 20.6223 16.7708 21.351 17.0848C21.4286 17.1177 21.5121 17.1349 21.5964 17.1352C21.8927 17.1358 22.1484 16.9277 22.208 16.6375C22.2675 16.3473 22.1144 16.0553 21.8419 15.9392L21.8406 15.9466Z" fill="#0E2D45"/>
</g>
<defs>
<clipPath id="clip0_91_14481">
<rect width="38" height="38" fill="white"/>
</clipPath>
</defs>
</svg>
