<svg width="42" height="41" viewBox="0 0 42 41" fill="none" xmlns="http://www.w3.org/2000/svg">
<g clip-path="url(#clip0_17_30806)">
<path d="M21 32.3115C22.1056 32.3115 23.002 31.4152 23.002 30.3096C23.002 29.2039 22.1056 28.3076 21 28.3076C19.8944 28.3076 18.998 29.2039 18.998 30.3096C18.998 31.4152 19.8944 32.3115 21 32.3115Z" fill="white" fill-opacity="0.75"/>
<path d="M21 0C9.67023 0 0.5 9.1687 0.5 20.5C0.5 31.8298 9.6687 41 21 41C32.3298 41 41.5 31.8313 41.5 20.5C41.5 9.17023 32.3313 0 21 0ZM21 37.7969C11.4405 37.7969 3.70312 30.0608 3.70312 20.5C3.70312 10.9405 11.4392 3.20312 21 3.20312C30.5595 3.20312 38.2969 10.9392 38.2969 20.5C38.2969 30.0595 30.5608 37.7969 21 37.7969Z" fill="white" fill-opacity="0.75"/>
<path d="M21 10.29C17.4676 10.29 14.5938 13.1639 14.5938 16.6963C14.5938 17.5808 15.3108 18.2979 16.1953 18.2979C17.0799 18.2979 17.7969 17.5808 17.7969 16.6963C17.7969 14.9301 19.2338 13.4932 21 13.4932C22.7662 13.4932 24.2031 14.9301 24.2031 16.6963C24.2031 18.4625 22.7662 19.8994 21 19.8994C20.1155 19.8994 19.3984 20.6164 19.3984 21.501V25.5049C19.3984 26.3894 20.1155 27.1064 21 27.1064C21.8845 27.1064 22.6016 26.3894 22.6016 25.5049V22.8999C25.3615 22.1869 27.4062 19.6759 27.4062 16.6963C27.4062 13.1639 24.5324 10.29 21 10.29Z" fill="white" fill-opacity="0.75"/>
</g>
<defs>
<clipPath id="clip0_17_30806">
<rect width="41" height="41" fill="white" transform="translate(0.5)"/>
</clipPath>
</defs>
</svg>
