<svg width="45" height="44" viewBox="0 0 45 44" fill="none" xmlns="http://www.w3.org/2000/svg">
<path d="M10.501 27.4998L2.3335 33.9165V5.49984C2.3335 5.01361 2.52665 4.54729 2.87047 4.20347C3.21428 3.85966 3.6806 3.6665 4.16683 3.6665H31.6668C32.1531 3.6665 32.6194 3.85966 32.9632 4.20347C33.307 4.54729 33.5002 5.01361 33.5002 5.49984V27.4998H10.501ZM9.23233 23.8332H29.8335V7.33317H6.00016V26.3723L9.23233 23.8332ZM15.1668 31.1665H33.9347L37.1668 33.7057V14.6665H39.0002C39.4864 14.6665 39.9527 14.8597 40.2965 15.2035C40.6403 15.5473 40.8335 16.0136 40.8335 16.4998V41.2498L32.666 34.8332H17.0002C16.5139 34.8332 16.0476 34.64 15.7038 34.2962C15.36 33.9524 15.1668 33.4861 15.1668 32.9998V31.1665Z" fill="white" fill-opacity="0.75"/>
</svg>
