<svg width="19" height="15" viewBox="0 0 19 15" fill="none" xmlns="http://www.w3.org/2000/svg">
<path opacity="0.15" d="M0 14.1992V9.98047C0 8.78255 0.234375 7.55859 0.703125 6.30859C1.17187 5.05859 1.79036 3.88021 2.55859 2.77344C3.32682 1.66666 4.16016 0.742186 5.05859 0L8.73047 2.16797C8.0013 3.3138 7.40234 4.51172 6.93359 5.76172C6.47786 7.01172 6.25 8.40495 6.25 9.94141V14.1992H0ZM9.86328 14.1992V9.98047C9.86328 8.78255 10.0977 7.55859 10.5664 6.30859C11.0352 5.05859 11.6536 3.88021 12.4219 2.77344C13.1901 1.66666 14.0234 0.742186 14.9219 0L18.5938 2.16797C17.8646 3.3138 17.2656 4.51172 16.7969 5.76172C16.3411 7.01172 16.1133 8.40495 16.1133 9.94141V14.1992H9.86328Z" fill="#36474F"/>
</svg>
