<svg width="38" height="52" viewBox="0 0 38 52" fill="none" xmlns="http://www.w3.org/2000/svg">
<g filter="url(#filter0_d_91_15060)">
<rect width="28" height="42" rx="5.11111" fill="white"/>
<rect x="0.166667" y="0.166667" width="27.6667" height="41.6667" rx="4.94445" stroke="white" stroke-width="0.333333"/>
</g>
<rect x="0.166667" y="0.166667" width="27.6667" height="39.6667" rx="4.5" fill="#C9DAF4" stroke="white" stroke-width="0.333333"/>
<g clip-path="url(#clip0_91_15060)">
<path d="M18.042 25.3346C17.8666 25.3346 17.6991 25.2609 17.5828 25.133L15.0845 22.4263C14.9774 22.3121 14.917 22.1605 14.917 22.0013C14.917 21.8421 14.9774 21.6905 15.0862 21.5751L17.5845 18.8684C17.6991 18.7417 17.8666 18.668 18.042 18.668C18.3866 18.668 18.667 18.9484 18.667 19.293V24.7096C18.667 25.0542 18.3866 25.3346 18.042 25.3346ZM18.042 19.0846C17.9828 19.0846 17.9295 19.1076 17.8924 19.1492L15.3907 21.8592C15.3532 21.8988 15.3337 21.9488 15.3337 22.0013C15.3337 22.0538 15.3532 22.1038 15.3891 22.1417L17.8907 24.8517C18.0057 24.9792 18.2503 24.8834 18.2503 24.7096V19.293C18.2503 19.178 18.1566 19.0846 18.042 19.0846Z" fill="#0C53C7"/>
<path d="M9.29199 25.3346C8.94741 25.3346 8.66699 25.0542 8.66699 24.7096V19.293C8.66699 18.9484 8.94741 18.668 9.29199 18.668C9.46783 18.668 9.63491 18.7417 9.75116 18.8701L12.2491 21.5763C12.3566 21.6901 12.417 21.8417 12.417 22.0013C12.417 22.1609 12.3566 22.3126 12.247 22.428L9.74908 25.1346C9.63491 25.2609 9.46783 25.3346 9.29199 25.3346ZM9.29199 19.0846C9.17741 19.0846 9.08366 19.178 9.08366 19.293V24.7096C9.08366 24.8834 9.33158 24.9759 9.44074 24.8538L11.9428 22.1434C11.9807 22.1038 12.0003 22.0538 12.0003 22.0013C12.0003 21.9488 11.9807 21.8988 11.9449 21.8613L9.44283 19.1509C9.40408 19.1076 9.35116 19.0846 9.29199 19.0846Z" fill="#0C53C7"/>
<path d="M13.6668 24.9173C13.5518 24.9173 13.4585 24.824 13.4585 24.709V19.2923C13.4585 19.1773 13.5518 19.084 13.6668 19.084C13.7818 19.084 13.8752 19.1773 13.8752 19.2923V24.709C13.8752 24.824 13.7818 24.9173 13.6668 24.9173Z" fill="#0C53C7"/>
<path d="M17.2085 18.6673H14.2918C14.1768 18.6673 14.0835 18.574 14.0835 18.459C14.0835 18.344 14.1768 18.2507 14.2918 18.2507H17.0002V15.5423C17.0002 15.4273 17.0935 15.334 17.2085 15.334C17.3235 15.334 17.4168 15.4273 17.4168 15.5423V18.459C17.4168 18.574 17.3235 18.6673 17.2085 18.6673Z" fill="#0C53C7"/>
<path d="M17.2086 18.6667C17.1228 18.6667 17.0428 18.6133 17.0124 18.5279C16.5103 17.1154 15.1661 16.1667 13.6669 16.1667C12.1678 16.1667 10.8236 17.1154 10.3215 18.5279C10.2832 18.6363 10.1636 18.6929 10.0557 18.6546C9.94694 18.6163 9.89069 18.4971 9.92902 18.3888C10.4899 16.8104 11.9919 15.75 13.6669 15.75C15.3419 15.75 16.844 16.8104 17.4049 18.3888C17.4436 18.4971 17.3869 18.6163 17.2782 18.655C17.2553 18.6629 17.2319 18.6667 17.2086 18.6667Z" fill="#0C53C7"/>
</g>
<defs>
<filter id="filter0_d_91_15060" x="0" y="0" width="38" height="52" filterUnits="userSpaceOnUse" color-interpolation-filters="sRGB">
<feFlood flood-opacity="0" result="BackgroundImageFix"/>
<feColorMatrix in="SourceAlpha" type="matrix" values="0 0 0 0 0 0 0 0 0 0 0 0 0 0 0 0 0 0 127 0" result="hardAlpha"/>
<feOffset dx="5" dy="5"/>
<feGaussianBlur stdDeviation="2.5"/>
<feColorMatrix type="matrix" values="0 0 0 0 0 0 0 0 0 0 0 0 0 0 0 0 0 0 0.1 0"/>
<feBlend mode="normal" in2="BackgroundImageFix" result="effect1_dropShadow_91_15060"/>
<feBlend mode="normal" in="SourceGraphic" in2="effect1_dropShadow_91_15060" result="shape"/>
</filter>
<clipPath id="clip0_91_15060">
<rect width="10" height="10" fill="white" transform="translate(8.66699 15.334)"/>
</clipPath>
</defs>
</svg>
