<svg width="12" height="12" viewBox="0 0 12 12" fill="none" xmlns="http://www.w3.org/2000/svg">
<g clip-path="url(#clip0_91_10199)">
<path d="M3.73278 8.45833C4.25795 8.98351 4.25795 9.84631 3.73278 10.3715C3.2076 10.8967 1.66018 11.5813 1.13501 11.0561C0.609831 10.531 1.29443 8.98353 1.81962 8.45835C2.3448 7.93316 3.19822 7.93316 3.73278 8.45833Z" fill="#FFC01A"/>
<path d="M2.16675 8.20493V8.2612C2.16675 9.23654 2.9639 10.0337 3.93924 10.0337H3.97675C4.23935 9.52726 4.15493 8.88955 3.72353 8.45815C3.31089 8.03613 2.67318 7.95172 2.16675 8.20493Z" fill="#DEB957"/>
<path d="M6.48994 5.51329C8.09363 7.11698 8.41247 9.39589 6.89319 10.9152L6.17107 11.6373C4.65179 13.1566 5.70216 9.50842 4.09847 7.90473C2.49478 6.30104 -1.16275 7.36079 0.365911 5.83213L1.08803 5.11001C2.60734 3.59075 4.88624 3.90962 6.48994 5.51329Z" fill="#FF6744"/>
<path d="M11.7982 0.205473C12.2858 0.693144 12.0701 3.78797 9.07846 6.78902C7.12778 8.73032 5.89922 9.41494 5.89922 9.41494C4.59563 10.2965 3.9673 9.69628 3.142 8.871C2.3167 8.04573 1.70714 7.41737 2.59807 6.11379C2.59807 6.11379 3.29207 4.87585 5.23337 2.92516C8.22501 -0.0664837 11.3105 -0.291555 11.7982 0.205473Z" fill="#FFCA77"/>
<path d="M6.41501 8.99249C5.05515 9.90218 4.39868 9.28321 3.54525 8.42979C2.68245 7.56698 2.0541 6.91989 2.98255 5.56003L3.12323 5.33496C2.75748 5.83201 2.59806 6.11335 2.59806 6.11335C1.70713 7.41694 2.31672 8.04527 3.142 8.87057C3.96727 9.69587 4.59563 10.2867 5.89922 9.41451C5.89922 9.41451 6.48066 9.08626 7.48414 8.2516C6.79953 8.7768 6.41501 8.99249 6.41501 8.99249Z" fill="#C5EAFF"/>
<path d="M8.65646 3.34759C9.11598 3.80712 9.11598 4.548 8.65646 5.00755C8.19693 5.46708 7.45605 5.46708 6.9965 5.00755C6.53697 4.54803 6.53697 3.80714 6.9965 3.34759C7.45602 2.88804 8.20632 2.88804 8.65646 3.34759Z" fill="#C5EAFF"/>
<path d="M5.94604 6.25468C6.1805 6.48914 5.73036 7.3238 4.58619 8.46796C3.44202 9.61213 2.74804 9.92159 2.51359 9.67776C2.27913 9.4433 2.57924 8.7493 3.72338 7.60516C4.87691 6.46101 5.70221 6.01085 5.94604 6.25468Z" fill="#FF6744"/>
<path d="M7.83105 3.28134C8.06551 3.28134 8.29058 3.37511 8.45941 3.54394C8.62821 3.71274 8.722 3.93784 8.722 4.17229C8.722 4.40674 8.62823 4.63181 8.45941 4.80064C8.2906 4.96945 8.06551 5.06324 7.83105 5.06324C7.5966 5.06324 7.37153 4.96947 7.2027 4.80064C7.0339 4.63184 6.9401 4.40674 6.9401 4.17229C6.9401 3.93784 7.03387 3.71277 7.2027 3.54394C7.3715 3.37511 7.5966 3.28134 7.83105 3.28134ZM7.83105 3C7.53095 3 7.23085 3.11254 7.00578 3.34699C6.54625 3.80651 6.54625 4.5474 7.00578 5.00695C7.23085 5.23202 7.53095 5.35394 7.83105 5.35394C8.13116 5.35394 8.43126 5.2414 8.65633 5.00695C9.11586 4.54742 9.11586 3.80654 8.65633 3.34699C8.43126 3.11254 8.13116 3 7.83105 3Z" fill="#145ED7"/>
<path d="M8.92847 0.439683C9.01288 1.06803 9.35049 1.73389 9.90381 2.28721C10.3915 2.7655 10.9542 3.08437 11.5075 3.21566C12.1264 1.6776 12.0796 0.49595 11.7982 0.205206C11.5262 -0.0761335 10.4009 -0.123019 8.92847 0.439683Z" fill="#FF6744"/>
</g>
<defs>
<clipPath id="clip0_91_10199">
<rect width="12" height="12" fill="white"/>
</clipPath>
</defs>
</svg>
