<svg width="18" height="18" viewBox="0 0 18 18" fill="none" xmlns="http://www.w3.org/2000/svg">
<g clip-path="url(#clip0_17_30831)">
<path d="M7.93735 0.0214844C3.56074 0.0214844 0 3.57248 0 7.93718C0 12.3019 3.56077 15.8529 7.93735 15.8529C12.3139 15.8529 15.8747 12.3019 15.8747 7.93718C15.8747 3.57248 12.314 0.0214844 7.93735 0.0214844ZM7.93735 14.5516C4.27814 14.5516 1.30121 11.5842 1.30121 7.93714C1.30121 4.28985 4.27814 1.32265 7.93735 1.32265C11.5966 1.32265 14.5735 4.28985 14.5735 7.93714C14.5735 11.5842 11.5966 14.5516 7.93735 14.5516Z" fill="#145ED7"/>
<path d="M17.8085 16.8666L13.5362 12.616C13.2814 12.3627 12.8695 12.3638 12.616 12.6184C12.3627 12.8732 12.3638 13.2851 12.6184 13.5386L16.8907 17.7892C17.0178 17.9154 17.1835 17.9785 17.3496 17.9785C17.5168 17.9785 17.6838 17.9145 17.8109 17.7868C18.0642 17.532 18.0631 17.1202 17.8085 16.8666Z" fill="#145ED7"/>
</g>
<defs>
<clipPath id="clip0_17_30831">
<rect width="18" height="18" fill="white"/>
</clipPath>
</defs>
</svg>
