<svg width="40" height="40" viewBox="0 0 40 40" fill="none" xmlns="http://www.w3.org/2000/svg">
<path d="M31.8751 24.9998C30.2678 24.9983 28.7112 25.5625 27.4781 26.5936L25.2813 24.3968C26.3113 23.1631 26.8755 21.607 26.8755 19.9998C26.8755 18.3927 26.3113 16.8366 25.2813 15.6029L27.4781 13.4061C28.8392 14.5397 30.5848 15.1049 32.352 14.9842C34.1192 14.8635 35.7718 14.0661 36.966 12.758C38.1603 11.4499 38.8043 9.73173 38.764 7.96091C38.7237 6.19009 38.0023 4.50296 36.7498 3.25048C35.4974 1.998 33.8102 1.2766 32.0394 1.23633C30.2686 1.19607 28.5504 1.84005 27.2423 3.03431C25.9342 4.22857 25.1369 5.88116 25.0161 7.64832C24.8954 9.41548 25.4607 11.1611 26.5942 12.5222L24.397 14.7194C23.1633 13.6894 21.6072 13.1252 20.0001 13.1252C18.393 13.1252 16.8368 13.6894 15.6031 14.7194L13.4063 12.5218C14.5398 11.1607 15.105 9.41507 14.9842 7.64794C14.8635 5.88081 14.0661 4.22825 12.758 3.03404C11.4499 1.83982 9.7317 1.19588 7.96091 1.23616C6.19011 1.27644 4.50301 1.99784 3.25055 3.25031C1.99809 4.50277 1.27668 6.18987 1.2364 7.96066C1.19612 9.73146 1.84006 11.4496 3.03428 12.7577C4.2285 14.0659 5.88105 14.8632 7.64818 14.984C9.41531 15.1047 11.161 14.5396 12.522 13.4061L14.7192 15.6033C13.6893 16.837 13.1251 18.3931 13.1251 20.0002C13.1251 21.6074 13.6893 23.1635 14.7192 24.3972L12.522 26.5944C11.1605 25.4614 9.41458 24.897 7.64748 25.0184C5.88037 25.1399 4.22813 25.938 3.03445 27.2467C1.84077 28.5553 1.19755 30.2738 1.23859 32.0445C1.27964 33.8153 2.00179 35.5022 3.25483 36.7541C4.50786 38.006 6.19531 38.7267 7.96614 38.7662C9.73698 38.8056 11.4549 38.1609 12.7625 36.9661C14.07 35.7712 14.8667 34.1183 14.9866 32.3511C15.1065 30.5839 14.5405 28.8384 13.4063 27.4779L15.6031 25.2811C16.8368 26.311 18.393 26.8752 20.0001 26.8752C21.6072 26.8752 23.1633 26.311 24.397 25.2811L26.5942 27.4783C25.5949 28.6801 25.0352 30.1866 25.0073 31.7494C24.9794 33.3121 25.4851 34.8377 26.4409 36.0744C27.3967 37.3111 28.7455 38.185 30.2648 38.552C31.7841 38.9189 33.3831 38.757 34.798 38.093C36.2129 37.4289 37.3592 36.3024 38.0477 34.8992C38.7362 33.4961 38.9259 31.9001 38.5853 30.3747C38.2448 28.8492 37.3944 27.4855 36.1745 26.5083C34.9546 25.5312 33.4381 24.9991 31.8751 24.9998ZM31.8751 13.7498C30.6757 13.751 29.5078 13.3666 28.5435 12.6535C28.8592 12.0423 29.3371 11.5297 29.9247 11.1719C30.5124 10.814 31.1871 10.6248 31.8751 10.6248C32.5631 10.6248 33.2378 10.814 33.8255 11.1719C34.4131 11.5297 34.8909 12.0423 35.2067 12.6535C34.2424 13.3666 33.0744 13.751 31.8751 13.7498ZM30.0001 7.49985C30.0001 7.12901 30.1101 6.76649 30.3161 6.45815C30.5221 6.14981 30.815 5.90949 31.1576 5.76757C31.5002 5.62566 31.8772 5.58853 32.2409 5.66087C32.6046 5.73322 32.9387 5.9118 33.2009 6.17402C33.4631 6.43624 33.6417 6.77034 33.7141 7.13405C33.7864 7.49777 33.7493 7.87477 33.6074 8.21738C33.4655 8.55999 33.2251 8.85282 32.9168 9.05885C32.6084 9.26488 32.2459 9.37485 31.8751 9.37485C31.378 9.37427 30.9014 9.17654 30.5499 8.82503C30.1984 8.47353 30.0007 7.99695 30.0001 7.49985ZM26.2501 8.12485C26.2491 7.21788 26.4674 6.32412 26.8865 5.51976C27.3055 4.7154 27.9128 4.0243 28.6567 3.50537C29.4005 2.98644 30.2588 2.65507 31.1584 2.53951C32.058 2.42395 32.9721 2.52763 33.823 2.84171C34.6738 3.15578 35.4361 3.67095 36.0449 4.34328C36.6536 5.01561 37.0907 5.82517 37.319 6.70294C37.5473 7.58071 37.5599 8.50066 37.3558 9.38437C37.1518 10.2681 36.737 11.0893 36.147 11.7781C35.6248 10.9259 34.861 10.2484 33.9526 9.83156C34.4259 9.41038 34.76 8.85528 34.9105 8.23988C35.0611 7.62448 35.0211 6.97784 34.7958 6.38571C34.5704 5.79357 34.1705 5.28391 33.6489 4.9243C33.1272 4.56469 32.5086 4.37212 31.8751 4.37212C31.2415 4.37212 30.6229 4.56469 30.1013 4.9243C29.5797 5.28391 29.1797 5.79357 28.9544 6.38571C28.7291 6.97784 28.6891 7.62448 28.8396 8.23988C28.9902 8.85528 29.3243 9.41038 29.7976 9.83156C28.8892 10.2484 28.1254 10.9259 27.6032 11.7781C26.7294 10.7616 26.2493 9.46532 26.2501 8.12485ZM8.12509 13.7498C6.92574 13.751 5.75777 13.3666 4.79345 12.6535C5.10924 12.0423 5.5871 11.5297 6.17473 11.1719C6.76235 10.814 7.43709 10.6248 8.12509 10.6248C8.81309 10.6248 9.48783 10.814 10.0755 11.1719C10.6631 11.5297 11.1409 12.0423 11.4567 12.6535C10.4924 13.3666 9.32444 13.751 8.12509 13.7498ZM6.25009 7.49985C6.25009 7.12901 6.36006 6.76649 6.56608 6.45815C6.77211 6.14981 7.06495 5.90949 7.40756 5.76757C7.75017 5.62566 8.12717 5.58853 8.49088 5.66087C8.8546 5.73322 9.18869 5.9118 9.45092 6.17402C9.71314 6.43624 9.89172 6.77034 9.96406 7.13405C10.0364 7.49777 9.99928 7.87477 9.85736 8.21738C9.71545 8.55999 9.47513 8.85282 9.16678 9.05885C8.85844 9.26488 8.49593 9.37485 8.12509 9.37485C7.62799 9.37427 7.15141 9.17654 6.7999 8.82503C6.4484 8.47353 6.25067 7.99695 6.25009 7.49985ZM12.397 11.7781C11.8748 10.9259 11.111 10.2484 10.2026 9.83156C10.6759 9.41038 11.01 8.85528 11.1605 8.23988C11.3111 7.62448 11.2711 6.97784 11.0458 6.38571C10.8204 5.79357 10.4205 5.28391 9.89885 4.9243C9.37724 4.56469 8.75865 4.37212 8.12509 4.37212C7.49153 4.37212 6.87294 4.56469 6.35133 4.9243C5.82972 5.28391 5.42974 5.79357 5.20441 6.38571C4.97908 6.97784 4.93906 7.62448 5.08964 8.23988C5.24023 8.85528 5.57431 9.41038 6.04759 9.83156C5.13921 10.2484 4.37536 10.9259 3.85321 11.7781C3.15344 10.9612 2.70255 9.96086 2.554 8.89553C2.40544 7.83021 2.56544 6.74463 3.01504 5.76748C3.46464 4.79032 4.18499 3.96256 5.09068 3.38231C5.99638 2.80206 7.04946 2.49366 8.12509 2.49366C9.20072 2.49366 10.2538 2.80206 11.1595 3.38231C12.0652 3.96256 12.7855 4.79032 13.2351 5.76748C13.6847 6.74463 13.8447 7.83021 13.6962 8.89553C13.5476 9.96086 13.0967 10.9612 12.397 11.7781ZM8.12509 37.4998C6.92574 37.501 5.75777 37.1166 4.79345 36.4035C5.10924 35.7923 5.5871 35.2797 6.17473 34.9219C6.76235 34.564 7.43709 34.3748 8.12509 34.3748C8.81309 34.3748 9.48783 34.564 10.0755 34.9219C10.6631 35.2797 11.1409 35.7923 11.4567 36.4035C10.4924 37.1166 9.32444 37.501 8.12509 37.4998ZM6.25009 31.2498C6.25009 30.879 6.36006 30.5165 6.56608 30.2082C6.77211 29.8998 7.06495 29.6595 7.40756 29.5176C7.75017 29.3757 8.12717 29.3385 8.49088 29.4109C8.8546 29.4832 9.18869 29.6618 9.45092 29.924C9.71314 30.1862 9.89172 30.5203 9.96406 30.8841C10.0364 31.2478 9.99928 31.6248 9.85736 31.9674C9.71545 32.31 9.47513 32.6028 9.16678 32.8089C8.85844 33.0149 8.49593 33.1248 8.12509 33.1248C7.62799 33.1243 7.15141 32.9265 6.7999 32.575C6.4484 32.2235 6.25067 31.747 6.25009 31.2498ZM13.7501 31.8748C13.7509 33.2153 13.2708 34.5116 12.397 35.5281C11.8748 34.6759 11.111 33.9984 10.2026 33.5816C10.6759 33.1604 11.01 32.6053 11.1605 31.9899C11.3111 31.3745 11.2711 30.7278 11.0458 30.1357C10.8204 29.5436 10.4205 29.0339 9.89885 28.6743C9.37724 28.3147 8.75865 28.1221 8.12509 28.1221C7.49153 28.1221 6.87294 28.3147 6.35133 28.6743C5.82972 29.0339 5.42974 29.5436 5.20441 30.1357C4.97908 30.7278 4.93906 31.3745 5.08964 31.9899C5.24023 32.6053 5.57431 33.1604 6.04759 33.5816C5.13921 33.9984 4.37536 34.6759 3.85321 35.5281C3.26413 34.8394 2.85025 34.0184 2.64683 33.1352C2.44342 32.252 2.45649 31.3327 2.68495 30.4556C2.9134 29.5786 3.35047 28.7697 3.95891 28.098C4.56735 27.4263 5.32914 26.9115 6.17939 26.5977C7.02964 26.2838 7.94315 26.1801 8.84212 26.2954C9.74108 26.4107 10.5989 26.7416 11.3424 27.2599C12.0859 27.7782 12.6931 28.4685 13.1124 29.272C13.5316 30.0756 13.7504 30.9685 13.7501 31.8748ZM20.0001 25.6248C18.8007 25.626 17.6328 25.2416 16.6685 24.5285C16.9842 23.9173 17.4621 23.4047 18.0497 23.0469C18.6374 22.689 19.3121 22.4998 20.0001 22.4998C20.6881 22.4998 21.3628 22.689 21.9505 23.0469C22.5381 23.4047 23.0159 23.9173 23.3317 24.5285C22.3674 25.2416 21.1994 25.626 20.0001 25.6248ZM18.1251 19.3748C18.1251 19.004 18.2351 18.6415 18.4411 18.3332C18.6471 18.0248 18.9399 17.7845 19.2826 17.6426C19.6252 17.5007 20.0022 17.4635 20.3659 17.5359C20.7296 17.6082 21.0637 17.7868 21.3259 18.049C21.5881 18.3112 21.7667 18.6453 21.8391 19.0091C21.9114 19.3728 21.8743 19.7498 21.7324 20.0924C21.5905 20.435 21.3501 20.7278 21.0418 20.9339C20.7334 21.1399 20.3709 21.2498 20.0001 21.2498C19.503 21.2493 19.0264 21.0515 18.6749 20.7C18.3234 20.3485 18.1257 19.872 18.1251 19.3748ZM24.272 23.6531C23.7498 22.8009 22.986 22.1234 22.0776 21.7066C22.5509 21.2854 22.885 20.7303 23.0355 20.1149C23.1861 19.4995 23.1461 18.8528 22.9208 18.2607C22.6954 17.6686 22.2955 17.1589 21.7739 16.7993C21.2522 16.4397 20.6336 16.2471 20.0001 16.2471C19.3665 16.2471 18.7479 16.4397 18.2263 16.7993C17.7047 17.1589 17.3047 17.6686 17.0794 18.2607C16.8541 18.8528 16.8141 19.4995 16.9646 20.1149C17.1152 20.7303 17.4493 21.2854 17.9226 21.7066C17.0142 22.1234 16.2504 22.8009 15.7282 23.6531C15.0284 22.8362 14.5776 21.8359 14.429 20.7705C14.2804 19.7052 14.4404 18.6196 14.89 17.6425C15.3396 16.6653 16.06 15.8376 16.9657 15.2573C17.8714 14.6771 18.9245 14.3687 20.0001 14.3687C21.0757 14.3687 22.1288 14.6771 23.0345 15.2573C23.9402 15.8376 24.6605 16.6653 25.1101 17.6425C25.5597 18.6196 25.7197 19.7052 25.5712 20.7705C25.4226 21.8359 24.9717 22.8362 24.272 23.6531ZM31.8751 37.4998C30.6757 37.501 29.5078 37.1166 28.5435 36.4035C28.8592 35.7923 29.3371 35.2797 29.9247 34.9219C30.5124 34.564 31.1871 34.3748 31.8751 34.3748C32.5631 34.3748 33.2378 34.564 33.8255 34.9219C34.4131 35.2797 34.8909 35.7923 35.2067 36.4035C34.2424 37.1166 33.0744 37.501 31.8751 37.4998ZM30.0001 31.2498C30.0001 30.879 30.1101 30.5165 30.3161 30.2082C30.5221 29.8998 30.815 29.6595 31.1576 29.5176C31.5002 29.3757 31.8772 29.3385 32.2409 29.4109C32.6046 29.4832 32.9387 29.6618 33.2009 29.924C33.4631 30.1862 33.6417 30.5203 33.7141 30.8841C33.7864 31.2478 33.7493 31.6248 33.6074 31.9674C33.4655 32.31 33.2251 32.6028 32.9168 32.8089C32.6084 33.0149 32.2459 33.1248 31.8751 33.1248C31.378 33.1243 30.9014 32.9265 30.5499 32.575C30.1984 32.2235 30.0007 31.747 30.0001 31.2498ZM36.147 35.5281C35.6248 34.6759 34.861 33.9984 33.9526 33.5816C34.4259 33.1604 34.76 32.6053 34.9105 31.9899C35.0611 31.3745 35.0211 30.7278 34.7958 30.1357C34.5704 29.5436 34.1705 29.0339 33.6489 28.6743C33.1272 28.3147 32.5086 28.1221 31.8751 28.1221C31.2415 28.1221 30.6229 28.3147 30.1013 28.6743C29.5797 29.0339 29.1797 29.5436 28.9544 30.1357C28.7291 30.7278 28.6891 31.3745 28.8396 31.9899C28.9902 32.6053 29.3243 33.1604 29.7976 33.5816C28.8892 33.9984 28.1254 34.6759 27.6032 35.5281C26.9034 34.7112 26.4526 33.7109 26.304 32.6455C26.1554 31.5802 26.3154 30.4946 26.765 29.5175C27.2146 28.5403 27.935 27.7126 28.8407 27.1323C29.7464 26.5521 30.7995 26.2437 31.8751 26.2437C32.9507 26.2437 34.0038 26.5521 34.9095 27.1323C35.8152 27.7126 36.5355 28.5403 36.9851 29.5175C37.4347 30.4946 37.5947 31.5802 37.4462 32.6455C37.2976 33.7109 36.8467 34.7112 36.147 35.5281Z" fill="#0E2D45"/>
</svg>
