<svg width="12" height="11" viewBox="0 0 12 11" fill="none" xmlns="http://www.w3.org/2000/svg">
<path d="M5.5948 0.742978C5.76973 0.422236 6.23027 0.422236 6.4052 0.742978L7.76426 3.23498C7.83064 3.3567 7.94823 3.44213 8.0845 3.46765L10.8745 3.99013C11.2336 4.05737 11.3759 4.49538 11.1249 4.76086L9.17487 6.82347C9.07962 6.92422 9.03471 7.06245 9.05255 7.19994L9.41781 10.0149C9.46482 10.3772 9.09223 10.6479 8.76219 10.4912L6.19792 9.27395C6.07267 9.2145 5.92733 9.2145 5.80208 9.27395L3.23781 10.4912C2.90777 10.6479 2.53518 10.3772 2.58219 10.0149L2.94745 7.19994C2.96529 7.06245 2.92038 6.92422 2.82513 6.82347L0.875062 4.76086C0.624073 4.49538 0.76639 4.05737 1.12549 3.99013L3.9155 3.46765C4.05177 3.44213 4.16936 3.3567 4.23574 3.23498L5.5948 0.742978Z" fill="#0E9453"/>
</svg>
