<svg width="35" height="35" viewBox="0 0 35 35" fill="none" xmlns="http://www.w3.org/2000/svg">
<path d="M29.3116 9.49721C29.1411 9.27914 28.8568 9.18404 28.5893 9.25572L20.4585 11.4343L14.4493 4.28747C14.2768 4.08218 14.0013 3.99551 13.7426 4.06485C13.4838 4.13418 13.2886 4.34696 13.2418 4.61103L11.6111 13.805L3.48038 15.9836C3.21282 16.0553 3.01414 16.2798 2.97559 16.5539C2.93704 16.828 3.06576 17.0987 3.30324 17.2416L10.9973 21.8725L11.1711 32.2066C11.1758 32.483 11.3449 32.73 11.6009 32.8341C11.8569 32.9382 12.1506 32.8794 12.347 32.6851L19.5092 25.5862L29.2613 28.1529C29.38 28.1843 29.5016 28.1827 29.6156 28.1522C29.7578 28.1141 29.8875 28.0305 29.9819 27.9089C30.1516 27.6908 30.1745 27.3923 30.0403 27.1506L25.0239 18.1141L29.3717 10.2566C29.5059 10.0141 29.482 9.71529 29.3116 9.49721Z" fill="#FFC52F"/>
</svg>
