<svg width="48" height="58" viewBox="0 0 48 58" fill="none" xmlns="http://www.w3.org/2000/svg">
<g filter="url(#filter0_d_91_15077)">
<rect x="4" y="8.50586" width="28" height="42" rx="5.11111" transform="rotate(-17.6832 4 8.50586)" fill="white"/>
<rect x="4.20942" y="8.61403" width="27.6667" height="41.6667" rx="4.94445" transform="rotate(-17.6832 4.20942 8.61403)" stroke="white" stroke-width="0.333333"/>
</g>
<rect x="17.1667" y="3.16667" width="27.6667" height="39.6667" rx="4.5" fill="#FF8131" stroke="white" stroke-width="0.333333"/>
<g clip-path="url(#clip0_91_15077)">
<path d="M28.5256 22.0586L31.009 23.5882C31.1069 23.6485 31.2353 23.618 31.2956 23.5201C31.3559 23.4222 31.3254 23.2938 31.2275 23.2335L28.9215 21.8131L30.342 19.5071C30.4023 19.4092 30.3717 19.2808 30.2738 19.2204C30.1759 19.1601 30.0475 19.1906 29.9872 19.2886L28.4575 21.7719C28.3972 21.8698 28.4277 21.9982 28.5256 22.0586Z" fill="white"/>
<path d="M28.5257 22.0576C28.5987 22.1027 28.6948 22.0992 28.7655 22.0424C29.9338 21.1031 31.5759 21.0003 32.8523 21.7865C34.1288 22.5728 34.7756 24.0855 34.4623 25.5515C34.4382 25.6638 34.5103 25.7748 34.6222 25.7988C34.7349 25.8232 34.8453 25.7512 34.8695 25.6389C35.2198 24.0009 34.497 22.3102 33.0708 21.4317C31.6447 20.5533 29.8096 20.6684 28.5043 21.7181C28.4145 21.79 28.4003 21.9212 28.4725 22.0112C28.4879 22.03 28.5058 22.0454 28.5257 22.0576Z" fill="white"/>
</g>
<defs>
<filter id="filter0_d_91_15077" x="0.30957" y="1.31055" width="46.8154" height="55.9004" filterUnits="userSpaceOnUse" color-interpolation-filters="sRGB">
<feFlood flood-opacity="0" result="BackgroundImageFix"/>
<feColorMatrix in="SourceAlpha" type="matrix" values="0 0 0 0 0 0 0 0 0 0 0 0 0 0 0 0 0 0 127 0" result="hardAlpha"/>
<feOffset dy="5"/>
<feGaussianBlur stdDeviation="2.5"/>
<feColorMatrix type="matrix" values="0 0 0 0 0 0 0 0 0 0 0 0 0 0 0 0 0 0 0.1 0"/>
<feBlend mode="normal" in2="BackgroundImageFix" result="effect1_dropShadow_91_15077"/>
<feBlend mode="normal" in="SourceGraphic" in2="effect1_dropShadow_91_15077" result="shape"/>
</filter>
<clipPath id="clip0_91_15077">
<rect width="10" height="10" fill="white" transform="matrix(-0.851436 -0.524459 -0.524459 0.851436 37.5464 23.6992)"/>
</clipPath>
</defs>
</svg>
