<svg width="53" height="54" viewBox="0 0 53 54" fill="none" xmlns="http://www.w3.org/2000/svg">
<path d="M49.6613 5.34473C49.401 5.34473 49.1511 5.44702 48.9654 5.62955C48.7798 5.81208 48.6733 6.06024 48.6688 6.32055L48.3114 27.3958H51.0111L50.6538 6.32055C50.6494 6.06024 50.5429 5.81208 50.3573 5.62955C50.1716 5.44702 49.9217 5.34473 49.6613 5.34473Z" fill="#CBDCF6"/>
<path d="M44.8198 30.9185C45.5344 29.6085 46.3401 28.3504 47.2312 27.1535C47.4544 26.859 47.7379 26.6154 48.0628 26.4391C48.3876 26.2627 48.7462 26.1577 49.1149 26.1309C49.4835 26.1041 49.8536 26.1562 50.2005 26.2836C50.5474 26.4111 50.8631 26.6111 51.1267 26.8703C51.3243 27.0646 51.524 27.2732 51.72 27.495C52.1039 27.9261 52.3345 28.472 52.3758 29.0478C52.4171 29.6236 52.2666 30.1969 51.948 30.6783L49.1312 34.9091C49.1312 34.9091 46.1101 33.4276 44.8198 30.9185Z" fill="#FFCAC0"/>
<path d="M20.3679 52.386H23.7857C25.4094 51.9711 27.1112 51.9711 28.7348 52.386H32.1527L33.0405 48.0977H19.5302L20.3679 52.386Z" fill="#3E3E59"/>
<path d="M23.7858 48.7959H28.7349V52.3859H23.7858V48.7959Z" fill="#FFB84A"/>
<path d="M21.2083 23.6523H31.3124C31.3124 23.6523 32.8712 33.9437 32.8209 48.9053C32.8209 48.9053 27.1876 50.1266 19.5969 48.9053C19.5969 48.9059 18.4507 37.8397 21.2083 23.6523Z" fill="white"/>
<path d="M32.8209 48.9059C32.8221 48.5588 32.8221 48.2152 32.8209 47.8732C29.9501 47.9823 27.9304 47.7243 26.615 47.4314C26.0613 47.3082 25.5713 46.9878 25.2364 46.5299C24.9015 46.072 24.7447 45.5079 24.7951 44.9429L26.4007 26.868L24.4673 23.6523H21.2083C18.4507 37.8397 19.5969 48.9053 19.5969 48.9053C27.1876 50.1272 32.8209 48.9059 32.8209 48.9059Z" fill="#CBDCF6"/>
<path d="M31.3124 23.6523H21.2083C21.0581 24.4248 20.9195 25.1873 20.7924 25.9399C20.9501 26.2294 22.0885 28.2545 23.6402 29.3693L26.2311 27.4439L28.6784 29.369C28.6784 29.369 30.2669 28.5874 31.6641 26.4249C31.4608 24.6322 31.3124 23.6523 31.3124 23.6523Z" fill="#CBDCF6"/>
<path d="M24.2553 37.4017L23.7856 43.0861L26.2603 45.5171L28.7348 43.0861L27.7892 31.6406C26.3703 33.1022 25.2046 35.0459 24.2553 37.4017Z" fill="#5D90E3"/>
<path d="M27.7893 31.64L27.2077 24.6016H25.313L24.2555 37.4011L27.7893 31.64Z" fill="#145ED7"/>
<path d="M29.0253 22.0381H23.4961L21.2083 23.6527C21.8505 25.03 22.7011 26.3002 23.73 27.4185L26.2604 25.0483L28.7915 27.4185C29.8204 26.3002 30.671 25.03 31.3132 23.6527L29.0253 22.0381Z" fill="white"/>
<path d="M23.4961 20.4609V22.0383L26.2604 25.0486L29.0245 22.0383V20.5676L23.4961 20.4609Z" fill="#FFCAC0"/>
<path d="M23.4961 20.4608C25.3988 21.3367 27.8443 21.3522 29.0245 20.5675V18.5254H23.4961V20.4608Z" fill="#EF9292"/>
<path d="M21.2082 23.6523C21.2082 23.6523 21.0611 27.7209 20.8849 33.2173C20.2439 35.8091 20.2458 38.6772 20.6277 41.7084C20.5237 45.3841 20.4291 49.1212 20.3678 52.385L14.3003 52.3822C14.3003 52.3822 13.2247 43.4022 14.2775 35.0589C14.449 33.6954 14.6067 32.349 14.7396 31.0616C14.8424 30.061 15.159 29.0942 15.6681 28.2267C16.1772 27.3592 16.8667 26.6112 17.6901 26.0334C18.8371 25.2289 20.1582 24.3212 21.2082 23.6523Z" fill="#009D7A"/>
<path d="M20.6277 41.7088C20.6745 40.0409 20.7241 38.3853 20.7729 36.7922L14.7817 36.1172L14.1223 36.2648C13.0743 44.2444 11.6174 52.3815 11.6174 52.3815L14.4166 52.3829C14.6787 52.383 14.9383 52.3315 15.1805 52.2313C15.4227 52.1311 15.6427 51.9841 15.8281 51.7988C16.0135 51.6135 16.1605 51.3935 16.2609 51.1514C16.3612 50.9092 16.4128 50.6497 16.4128 50.3876V43.9185C17.5419 42.9208 17.4982 41.4024 17.4982 41.4024C18.5578 41.2428 19.8822 41.5157 20.6277 41.7088Z" fill="#07876A"/>
<path d="M44.8197 30.919L41.701 35.5816L36.3396 27.931C35.5291 26.7732 34.5132 25.774 33.3421 24.9828C32.776 24.6007 32.0926 24.1493 31.3124 23.6523C31.3124 23.6523 31.9376 40.9325 32.1527 52.385H36.6713C36.6713 52.385 36.4863 46.1557 36.1165 39.1982L40.8993 43.0502C41.1307 43.2366 41.3984 43.3727 41.6853 43.4499C41.9722 43.5271 42.2721 43.5437 42.5658 43.4986C42.8594 43.4535 43.1405 43.3477 43.3911 43.188C43.6416 43.0283 43.8561 42.8182 44.021 42.571L49.1311 34.9089L44.8197 30.919Z" fill="#009D7A"/>
<path d="M0.617188 33.2382C0.617188 33.2382 8.44466 30.0717 11.6175 37.1885L2.9693 36.2235C2.9693 36.2235 2.30602 34.1127 0.617188 33.2382Z" fill="#FFE7C7"/>
<path d="M22.6186 33.2382C22.6186 33.2382 14.7911 30.0717 11.6183 37.1885L20.8496 36.5507C20.8496 36.5507 20.9291 34.1127 22.6186 33.2382Z" fill="#FFE7C7"/>
<path d="M11.6175 37.1884C11.6175 37.1884 7.6113 33.5964 1.26128 36.3276C1.1147 36.3911 0.989903 36.4961 0.902265 36.6297C0.814628 36.7633 0.767979 36.9195 0.768067 37.0793V39.6294C0.767915 39.7047 0.787083 39.7788 0.82374 39.8445C0.860396 39.9103 0.913315 39.9656 0.977437 40.0051C1.04156 40.0446 1.11474 40.067 1.18998 40.0701C1.26522 40.0732 1.34 40.057 1.40719 40.023C2.91566 39.2529 6.92636 37.6794 11.6175 39.6912C16.3095 37.6794 20.3196 39.2529 21.8278 40.023C21.895 40.057 21.9697 40.0732 22.045 40.0701C22.1202 40.067 22.1934 40.0446 22.2575 40.0051C22.3216 39.9656 22.3746 39.9103 22.4112 39.8445C22.4479 39.7788 22.467 39.7047 22.4669 39.6294V37.0793C22.4669 36.9195 22.4203 36.7632 22.3326 36.6297C22.2449 36.4961 22.1201 36.3911 21.9735 36.3276C15.6246 33.5964 11.6175 37.1884 11.6175 37.1884Z" fill="#FFB84A"/>
<path d="M8.94763 42.1304V49.566C8.94759 50.3136 9.24456 51.0307 9.77322 51.5595C10.3019 52.0882 11.0189 52.3853 11.7666 52.3854C12.5143 52.3854 13.2314 52.0884 13.7601 51.5596C14.2889 51.0309 14.5859 50.3138 14.5859 49.5661V41.1748L8.94763 42.1304Z" fill="#009D7A"/>
<path d="M9.7324 38.6475H13.5026C14.1219 38.6475 14.7159 38.8936 15.1538 39.3316C15.5917 39.7696 15.8377 40.3636 15.8377 40.9829C15.8377 41.7616 15.5284 42.5084 14.9777 43.059C14.4271 43.6096 13.6803 43.9189 12.9016 43.9189H10.333C9.55433 43.9189 8.80754 43.6096 8.25692 43.059C7.7063 42.5084 7.39697 41.7616 7.39697 40.9829C7.39697 40.3635 7.64303 39.7695 8.081 39.3315C8.51898 38.8935 9.11301 38.6475 9.7324 38.6475Z" fill="#FFCAC0"/>
<path d="M19.6912 12.1104H21.2866V16.3701H19.6912C19.218 16.3701 18.7642 16.1822 18.4296 15.8476C18.0951 15.513 17.9071 15.0592 17.9071 14.5861V13.8944C17.9071 13.4213 18.0951 12.9675 18.4296 12.6329C18.7642 12.2983 19.218 12.1104 19.6912 12.1104Z" fill="#EF9292"/>
<path d="M32.2776 16.3701H30.6821V12.1103H32.2776C32.7507 12.1103 33.2045 12.2983 33.5391 12.6329C33.8737 12.9674 34.0616 13.4212 34.0616 13.8944V14.586C34.0616 15.0592 33.8737 15.513 33.5391 15.8476C33.2045 16.1822 32.7507 16.3701 32.2776 16.3701Z" fill="#EF9292"/>
<path d="M21.8831 4.91209C21.2421 4.82047 20.5882 4.90137 19.9888 5.14645C19.3895 5.39154 18.8663 5.79195 18.4731 6.30646C17.1399 7.97861 16.6531 11.7722 21.2991 13.742L31.3928 12.2247C31.9724 12.312 32.5585 12.3485 33.1445 12.3338C34.0809 12.3107 34.9709 11.2738 34.9671 10.337C34.9486 9.76057 34.8015 9.1956 34.5367 8.68335C34.2233 8.02996 34.0061 7.33471 33.8916 6.61916C33.6483 5.10305 32.5577 2.50293 27.94 2.50293C23.1965 2.50293 21.8831 4.91209 21.8831 4.91209Z" fill="#3E4644"/>
<path d="M21.6754 17.2771C22.2632 18.1159 23.2654 19.0016 24.9739 19.5074C25.657 19.7163 26.3779 19.7716 27.0849 19.6691C27.7919 19.5667 28.4675 19.3092 29.0633 18.9151C30.0586 18.2341 30.8266 17.27 31.2678 16.1477C31.4988 15.5756 31.6161 14.9639 31.6129 14.3469V12.4341C31.6127 12.2401 31.5588 12.0499 31.4574 11.8846C31.3559 11.7193 31.2107 11.5852 31.0378 11.4971C30.2634 11.1002 28.8539 10.1511 27.7398 8.13378C27.5216 7.72602 27.1812 7.39679 26.7664 7.19225C26.7217 7.17084 26.6749 7.14954 26.6261 7.12834C23.8939 5.94363 20.8486 8.01266 20.8486 10.9906V14.5647C20.8397 15.5322 21.1283 16.4791 21.6754 17.2771Z" fill="#FFCAC0"/>
</svg>
