<svg width="12" height="12" viewBox="0 0 12 12" fill="none" xmlns="http://www.w3.org/2000/svg">
<path d="M7.32594 5.99967L11.0369 2.28874C11.213 2.11293 11.3121 1.87435 11.3123 1.6255C11.3125 1.37665 11.2139 1.1379 11.0381 0.961783C10.8622 0.785662 10.6237 0.686595 10.3748 0.686376C10.126 0.686156 9.88722 0.784801 9.7111 0.960611L6.00016 4.67155L2.28922 0.960611C2.1131 0.78449 1.87423 0.685547 1.62516 0.685547C1.37609 0.685547 1.13722 0.78449 0.961099 0.960611C0.784979 1.13673 0.686035 1.3756 0.686035 1.62467C0.686035 1.87374 0.784979 2.11262 0.961099 2.28874L4.67204 5.99967L0.961099 9.71061C0.784979 9.88673 0.686035 10.1256 0.686035 10.3747C0.686035 10.6237 0.784979 10.8626 0.961099 11.0387C1.13722 11.2149 1.37609 11.3138 1.62516 11.3138C1.87423 11.3138 2.1131 11.2149 2.28922 11.0387L6.00016 7.3278L9.7111 11.0387C9.88722 11.2149 10.1261 11.3138 10.3752 11.3138C10.6242 11.3138 10.8631 11.2149 11.0392 11.0387C11.2153 10.8626 11.3143 10.6237 11.3143 10.3747C11.3143 10.1256 11.2153 9.88673 11.0392 9.71061L7.32594 5.99967Z" fill="white" fill-opacity="0.5"/>
</svg>
