<svg width="50" height="50" viewBox="0 0 50 50" fill="none" xmlns="http://www.w3.org/2000/svg">
<circle cx="25" cy="25" r="25" fill="#145ED7" fill-opacity="0.09"/>
<path d="M39.8474 9.91016C39.6752 9.91016 39.5098 9.97781 39.3871 10.0985C39.2643 10.2193 39.1938 10.3834 39.1909 10.5556L38.9545 24.4954H40.7401L40.5038 10.5556C40.5009 10.3834 40.4305 10.2193 40.3077 10.0985C40.1849 9.97781 40.0196 9.91016 39.8474 9.91016Z" fill="#CBDCF6"/>
<path d="M36.645 26.8255C37.1176 25.9591 37.6506 25.1269 38.2399 24.3352C38.3876 24.1404 38.5751 23.9793 38.79 23.8627C39.0048 23.7461 39.2421 23.6766 39.4859 23.6588C39.7297 23.6411 39.9745 23.6755 40.2039 23.7599C40.4334 23.8442 40.6422 23.9765 40.8165 24.1479C40.9473 24.2764 41.0794 24.4144 41.209 24.5611C41.4629 24.8462 41.6155 25.2073 41.6427 25.5882C41.67 25.969 41.5705 26.3482 41.3598 26.6666L39.4967 29.465C39.4967 29.465 37.4984 28.4851 36.645 26.8255Z" fill="#FFCAC0"/>
<path d="M20.4719 41.0249H22.7326C23.8065 40.7505 24.9322 40.7505 26.0061 41.0249H28.2668L28.8539 38.1885H19.9178L20.4719 41.0249Z" fill="#3E3E59"/>
<path d="M22.7325 38.6504H26.006V41.0249H22.7325V38.6504Z" fill="#FFB84A"/>
<path d="M21.0277 22.0195H27.7108C27.7108 22.0195 28.7419 28.8265 28.7086 38.7225C28.7086 38.7225 24.9826 39.5304 19.9619 38.7225C19.9619 38.7229 19.2038 31.4034 21.0277 22.0195Z" fill="white"/>
<path d="M28.7086 38.7229C28.7094 38.4933 28.7094 38.2661 28.7086 38.0399C26.8098 38.112 25.4739 37.9414 24.6039 37.7477C24.2376 37.6662 23.9135 37.4543 23.692 37.1514C23.4705 36.8485 23.3668 36.4754 23.4001 36.1017L24.4621 24.1465L23.1833 22.0195H21.0277C19.2038 31.4034 19.9619 38.7225 19.9619 38.7225C24.9826 39.5308 28.7086 38.7229 28.7086 38.7229Z" fill="#CBDCF6"/>
<path d="M27.7109 22.0195H21.0278C20.9284 22.5305 20.8368 23.0348 20.7527 23.5326C20.857 23.7241 21.61 25.0635 22.6363 25.8009L24.35 24.5274L25.9688 25.8007C25.9688 25.8007 27.0194 25.2837 27.9435 23.8534C27.8091 22.6676 27.7109 22.0195 27.7109 22.0195Z" fill="#CBDCF6"/>
<path d="M23.0431 31.1133L22.7324 34.8731L24.3692 36.481L26.0059 34.8731L25.3805 27.3027C24.442 28.2694 23.671 29.5551 23.0431 31.1133Z" fill="#5D90E3"/>
<path d="M25.3806 27.3029L24.9959 22.6475H23.7427L23.0432 31.1134L25.3806 27.3029Z" fill="#145ED7"/>
<path d="M26.1981 20.9521H22.541L21.0277 22.0201C21.4525 22.9311 22.0151 23.7712 22.6956 24.5109L24.3693 22.9432L26.0435 24.5109C26.724 23.7712 27.2866 22.9311 27.7114 22.0201L26.1981 20.9521Z" fill="white"/>
<path d="M22.541 19.9092V20.9525L24.3694 22.9436L26.1976 20.9525V19.9797L22.541 19.9092Z" fill="#FFCAC0"/>
<path d="M22.541 19.9091C23.7995 20.4884 25.417 20.4986 26.1976 19.9796V18.6289H22.541V19.9091Z" fill="#EF9292"/>
<path d="M21.0277 22.0195C21.0277 22.0195 20.9304 24.7106 20.8139 28.346C20.3899 30.0604 20.3912 31.9574 20.6438 33.9623C20.575 36.3935 20.5124 38.8653 20.4719 41.0241L16.4586 41.0223C16.4586 41.0223 15.7472 35.0826 16.4436 29.5641C16.557 28.6623 16.6613 27.7718 16.7492 26.9202C16.8172 26.2584 17.0266 25.6189 17.3634 25.0451C17.7001 24.4713 18.1562 23.9766 18.7008 23.5945C19.4594 23.0623 20.3332 22.462 21.0277 22.0195Z" fill="#009D7A"/>
<path d="M20.6438 33.9631C20.6747 32.8599 20.7075 31.7648 20.7397 30.7111L16.777 30.2646L16.3409 30.3623C15.6477 35.6402 14.6841 41.0223 14.6841 41.0223L16.5355 41.0232C16.7089 41.0233 16.8806 40.9892 17.0408 40.9229C17.201 40.8567 17.3465 40.7595 17.4691 40.6369C17.5918 40.5143 17.689 40.3688 17.7554 40.2087C17.8217 40.0485 17.8559 39.8769 17.8559 39.7035V35.4246C18.6027 34.7648 18.5738 33.7604 18.5738 33.7604C19.2746 33.6548 20.1506 33.8354 20.6438 33.9631Z" fill="#07876A"/>
<path d="M36.645 26.8259L34.5821 29.9098L31.0359 24.8496C30.4999 24.0838 29.8279 23.4228 29.0533 22.8995C28.6789 22.6468 28.2269 22.3482 27.7108 22.0195C27.7108 22.0195 28.1244 33.4491 28.2667 41.0241H31.2554C31.2554 41.0241 31.133 36.9039 30.8884 32.302L34.0519 34.8498C34.2049 34.9731 34.382 35.0631 34.5718 35.1142C34.7615 35.1652 34.9599 35.1762 35.1541 35.1464C35.3484 35.1166 35.5343 35.0466 35.7 34.941C35.8657 34.8353 36.0076 34.6964 36.1166 34.5329L39.4966 29.4649L36.645 26.8259Z" fill="#009D7A"/>
<path d="M7.4082 28.3598C7.4082 28.3598 12.5855 26.2655 14.6841 30.9727L8.96395 30.3344C8.96395 30.3344 8.52524 28.9383 7.4082 28.3598Z" fill="#FFE7C7"/>
<path d="M21.9605 28.3598C21.9605 28.3598 16.7832 26.2655 14.6846 30.9727L20.7904 30.5508C20.7904 30.5508 20.843 28.9383 21.9605 28.3598Z" fill="#FFE7C7"/>
<path d="M14.684 30.9728C14.684 30.9728 12.0342 28.597 7.83416 30.4035C7.73721 30.4455 7.65466 30.5149 7.5967 30.6033C7.53873 30.6916 7.50788 30.795 7.50794 30.9006V32.5873C7.50783 32.6371 7.52051 32.6861 7.54476 32.7297C7.569 32.7732 7.60401 32.8097 7.64642 32.8358C7.68883 32.862 7.73723 32.8768 7.787 32.8788C7.83677 32.8809 7.88623 32.8702 7.93067 32.8477C8.92841 32.3383 11.5812 31.2976 14.684 32.6283C17.7875 31.2976 20.4399 32.3383 21.4374 32.8477C21.4818 32.8702 21.5313 32.8809 21.5811 32.8788C21.6308 32.8768 21.6792 32.862 21.7217 32.8358C21.7641 32.8097 21.7991 32.7732 21.8233 32.7297C21.8476 32.6861 21.8602 32.6371 21.8601 32.5873V30.9006C21.8602 30.795 21.8293 30.6916 21.7713 30.6033C21.7133 30.5149 21.6308 30.4455 21.5338 30.4035C17.3345 28.597 14.684 30.9728 14.684 30.9728Z" fill="#FFB84A"/>
<path d="M12.9182 34.2414V39.1595C12.9182 39.6541 13.1146 40.1284 13.4643 40.4781C13.8139 40.8278 14.2882 41.0243 14.7828 41.0244C15.2773 41.0244 15.7516 40.8279 16.1013 40.4782C16.4511 40.1285 16.6475 39.6542 16.6475 39.1596V33.6094L12.9182 34.2414Z" fill="#009D7A"/>
<path d="M13.4373 31.9375H15.931C16.3406 31.9376 16.7335 32.1003 17.0231 32.39C17.3128 32.6797 17.4755 33.0726 17.4755 33.4822C17.4755 33.9973 17.2709 34.4912 16.9067 34.8554C16.5425 35.2196 16.0486 35.4242 15.5335 35.4242H13.8346C13.3195 35.4242 12.8256 35.2196 12.4614 34.8554C12.0972 34.4912 11.8926 33.9973 11.8926 33.4822C11.8926 33.0725 12.0553 32.6796 12.345 32.3899C12.6347 32.1002 13.0276 31.9375 13.4373 31.9375Z" fill="#FFCAC0"/>
<path d="M20.0243 14.3857H21.0796V17.2033H20.0243C19.7113 17.2033 19.4112 17.079 19.1899 16.8577C18.9686 16.6364 18.8442 16.3362 18.8442 16.0233V15.5658C18.8442 15.2528 18.9686 14.9527 19.1899 14.7314C19.4112 14.5101 19.7113 14.3857 20.0243 14.3857Z" fill="#EF9292"/>
<path d="M28.3493 17.2031H27.294V14.3856H28.3493C28.6622 14.3856 28.9624 14.5099 29.1837 14.7312C29.405 14.9525 29.5293 15.2526 29.5293 15.5656V16.0231C29.5293 16.3361 29.405 16.6362 29.1837 16.8575C28.9624 17.0788 28.6622 17.2031 28.3493 17.2031Z" fill="#EF9292"/>
<path d="M21.4741 9.62474C21.0501 9.56413 20.6176 9.61764 20.2212 9.77975C19.8248 9.94185 19.4787 10.2067 19.2187 10.547C18.3368 11.653 18.0148 14.1622 21.0879 15.4651L27.7641 14.4615C28.1475 14.5192 28.5352 14.5434 28.9227 14.5337C29.5421 14.5184 30.1308 13.8326 30.1282 13.2129C30.116 12.8317 30.0188 12.458 29.8435 12.1192C29.6363 11.687 29.4926 11.2271 29.4169 10.7538C29.256 9.75104 28.5346 8.03125 25.4804 8.03125C22.3429 8.03125 21.4741 9.62474 21.4741 9.62474Z" fill="#3E4644"/>
<path d="M21.3368 17.8033C21.7256 18.3581 22.3885 18.9439 23.5185 19.2785C23.9703 19.4167 24.4472 19.4532 24.9148 19.3855C25.3824 19.3177 25.8293 19.1474 26.2233 18.8867C26.8817 18.4363 27.3896 17.7986 27.6815 17.0563C27.8343 16.6779 27.9118 16.2733 27.9097 15.8652V14.6C27.9096 14.4717 27.874 14.3459 27.8069 14.2365C27.7397 14.1272 27.6437 14.0385 27.5294 13.9802C27.0172 13.7177 26.0849 13.0899 25.348 11.7556C25.2036 11.4859 24.9785 11.2682 24.7041 11.1329C24.6745 11.1187 24.6436 11.1046 24.6113 11.0906C22.8042 10.307 20.7899 11.6755 20.7899 13.6452V16.0092C20.784 16.6492 20.9749 17.2754 21.3368 17.8033Z" fill="#FFCAC0"/>
</svg>
