<svg width="44" height="44" viewBox="0 0 44 44" fill="none" xmlns="http://www.w3.org/2000/svg">
<circle cx="22" cy="22" r="22" fill="#FD7C59"/>
<g clip-path="url(#clip0_2910_642)">
<path d="M25.8992 9.3971C25.6363 13.056 25.3826 16.7148 25.1075 20.3722C24.9617 22.3141 24.793 24.2529 24.6092 26.1917C24.5666 26.64 24.4405 27.0837 24.3174 27.5197C23.8206 29.2626 22.8329 29.8612 21.0703 29.4859C20.3091 29.3233 19.7818 28.8295 19.6071 28.1002C19.3093 26.8527 18.9841 25.59 18.8914 24.3182C18.507 19.0943 18.1788 13.8674 17.8855 8.63889C17.7381 6.01933 18.9537 4.46036 21.2937 4.05619C23.5334 3.67024 25.6454 5.30063 25.8141 7.57071C25.8597 8.17393 25.8202 8.78476 25.8202 9.39254C25.846 9.39406 25.8718 9.39558 25.8977 9.3971H25.8992Z" fill="#FFF2F1"/>
<path d="M25.9506 36.6548C25.94 38.852 24.0756 40.7179 21.8815 40.73C19.657 40.7422 17.7652 38.8474 17.7774 36.6199C17.7896 34.3832 19.6858 32.5173 21.9149 32.5507C24.1181 32.5826 25.9612 34.4577 25.9506 36.6548Z" fill="#FFF2F1"/>
</g>
<defs>
<clipPath id="clip0_2910_642">
<rect width="8.17319" height="36.73" fill="white" transform="translate(17.7773 4)"/>
</clipPath>
</defs>
</svg>
