<svg width="9" height="7" viewBox="0 0 9 7" fill="none" xmlns="http://www.w3.org/2000/svg">
<path d="M0.762956 6.42671L4.20114 0.239207C4.22825 0.19052 4.26679 0.149154 4.31344 0.118672C4.36009 0.0881891 4.41345 0.0695047 4.46892 0.0642279C4.5244 0.058951 4.58033 0.0672398 4.63189 0.0883804C4.68344 0.109521 4.72909 0.142879 4.76489 0.185582L4.80202 0.239207L8.24089 6.42671C8.26762 6.4747 8.28245 6.52839 8.28415 6.58329C8.28585 6.63819 8.27437 6.6927 8.25067 6.74226C8.22698 6.79181 8.19175 6.83496 8.14794 6.86809C8.10413 6.90123 8.05302 6.92339 7.99889 6.93271L7.94046 6.93752H1.06271C1.00776 6.93763 0.953582 6.92457 0.904722 6.89942C0.855862 6.87428 0.813742 6.83779 0.781893 6.79301C0.750044 6.74824 0.729393 6.69647 0.721672 6.64207C0.713951 6.58767 0.719385 6.5322 0.737519 6.48033L0.762269 6.42671L4.20046 0.239207L0.762269 6.42671H0.762956ZM4.50158 4.79046C4.36483 4.79046 4.23368 4.84478 4.13698 4.94148C4.04028 5.03818 3.98596 5.16933 3.98596 5.30608C3.98596 5.44283 4.04028 5.57399 4.13698 5.67068C4.23368 5.76738 4.36483 5.82171 4.50158 5.82171C4.63833 5.82171 4.76948 5.76738 4.86618 5.67068C4.96288 5.57399 5.01721 5.44283 5.01721 5.30608C5.01721 5.16933 4.96288 5.03818 4.86618 4.94148C4.76948 4.84478 4.63833 4.79046 4.50158 4.79046ZM4.50158 2.72796C4.39848 2.72782 4.29878 2.76476 4.22065 2.83203C4.14253 2.8993 4.09119 2.99242 4.07602 3.09439L4.07189 3.15764L4.07121 3.84377L4.07533 3.90702C4.09018 4.0092 4.14133 4.10261 4.21942 4.17016C4.2975 4.23772 4.3973 4.2749 4.50055 4.2749C4.6038 4.2749 4.7036 4.23772 4.78168 4.17016C4.85977 4.10261 4.91092 4.0092 4.92577 3.90702L4.93058 3.84377V3.15833L4.92646 3.09508C4.9113 2.99323 4.86006 2.9002 4.78208 2.83295C4.7041 2.76569 4.60456 2.72868 4.50158 2.72864V2.72796Z" fill="#FE7B5D" fill-opacity="0.65"/>
</svg>
