<svg width="100" height="100" viewBox="0 0 100 100" fill="none" xmlns="http://www.w3.org/2000/svg">
<path d="M6 24.3958C6 23.6595 6.59695 23.0625 7.33333 23.0625H14C14.7364 23.0625 15.3333 23.6595 15.3333 24.3958V84.3958C15.3333 85.1322 15.9303 85.7292 16.6667 85.7292H78.3573C79.0937 85.7292 79.6906 86.3261 79.6906 87.0625V93.7292C79.6906 94.4655 79.0937 95.0625 78.3573 95.0625H7.33334C6.59696 95.0625 6 94.4655 6 93.7292V24.3958Z" fill="white"/>
<path d="M84.2861 5.84821C89.6509 5.84844 93.9998 10.1974 94 15.5621V65.3482C94 70.7131 89.651 75.0619 84.2861 75.0621H35.7139C30.349 75.0619 26 70.7131 26 65.3482V15.5621C26.0002 10.1974 30.3491 5.84844 35.7139 5.84821H84.2861ZM40.5713 54.4195C39.2301 54.4196 38.1426 55.507 38.1426 56.8482V60.4908C38.1426 61.832 39.2301 62.9194 40.5713 62.9195H62.4287C63.7699 62.9195 64.8574 61.832 64.8574 60.4908V56.8482C64.8574 55.507 63.7699 54.4196 62.4287 54.4195H40.5713ZM40.5713 36.2056C39.2301 36.2057 38.1426 37.2931 38.1426 38.6343V42.2769C38.1427 43.6181 39.2302 44.7055 40.5713 44.7056H80.6426C81.9838 44.7056 83.0712 43.6181 83.0713 42.2769V38.6343C83.0713 37.2931 81.9838 36.2056 80.6426 36.2056H40.5713ZM40.5713 17.9908C39.2302 17.9909 38.1427 19.0784 38.1426 20.4195V24.0621C38.1426 25.4033 39.2301 26.4907 40.5713 26.4908H80.6426C81.9838 26.4908 83.0713 25.4033 83.0713 24.0621V20.4195C83.0712 19.0783 81.9838 17.9908 80.6426 17.9908H40.5713Z" fill="white"/>
</svg>
