<svg width="12" height="20" viewBox="0 0 12 20" fill="none" xmlns="http://www.w3.org/2000/svg">
<path d="M10.8807 0.824271C10.7645 0.707861 10.6266 0.615501 10.4747 0.552481C10.3229 0.489471 10.1601 0.457031 9.99569 0.457031C9.83119 0.457031 9.66839 0.489471 9.51659 0.552481C9.36469 0.615501 9.22679 0.707861 9.11069 0.824271L0.700653 9.2343C0.607953 9.3268 0.534403 9.4367 0.484223 9.5576C0.434033 9.6786 0.408203 9.8083 0.408203 9.9393C0.408203 10.0702 0.434033 10.1999 0.484223 10.3209C0.534403 10.4419 0.607953 10.5518 0.700653 10.6443L9.11069 19.0543C9.60069 19.5443 10.3907 19.5443 10.8807 19.0543C11.3707 18.5643 11.3707 17.7743 10.8807 17.2843L3.54065 9.9443L10.8907 2.59427C11.3707 2.10427 11.3707 1.31427 10.8807 0.824271Z" fill="white"/>
</svg>
