<svg width="12" height="20" viewBox="0 0 12 20" fill="none" xmlns="http://www.w3.org/2000/svg">
<path d="M0.777511 19.0546C0.893711 19.171 1.03161 19.2634 1.18351 19.3264C1.33531 19.3894 1.49811 19.4219 1.66251 19.4219C1.82701 19.4219 1.98981 19.3894 2.14161 19.3264C2.29351 19.2634 2.43141 19.171 2.54751 19.0546L10.9576 10.6446C11.0503 10.5521 11.1238 10.4422 11.174 10.3213C11.2242 10.2003 11.25 10.0706 11.25 9.93961C11.25 9.80871 11.2242 9.67901 11.174 9.55801C11.1238 9.43701 11.0503 9.3271 10.9576 9.2346L2.54751 0.824604C2.05751 0.334604 1.26751 0.334604 0.777511 0.824604C0.287511 1.3146 0.287511 2.1046 0.777511 2.5946L8.11755 9.93461L0.76751 17.2846C0.28751 17.7746 0.287511 18.5646 0.777511 19.0546Z" fill="white"/>
</svg>
